<svg width="1584" height="396" viewBox="0 0 1584 396" fill="none" xmlns="http://www.w3.org/2000/svg">
<rect width="1584" height="396" fill="#F5F5F5"/>
<g id="Awesome banner" clip-path="url(#clip0_0_1)">
<rect width="1584" height="396" fill="url(#paint0_linear_0_1)"/>
<ellipse id="Ellipse 2" cx="323" cy="64" rx="285" ry="288" fill="url(#paint1_linear_0_1)" fill-opacity="0.1"/>
<g id="copyright">
<path d="M75.95 334.52L72.30 334.52L72.30 311.16L77.20 311.16L83.70 330.04Q83.60 329.02 83.50 327.62Q83.41 326.23 83.33 324.79Q83.25 323.35 83.25 322.23L83.25 311.16L86.90 311.16L86.90 334.52L82 334.52L75.57 315.64Q75.63 316.57 75.73 317.88Q75.82 319.19 75.89 320.57Q75.95 321.94 75.95 323.10L75.95 334.52M98.80 334.84Q96.46 334.84 94.67 333.96Q92.88 333.08 91.89 331.53Q90.90 329.98 90.90 327.93Q90.90 325.78 92.13 324.18Q93.36 322.58 95.34 322.17L95.34 322.10Q93.65 321.75 92.61 320.38Q91.57 319 91.57 317.11Q91.57 315.26 92.48 313.85Q93.39 312.44 95.02 311.64Q96.66 310.84 98.80 310.84Q100.94 310.84 102.59 311.64Q104.24 312.44 105.15 313.85Q106.06 315.26 106.06 317.11Q106.06 319 105.01 320.38Q103.95 321.75 102.26 322.10L102.26 322.17Q104.24 322.58 105.47 324.18Q106.70 325.78 106.70 327.93Q106.70 329.98 105.71 331.53Q104.72 333.08 102.93 333.96Q101.14 334.84 98.80 334.84M98.80 320.73Q100.30 320.73 101.23 319.82Q102.16 318.90 102.16 317.46Q102.16 315.99 101.23 315.08Q100.30 314.17 98.80 314.17Q97.30 314.17 96.37 315.08Q95.44 315.99 95.44 317.46Q95.44 318.90 96.37 319.82Q97.30 320.73 98.80 320.73M98.80 331.45Q100.56 331.45 101.68 330.42Q102.80 329.40 102.80 327.74Q102.80 326.04 101.68 325Q100.56 323.96 98.80 323.96Q97.04 323.96 95.92 325Q94.80 326.04 94.80 327.74Q94.80 329.40 95.92 330.42Q97.04 331.45 98.80 331.45M114.35 334.52L110.70 334.52L110.70 311.16L115.60 311.16L122.10 330.04Q122 329.02 121.90 327.62Q121.81 326.23 121.73 324.79Q121.65 323.35 121.65 322.23L121.65 311.16L125.30 311.16L125.30 334.52L120.40 334.52L113.97 315.64Q114.03 316.57 114.13 317.88Q114.22 319.19 114.29 320.57Q114.35 321.94 114.35 323.10" fill="white" fill-opacity="0.9"/>
<path d="M161.48 325.24L151.24 325.24L151.24 322.68L161.48 322.68" fill="white" fill-opacity="0.9"/>
<path d="M195.02 334.84Q191.82 334.84 189.96 333.05Q188.11 331.26 188.11 328.12L188.11 317.56Q188.11 314.42 189.96 312.63Q191.82 310.84 195.02 310.84Q198.15 310.84 200.01 312.65Q201.87 314.46 201.87 317.56L198.99 317.56Q198.99 315.58 197.95 314.50Q196.91 313.43 195.02 313.43Q193.13 313.43 192.06 314.50Q190.99 315.58 190.99 317.56L190.99 328.12Q190.99 330.10 192.06 331.18Q193.13 332.25 195.02 332.25Q196.91 332.25 197.95 331.18Q198.99 330.10 198.99 328.12L201.87 328.12Q201.87 331.22 200.01 333.03Q198.15 334.84 195.02 334.84" fill="white" fill-opacity="0.9"/>
<path d="M213.96 334.84Q210.83 334.84 209 333.02Q207.18 331.19 207.18 327.80L207.18 317.88Q207.18 314.49 209 312.66Q210.83 310.84 213.96 310.84Q217.10 310.84 218.92 312.66Q220.75 314.49 220.75 317.85L220.75 327.80Q220.75 331.19 218.92 333.02Q217.10 334.84 213.96 334.84M213.96 332.25Q215.85 332.25 216.86 331.18Q217.87 330.10 217.87 328.12L217.87 317.56Q217.87 315.58 216.86 314.50Q215.85 313.43 213.96 313.43Q212.11 313.43 211.08 314.50Q210.06 315.58 210.06 317.56L210.06 328.12Q210.06 330.10 211.08 331.18Q212.11 332.25 213.96 332.25" fill="white" fill-opacity="0.9"/>
<path d="M228.65 334.52L225.87 334.52L225.87 311.16L230.12 311.16L233.10 321.27L236.20 311.16L240.46 311.16L240.46 334.52L237.67 334.52L237.67 323.48Q237.67 321.91 237.72 319.88Q237.77 317.85 237.87 315.77Q237.96 313.69 238.09 312.02L234.31 324.09L231.82 324.09L228.20 312.31Q228.46 314.68 228.55 317.50Q228.65 320.31 228.65 323.48" fill="white" fill-opacity="0.9"/>
<path d="M247.85 334.52L245.07 334.52L245.07 311.16L249.32 311.16L252.30 321.27L255.40 311.16L259.66 311.16L259.66 334.52L256.87 334.52L256.87 323.48Q256.87 321.91 256.92 319.88Q256.97 317.85 257.07 315.77Q257.16 313.69 257.29 312.02L253.51 324.09L251.02 324.09L247.40 312.31Q247.66 314.68 247.75 317.50Q247.85 320.31 247.85 323.48" fill="white" fill-opacity="0.9"/>
<path d="M271.56 334.84Q268.30 334.84 266.57 333.03Q264.84 331.22 264.84 328.12L264.84 311.16L267.72 311.16L267.72 328.12Q267.72 330.04 268.67 331.16Q269.61 332.28 271.56 332.28Q273.48 332.28 274.44 331.16Q275.40 330.04 275.40 328.12L275.40 311.16L278.28 311.16L278.28 328.12Q278.28 331.26 276.57 333.05Q274.86 334.84 271.56 334.84" fill="white" fill-opacity="0.9"/>
<path d="M286.83 334.52L284.04 334.52L284.04 311.16L287.88 311.16L295.02 331.16Q294.95 330.36 294.87 329.19Q294.79 328.02 294.75 326.73Q294.70 325.43 294.70 324.28L294.70 311.16L297.48 311.16L297.48 334.52L293.64 334.52L286.54 314.52Q286.60 315.29 286.67 316.46Q286.73 317.62 286.78 318.92Q286.83 320.22 286.83 321.40" fill="white" fill-opacity="0.9"/>
<path d="M316.20 334.52L303.72 334.52L303.72 331.90L308.49 331.90L308.49 313.78L303.72 313.78L303.72 311.16L316.20 311.16L316.20 313.78L311.43 313.78L311.43 331.90L316.20 331.90" fill="white" fill-opacity="0.9"/>
<path d="M330.60 334.52L327.72 334.52L327.72 313.78L321.32 313.78L321.32 311.16L337 311.16L337 313.78L330.60 313.78" fill="white" fill-opacity="0.9"/>
<path d="M349.80 334.52L346.92 334.52L346.92 325.78L339.88 311.16L342.95 311.16L347.50 320.76Q347.88 321.56 348.11 322.12Q348.33 322.68 348.39 322.94Q348.46 322.68 348.70 322.12Q348.94 321.56 349.32 320.76L353.87 311.16L356.84 311.16L349.80 325.78" fill="white" fill-opacity="0.9"/>
<path d="M382.83 334.52L380.04 334.52L380.04 311.16L383.88 311.16L391.02 331.16Q390.95 330.36 390.87 329.19Q390.79 328.02 390.75 326.73Q390.70 325.43 390.70 324.28L390.70 311.16L393.48 311.16L393.48 334.52L389.64 334.52L382.54 314.52Q382.60 315.29 382.67 316.46Q382.73 317.62 382.78 318.92Q382.83 320.22 382.83 321.40" fill="white" fill-opacity="0.9"/>
<path d="M405.96 334.84Q402.83 334.84 401 333.02Q399.18 331.19 399.18 327.80L399.18 317.88Q399.18 314.49 401 312.66Q402.83 310.84 405.96 310.84Q409.10 310.84 410.92 312.66Q412.75 314.49 412.75 317.85L412.75 327.80Q412.75 331.19 410.92 333.02Q409.10 334.84 405.96 334.84M405.96 332.25Q407.85 332.25 408.86 331.18Q409.87 330.10 409.87 328.12L409.87 317.56Q409.87 315.58 408.86 314.50Q407.85 313.43 405.96 313.43Q404.11 313.43 403.08 314.50Q402.06 315.58 402.06 317.56L402.06 328.12Q402.06 330.10 403.08 331.18Q404.11 332.25 405.96 332.25" fill="white" fill-opacity="0.9"/>
<path d="M424.55 334.52L418.51 334.52L418.51 311.16L424.55 311.16Q426.83 311.16 428.47 312.02Q430.12 312.89 431.03 314.46Q431.95 316.02 431.95 318.17L431.95 327.48Q431.95 329.62 431.03 331.21Q430.12 332.79 428.47 333.66Q426.83 334.52 424.55 334.52M421.39 313.72L421.39 331.96L424.55 331.96Q426.67 331.96 427.87 330.78Q429.07 329.59 429.07 327.48L429.07 318.17Q429.07 316.09 427.87 314.90Q426.67 313.72 424.55 313.72" fill="white" fill-opacity="0.9"/>
<path d="M451.40 334.52L437.96 334.52L437.96 311.16L451.40 311.16L451.40 313.78L440.81 313.78L440.81 321.02L450.28 321.02L450.28 323.58L440.81 323.58L440.81 331.90L451.40 331.90" fill="white" fill-opacity="0.9"/>
<path d="M463.69 334.84Q460.30 334.84 458.28 333.05Q456.27 331.26 456.27 328.12L459.15 328.12Q459.15 330.07 460.39 331.18Q461.64 332.28 463.69 332.28Q465.67 332.28 466.86 331.13Q468.04 329.98 468.04 328.12Q468.04 326.71 467.29 325.67Q466.54 324.63 465.13 324.25L461.58 323.26Q459.37 322.62 458.11 320.97Q456.84 319.32 456.84 317.08Q456.84 315.22 457.67 313.82Q458.51 312.41 460.01 311.62Q461.51 310.84 463.47 310.84Q465.45 310.84 466.97 311.62Q468.49 312.41 469.35 313.80Q470.22 315.19 470.22 317.02L467.34 317.02Q467.34 315.42 466.25 314.41Q465.16 313.40 463.47 313.40Q461.77 313.40 460.71 314.41Q459.66 315.42 459.66 317.02Q459.66 318.30 460.35 319.21Q461.03 320.12 462.28 320.47L465.93 321.50Q468.27 322.14 469.56 323.91Q470.86 325.69 470.86 328.12Q470.86 331.19 468.91 333.02Q466.95 334.84 463.69 334.84" fill="white" fill-opacity="0.9"/>
</g>
<path d="M74.37 197.64L72.23 197.64L72.23 180.12L77.63 180.12Q79.19 180.12 80.37 180.76Q81.54 181.39 82.19 182.52Q82.84 183.65 82.84 185.16Q82.84 186.94 81.93 188.21Q81.02 189.48 79.50 189.98L83.08 197.64L80.70 197.64L77.27 190.20L74.37 190.20L74.37 197.64M74.37 182.06L74.37 188.26L77.63 188.26Q78.98 188.26 79.79 187.40Q80.61 186.55 80.61 185.16Q80.61 183.74 79.79 182.90Q78.98 182.06 77.63 182.06" fill="white" fill-opacity="0.7"/>
<path d="M91.60 197.88Q89.27 197.88 87.84 196.48Q86.42 195.07 86.42 192.60L86.42 189.48Q86.42 187.01 87.84 185.60Q89.27 184.20 91.60 184.20Q93.16 184.20 94.32 184.82Q95.49 185.45 96.14 186.58Q96.78 187.70 96.78 189.24L96.78 191.59L88.53 191.59L88.53 192.84Q88.53 194.30 89.37 195.16Q90.21 196.01 91.60 196.01Q92.80 196.01 93.58 195.54Q94.36 195.07 94.53 194.28L96.69 194.28Q96.47 195.94 95.08 196.91Q93.69 197.88 91.60 197.88M88.53 189.24L88.53 189.91L94.67 189.91L94.67 189.24Q94.67 187.68 93.87 186.83Q93.06 185.98 91.60 185.98Q90.14 185.98 89.33 186.83Q88.53 187.68 88.53 189.24" fill="white" fill-opacity="0.7"/>
<path d="M106.19 197.88Q103.79 197.88 102.35 196.54Q100.91 195.19 100.91 192.84L100.91 189.24Q100.91 186.89 102.35 185.54Q103.79 184.20 106.19 184.20Q108.47 184.20 109.88 185.42Q111.28 186.65 111.35 188.76L109.19 188.76Q109.12 187.49 108.33 186.80Q107.54 186.12 106.19 186.12Q104.78 186.12 103.92 186.92Q103.07 187.73 103.07 189.22L103.07 192.84Q103.07 194.33 103.92 195.14Q104.78 195.96 106.19 195.96Q107.54 195.96 108.33 195.26Q109.12 194.57 109.19 193.32L111.35 193.32Q111.28 195.43 109.88 196.66Q108.47 197.88 106.19 197.88" fill="white" fill-opacity="0.7"/>
<path d="M120.38 197.88Q118.10 197.88 116.73 196.52Q115.36 195.17 115.36 192.84L115.36 184.44L117.52 184.44L117.52 192.84Q117.52 194.28 118.29 195.13Q119.06 195.98 120.38 195.98Q121.72 195.98 122.50 195.13Q123.28 194.28 123.28 192.84L123.28 184.44L125.44 184.44L125.44 192.84Q125.44 195.17 124.05 196.52Q122.66 197.88 120.38 197.88" fill="white" fill-opacity="0.7"/>
<path d="M132.45 197.64L130.29 197.64L130.29 184.44L132.45 184.44L132.45 186.96L132.50 186.96Q132.66 185.69 133.58 184.94Q134.49 184.20 136.02 184.20Q138.09 184.20 139.20 185.44Q140.32 186.67 140.32 188.95L140.32 190.08L138.16 190.08L138.16 188.95Q138.16 186.07 135.35 186.07Q133.94 186.07 133.19 186.89Q132.45 187.70 132.45 189.24" fill="white" fill-opacity="0.7"/>
<path d="M146.85 197.64L144.69 197.64L144.69 184.44L146.85 184.44L146.85 186.96L146.90 186.96Q147.06 185.69 147.98 184.94Q148.89 184.20 150.42 184.20Q152.49 184.20 153.60 185.44Q154.72 186.67 154.72 188.95L154.72 190.08L152.56 190.08L152.56 188.95Q152.56 186.07 149.75 186.07Q148.34 186.07 147.59 186.89Q146.85 187.70 146.85 189.24" fill="white" fill-opacity="0.7"/>
<path d="M169.72 197.64L158.44 197.64L158.44 195.67L163.12 195.67L163.12 186.41L158.92 186.41L158.92 184.44L165.28 184.44L165.28 195.67L169.72 195.67L169.72 197.64M163.96 182.06Q163.17 182.06 162.71 181.66Q162.26 181.25 162.26 180.55Q162.26 179.83 162.71 179.41Q163.17 178.99 163.96 178.99Q164.75 178.99 165.21 179.41Q165.66 179.83 165.66 180.55Q165.66 181.25 165.21 181.66Q164.75 182.06 163.96 182.06" fill="white" fill-opacity="0.7"/>
<path d="M175.17 197.64L173.01 197.64L173.01 184.44L175.17 184.44L175.17 186.96L175.19 186.96Q175.36 185.64 176.27 184.92Q177.18 184.20 178.70 184.20Q180.69 184.20 181.86 185.42Q183.04 186.65 183.04 188.76L183.04 197.64L180.88 197.64L180.88 189.14Q180.88 187.63 180.12 186.83Q179.37 186.02 178.07 186.02Q176.73 186.02 175.95 186.86Q175.17 187.70 175.17 189.24" fill="white" fill-opacity="0.7"/>
<path d="M192.76 201.96L189.06 201.96L189.06 199.99L192.78 199.99Q193.91 199.99 194.56 199.36Q195.21 198.72 195.21 197.64L195.21 196.44L195.26 194.28L195.18 194.28Q194.99 195.46 194.06 196.09Q193.12 196.73 191.70 196.73Q189.66 196.73 188.49 195.43Q187.31 194.14 187.31 191.88L187.31 189.10Q187.31 186.84 188.49 185.52Q189.66 184.20 191.70 184.20Q193.12 184.20 194.06 184.87Q194.99 185.54 195.18 186.72L195.23 186.72L195.23 184.44L197.37 184.44L197.37 197.64Q197.37 199.63 196.13 200.80Q194.90 201.96 192.76 201.96M192.35 194.93Q193.70 194.93 194.46 194.09Q195.23 193.25 195.23 191.76L195.23 189.24Q195.23 187.75 194.46 186.91Q193.70 186.07 192.35 186.07Q190.98 186.07 190.23 186.86Q189.47 187.66 189.47 189L189.47 192Q189.47 193.34 190.23 194.14Q190.98 194.93 192.35 194.93" fill="white" fill-opacity="0.7"/>
<path d="M217.41 197.64L215.20 197.64L219.76 180.12L222.66 180.12L227.20 197.64L225.02 197.64L223.86 192.98L218.56 192.98L217.41 197.64M220.34 185.74L218.99 191.16L223.41 191.16L222.06 185.76Q221.68 184.22 221.46 183.19Q221.25 182.16 221.20 181.85Q221.15 182.16 220.94 183.19Q220.72 184.22 220.34 185.74" fill="white" fill-opacity="0.7"/>
<path d="M232.77 197.64L230.61 197.64L230.61 180.12L236.25 180.12Q238.70 180.12 240.15 181.52Q241.60 182.93 241.60 185.28Q241.60 187.63 240.15 189.04Q238.70 190.44 236.25 190.44L232.77 190.44L232.77 197.64M232.77 182.06L232.77 188.50L236.25 188.50Q237.66 188.50 238.52 187.62Q239.37 186.74 239.37 185.28Q239.37 183.79 238.52 182.93Q237.66 182.06 236.25 182.06" fill="white" fill-opacity="0.7"/>
<path d="M254.68 197.64L245.32 197.64L245.32 195.67L248.90 195.67L248.90 182.09L245.32 182.09L245.32 180.12L254.68 180.12L254.68 182.09L251.10 182.09L251.10 195.67L254.68 195.67" fill="white" fill-opacity="0.7"/>
<path d="M264.93 197.83L263.87 197.83Q261.66 197.83 260.45 196.84Q259.24 195.84 259.24 194.02L261.40 194.02Q261.40 194.93 262.05 195.44Q262.70 195.96 263.87 195.96L264.93 195.96Q266.13 195.96 266.79 195.43Q267.45 194.90 267.45 193.94Q267.45 192.24 265.89 192.02L262.24 191.50Q260.90 191.30 260.15 190.38Q259.41 189.46 259.41 187.94Q259.41 186.22 260.60 185.23Q261.78 184.25 263.87 184.25L264.93 184.25Q266.85 184.25 268.06 185.20Q269.27 186.14 269.37 187.68L267.18 187.68Q267.14 186.98 266.52 186.53Q265.91 186.07 264.93 186.07L263.87 186.07Q262.77 186.07 262.14 186.58Q261.52 187.08 261.52 187.94Q261.52 189.34 262.79 189.53L266.20 190.01Q269.56 190.49 269.56 193.94Q269.56 195.79 268.35 196.81Q267.14 197.83 264.93 197.83" fill="white" fill-opacity="0.7"/>
<path d="M292.05 197.88Q290.01 197.88 288.81 196.74Q287.61 195.60 287.61 193.75Q287.61 192.53 288.16 191.62Q288.71 190.70 289.70 190.19Q290.68 189.67 291.95 189.67L296.03 189.67L296.03 188.64Q296.03 186.07 293.22 186.07Q291.98 186.07 291.21 186.53Q290.44 186.98 290.39 187.80L288.23 187.80Q288.35 186.24 289.68 185.22Q291.02 184.20 293.22 184.20Q295.62 184.20 296.91 185.35Q298.19 186.50 298.19 188.57L298.19 197.64L296.06 197.64L296.06 195.24L296.01 195.24Q295.82 196.46 294.78 197.17Q293.75 197.88 292.05 197.88M292.58 196.06Q294.16 196.06 295.10 195.29Q296.03 194.52 296.03 193.20L296.03 191.35L292.19 191.35Q291.14 191.35 290.48 191.99Q289.82 192.62 289.82 193.68Q289.82 194.78 290.55 195.42Q291.28 196.06 292.58 196.06" fill="white" fill-opacity="0.7"/>
<path d="M313.60 197.64L309.52 197.64Q307.77 197.64 306.72 196.62Q305.68 195.60 305.68 193.92L305.68 182.09L301.12 182.09L301.12 180.12L307.84 180.12L307.84 193.92Q307.84 194.74 308.30 195.20Q308.75 195.67 309.52 195.67L313.60 195.67" fill="white" fill-opacity="0.7"/>
<path d="M328 197.64L323.92 197.64Q322.17 197.64 321.12 196.62Q320.08 195.60 320.08 193.92L320.08 182.09L315.52 182.09L315.52 180.12L322.24 180.12L322.24 193.92Q322.24 194.74 322.70 195.20Q323.15 195.67 323.92 195.67L328 195.67" fill="white" fill-opacity="0.7"/>
<path d="M336.40 197.83Q334.02 197.83 332.62 196.44Q331.22 195.05 331.22 192.55L331.22 189.53Q331.22 187.01 332.61 185.63Q334 184.25 336.40 184.25Q338.80 184.25 340.19 185.63Q341.58 187.01 341.58 189.53L341.58 192.55Q341.58 195.05 340.18 196.44Q338.78 197.83 336.40 197.83M336.40 195.91Q337.82 195.91 338.62 195.12Q339.42 194.33 339.42 192.79L339.42 189.29Q339.42 187.75 338.62 186.96Q337.82 186.17 336.40 186.17Q335.01 186.17 334.19 186.96Q333.38 187.75 333.38 189.29L333.38 192.79Q333.38 194.33 334.19 195.12Q335.01 195.91 336.40 195.91" fill="white" fill-opacity="0.7"/>
<path d="M348.88 197.64L346.50 197.64L344.34 184.44L346.22 184.44L347.56 193.75Q347.63 194.28 347.70 194.92Q347.78 195.55 347.80 195.96Q347.85 195.55 347.91 194.92Q347.97 194.28 348.06 193.75L349.72 184.44L351.88 184.44L353.54 193.75Q353.63 194.28 353.72 194.92Q353.80 195.55 353.82 195.96Q353.87 195.55 353.94 194.92Q354.02 194.28 354.09 193.75L355.48 184.44L357.26 184.44L355 197.64L352.62 197.64L351.11 188.52Q351.02 187.85 350.93 187.09Q350.85 186.34 350.80 185.93Q350.78 186.34 350.68 187.09Q350.58 187.85 350.46 188.52" fill="white" fill-opacity="0.7"/>
<path d="M378.93 201.96L376.67 201.96L378.62 196.82L373.70 184.44L376.02 184.44L379.14 192.60Q379.34 193.08 379.50 193.61Q379.67 194.14 379.74 194.52Q379.82 194.14 379.98 193.61Q380.15 193.08 380.32 192.60L383.22 184.44L385.50 184.44" fill="white" fill-opacity="0.7"/>
<path d="M394 197.83Q391.62 197.83 390.22 196.44Q388.82 195.05 388.82 192.55L388.82 189.53Q388.82 187.01 390.21 185.63Q391.60 184.25 394 184.25Q396.40 184.25 397.79 185.63Q399.18 187.01 399.18 189.53L399.18 192.55Q399.18 195.05 397.78 196.44Q396.38 197.83 394 197.83M394 195.91Q395.42 195.91 396.22 195.12Q397.02 194.33 397.02 192.79L397.02 189.29Q397.02 187.75 396.22 186.96Q395.42 186.17 394 186.17Q392.61 186.17 391.79 186.96Q390.98 187.75 390.98 189.29L390.98 192.79Q390.98 194.33 391.79 195.12Q392.61 195.91 394 195.91" fill="white" fill-opacity="0.7"/>
<path d="M408.38 197.88Q406.10 197.88 404.73 196.52Q403.36 195.17 403.36 192.84L403.36 184.44L405.52 184.44L405.52 192.84Q405.52 194.28 406.29 195.13Q407.06 195.98 408.38 195.98Q409.72 195.98 410.50 195.13Q411.28 194.28 411.28 192.84L411.28 184.44L413.44 184.44L413.44 192.84Q413.44 195.17 412.05 196.52Q410.66 197.88 408.38 197.88" fill="white" fill-opacity="0.7"/>
<path d="M442.36 197.64L438.52 197.64Q436.89 197.64 435.90 196.69Q434.92 195.74 434.92 194.16L434.92 186.41L431.13 186.41L431.13 184.44L434.92 184.44L434.92 180.72L437.08 180.72L437.08 184.44L442.48 184.44L442.48 186.41L437.08 186.41L437.08 194.16Q437.08 194.83 437.48 195.25Q437.87 195.67 438.52 195.67L442.36 195.67" fill="white" fill-opacity="0.7"/>
<path d="M451.60 197.83Q449.22 197.83 447.82 196.44Q446.42 195.05 446.42 192.55L446.42 189.53Q446.42 187.01 447.81 185.63Q449.20 184.25 451.60 184.25Q454 184.25 455.39 185.63Q456.78 187.01 456.78 189.53L456.78 192.55Q456.78 195.05 455.38 196.44Q453.98 197.83 451.60 197.83M451.60 195.91Q453.02 195.91 453.82 195.12Q454.62 194.33 454.62 192.79L454.62 189.29Q454.62 187.75 453.82 186.96Q453.02 186.17 451.60 186.17Q450.21 186.17 449.39 186.96Q448.58 187.75 448.58 189.29L448.58 192.79Q448.58 194.33 449.39 195.12Q450.21 195.91 451.60 195.91" fill="white" fill-opacity="0.7"/>
<path d="M476.66 197.64L474.64 197.64L474.64 184.44L476.51 184.44L476.51 186.19L476.56 186.19Q476.68 185.30 477.27 184.75Q477.86 184.20 478.77 184.20Q479.63 184.20 480.23 184.70Q480.83 185.21 481.10 186.07L481.12 186.07Q481.29 185.21 481.88 184.70Q482.46 184.20 483.38 184.20Q484.65 184.20 485.40 185.15Q486.16 186.10 486.16 187.61L486.16 197.64L484.14 197.64L484.14 187.58Q484.14 186.79 483.76 186.32Q483.38 185.86 482.70 185.86Q482.06 185.86 481.67 186.31Q481.29 186.77 481.29 187.56L481.29 197.64L479.51 197.64L479.51 187.58Q479.51 186.79 479.13 186.32Q478.74 185.86 478.10 185.86Q477.42 185.86 477.04 186.31Q476.66 186.77 476.66 187.56" fill="white" fill-opacity="0.7"/>
<path d="M493.65 197.88Q491.61 197.88 490.41 196.74Q489.21 195.60 489.21 193.75Q489.21 192.53 489.76 191.62Q490.31 190.70 491.30 190.19Q492.28 189.67 493.55 189.67L497.63 189.67L497.63 188.64Q497.63 186.07 494.82 186.07Q493.58 186.07 492.81 186.53Q492.04 186.98 491.99 187.80L489.83 187.80Q489.95 186.24 491.28 185.22Q492.62 184.20 494.82 184.20Q497.22 184.20 498.51 185.35Q499.79 186.50 499.79 188.57L499.79 197.64L497.66 197.64L497.66 195.24L497.61 195.24Q497.42 196.46 496.38 197.17Q495.35 197.88 493.65 197.88M494.18 196.06Q495.76 196.06 496.70 195.29Q497.63 194.52 497.63 193.20L497.63 191.35L493.79 191.35Q492.74 191.35 492.08 191.99Q491.42 192.62 491.42 193.68Q491.42 194.78 492.15 195.42Q492.88 196.06 494.18 196.06" fill="white" fill-opacity="0.7"/>
<path d="M506.37 197.64L504.21 197.64L504.21 184.44L506.37 184.44L506.37 186.96L506.39 186.96Q506.56 185.64 507.47 184.92Q508.38 184.20 509.90 184.20Q511.89 184.20 513.06 185.42Q514.24 186.65 514.24 188.76L514.24 197.64L512.08 197.64L512.08 189.14Q512.08 187.63 511.32 186.83Q510.57 186.02 509.27 186.02Q507.93 186.02 507.15 186.86Q506.37 187.70 506.37 189.24" fill="white" fill-opacity="0.7"/>
<path d="M522.45 197.88Q520.41 197.88 519.21 196.74Q518.01 195.60 518.01 193.75Q518.01 192.53 518.56 191.62Q519.11 190.70 520.10 190.19Q521.08 189.67 522.35 189.67L526.43 189.67L526.43 188.64Q526.43 186.07 523.62 186.07Q522.38 186.07 521.61 186.53Q520.84 186.98 520.79 187.80L518.63 187.80Q518.75 186.24 520.08 185.22Q521.42 184.20 523.62 184.20Q526.02 184.20 527.31 185.35Q528.59 186.50 528.59 188.57L528.59 197.64L526.46 197.64L526.46 195.24L526.41 195.24Q526.22 196.46 525.18 197.17Q524.15 197.88 522.45 197.88M522.98 196.06Q524.56 196.06 525.50 195.29Q526.43 194.52 526.43 193.20L526.43 191.35L522.59 191.35Q521.54 191.35 520.88 191.99Q520.22 192.62 520.22 193.68Q520.22 194.78 520.95 195.42Q521.68 196.06 522.98 196.06" fill="white" fill-opacity="0.7"/>
<path d="M538.36 201.96L534.66 201.96L534.66 199.99L538.38 199.99Q539.51 199.99 540.16 199.36Q540.81 198.72 540.81 197.64L540.81 196.44L540.86 194.28L540.78 194.28Q540.59 195.46 539.66 196.09Q538.72 196.73 537.30 196.73Q535.26 196.73 534.09 195.43Q532.91 194.14 532.91 191.88L532.91 189.10Q532.91 186.84 534.09 185.52Q535.26 184.20 537.30 184.20Q538.72 184.20 539.66 184.87Q540.59 185.54 540.78 186.72L540.83 186.72L540.83 184.44L542.97 184.44L542.97 197.64Q542.97 199.63 541.73 200.80Q540.50 201.96 538.36 201.96M537.95 194.93Q539.30 194.93 540.06 194.09Q540.83 193.25 540.83 191.76L540.83 189.24Q540.83 187.75 540.06 186.91Q539.30 186.07 537.95 186.07Q536.58 186.07 535.83 186.86Q535.07 187.66 535.07 189L535.07 192Q535.07 193.34 535.83 194.14Q536.58 194.93 537.95 194.93" fill="white" fill-opacity="0.7"/>
<path d="M552.40 197.88Q550.07 197.88 548.64 196.48Q547.22 195.07 547.22 192.60L547.22 189.48Q547.22 187.01 548.64 185.60Q550.07 184.20 552.40 184.20Q553.96 184.20 555.12 184.82Q556.29 185.45 556.94 186.58Q557.58 187.70 557.58 189.24L557.58 191.59L549.33 191.59L549.33 192.84Q549.33 194.30 550.17 195.16Q551.01 196.01 552.40 196.01Q553.60 196.01 554.38 195.54Q555.16 195.07 555.33 194.28L557.49 194.28Q557.27 195.94 555.88 196.91Q554.49 197.88 552.40 197.88M549.33 189.24L549.33 189.91L555.47 189.91L555.47 189.24Q555.47 187.68 554.67 186.83Q553.86 185.98 552.40 185.98Q550.94 185.98 550.13 186.83Q549.33 187.68 549.33 189.24" fill="white" fill-opacity="0.7"/>
<path d="M580.05 197.88Q578.01 197.88 576.81 196.74Q575.61 195.60 575.61 193.75Q575.61 192.53 576.16 191.62Q576.71 190.70 577.70 190.19Q578.68 189.67 579.95 189.67L584.03 189.67L584.03 188.64Q584.03 186.07 581.22 186.07Q579.98 186.07 579.21 186.53Q578.44 186.98 578.39 187.80L576.23 187.80Q576.35 186.24 577.68 185.22Q579.02 184.20 581.22 184.20Q583.62 184.20 584.91 185.35Q586.19 186.50 586.19 188.57L586.19 197.64L584.06 197.64L584.06 195.24L584.01 195.24Q583.82 196.46 582.78 197.17Q581.75 197.88 580.05 197.88M580.58 196.06Q582.16 196.06 583.10 195.29Q584.03 194.52 584.03 193.20L584.03 191.35L580.19 191.35Q579.14 191.35 578.48 191.99Q577.82 192.62 577.82 193.68Q577.82 194.78 578.55 195.42Q579.28 196.06 580.58 196.06" fill="white" fill-opacity="0.7"/>
<path d="M592.77 197.64L590.61 197.64L590.61 184.44L592.77 184.44L592.77 186.96L592.79 186.96Q592.96 185.64 593.87 184.92Q594.78 184.20 596.30 184.20Q598.29 184.20 599.46 185.42Q600.64 186.65 600.64 188.76L600.64 197.64L598.48 197.64L598.48 189.14Q598.48 187.63 597.72 186.83Q596.97 186.02 595.67 186.02Q594.33 186.02 593.55 186.86Q592.77 187.70 592.77 189.24" fill="white" fill-opacity="0.7"/>
<path d="M609.23 197.88Q607.26 197.88 606.08 196.56Q604.89 195.24 604.89 192.98L604.89 189.12Q604.89 186.84 606.06 185.52Q607.24 184.20 609.23 184.20Q610.72 184.20 611.69 184.94Q612.66 185.69 612.86 186.96L612.88 186.96L612.83 183.96L612.83 180.12L614.99 180.12L614.99 197.64L612.83 197.64L612.83 195.12L612.81 195.12Q612.64 196.42 611.68 197.15Q610.72 197.88 609.23 197.88M609.95 196.01Q611.30 196.01 612.06 195.17Q612.83 194.33 612.83 192.84L612.83 189.24Q612.83 187.75 612.06 186.91Q611.30 186.07 609.95 186.07Q608.58 186.07 607.82 186.78Q607.05 187.49 607.05 189.12L607.05 192.96Q607.05 194.57 607.82 195.29Q608.58 196.01 609.95 196.01" fill="white" fill-opacity="0.7"/>
<path d="M636.45 197.64L634.29 197.64L634.29 184.44L636.45 184.44L636.45 186.96L636.50 186.96Q636.66 185.69 637.58 184.94Q638.49 184.20 640.02 184.20Q642.09 184.20 643.20 185.44Q644.32 186.67 644.32 188.95L644.32 190.08L642.16 190.08L642.16 188.95Q642.16 186.07 639.35 186.07Q637.94 186.07 637.19 186.89Q636.45 187.70 636.45 189.24" fill="white" fill-opacity="0.7"/>
<path d="M653.20 197.88Q650.87 197.88 649.44 196.48Q648.02 195.07 648.02 192.60L648.02 189.48Q648.02 187.01 649.44 185.60Q650.87 184.20 653.20 184.20Q654.76 184.20 655.92 184.82Q657.09 185.45 657.74 186.58Q658.38 187.70 658.38 189.24L658.38 191.59L650.13 191.59L650.13 192.84Q650.13 194.30 650.97 195.16Q651.81 196.01 653.20 196.01Q654.40 196.01 655.18 195.54Q655.96 195.07 656.13 194.28L658.29 194.28Q658.07 195.94 656.68 196.91Q655.29 197.88 653.20 197.88M650.13 189.24L650.13 189.91L656.27 189.91L656.27 189.24Q656.27 187.68 655.47 186.83Q654.66 185.98 653.20 185.98Q651.74 185.98 650.93 186.83Q650.13 187.68 650.13 189.24" fill="white" fill-opacity="0.7"/>
<path d="M663.86 197.64L661.84 197.64L661.84 184.44L663.71 184.44L663.71 186.19L663.76 186.19Q663.88 185.30 664.47 184.75Q665.06 184.20 665.97 184.20Q666.83 184.20 667.43 184.70Q668.03 185.21 668.30 186.07L668.32 186.07Q668.49 185.21 669.08 184.70Q669.66 184.20 670.58 184.20Q671.85 184.20 672.60 185.15Q673.36 186.10 673.36 187.61L673.36 197.64L671.34 197.64L671.34 187.58Q671.34 186.79 670.96 186.32Q670.58 185.86 669.90 185.86Q669.26 185.86 668.87 186.31Q668.49 186.77 668.49 187.56L668.49 197.64L666.71 197.64L666.71 187.58Q666.71 186.79 666.33 186.32Q665.94 185.86 665.30 185.86Q664.62 185.86 664.24 186.31Q663.86 186.77 663.86 187.56" fill="white" fill-opacity="0.7"/>
<path d="M682 197.83Q679.62 197.83 678.22 196.44Q676.82 195.05 676.82 192.55L676.82 189.53Q676.82 187.01 678.21 185.63Q679.60 184.25 682 184.25Q684.40 184.25 685.79 185.63Q687.18 187.01 687.18 189.53L687.18 192.55Q687.18 195.05 685.78 196.44Q684.38 197.83 682 197.83M682 195.91Q683.42 195.91 684.22 195.12Q685.02 194.33 685.02 192.79L685.02 189.29Q685.02 187.75 684.22 186.96Q683.42 186.17 682 186.17Q680.61 186.17 679.79 186.96Q678.98 187.75 678.98 189.29L678.98 192.79Q678.98 194.33 679.79 195.12Q680.61 195.91 682 195.91" fill="white" fill-opacity="0.7"/>
<path d="M697.82 197.64L694.98 197.64L690.50 184.44L692.82 184.44L695.70 193.32Q695.97 194.11 696.16 194.84Q696.35 195.58 696.45 195.98Q696.57 195.58 696.74 194.84Q696.90 194.11 697.14 193.32L700.02 184.44L702.30 184.44" fill="white" fill-opacity="0.7"/>
<path d="M710.80 197.88Q708.47 197.88 707.04 196.48Q705.62 195.07 705.62 192.60L705.62 189.48Q705.62 187.01 707.04 185.60Q708.47 184.20 710.80 184.20Q712.36 184.20 713.52 184.82Q714.69 185.45 715.34 186.58Q715.98 187.70 715.98 189.24L715.98 191.59L707.73 191.59L707.73 192.84Q707.73 194.30 708.57 195.16Q709.41 196.01 710.80 196.01Q712 196.01 712.78 195.54Q713.56 195.07 713.73 194.28L715.89 194.28Q715.67 195.94 714.28 196.91Q712.89 197.88 710.80 197.88M707.73 189.24L707.73 189.91L713.87 189.91L713.87 189.24Q713.87 187.68 713.07 186.83Q712.26 185.98 710.80 185.98Q709.34 185.98 708.53 186.83Q707.73 187.68 707.73 189.24" fill="white" fill-opacity="0.7"/>
<path d="M738.93 201.96L736.67 201.96L738.62 196.82L733.70 184.44L736.02 184.44L739.14 192.60Q739.34 193.08 739.50 193.61Q739.67 194.14 739.74 194.52Q739.82 194.14 739.98 193.61Q740.15 193.08 740.32 192.60L743.22 184.44L745.50 184.44" fill="white" fill-opacity="0.7"/>
<path d="M754 197.83Q751.62 197.83 750.22 196.44Q748.82 195.05 748.82 192.55L748.82 189.53Q748.82 187.01 750.21 185.63Q751.60 184.25 754 184.25Q756.40 184.25 757.79 185.63Q759.18 187.01 759.18 189.53L759.18 192.55Q759.18 195.05 757.78 196.44Q756.38 197.83 754 197.83M754 195.91Q755.42 195.91 756.22 195.12Q757.02 194.33 757.02 192.79L757.02 189.29Q757.02 187.75 756.22 186.96Q755.42 186.17 754 186.17Q752.61 186.17 751.79 186.96Q750.98 187.75 750.98 189.29L750.98 192.79Q750.98 194.33 751.79 195.12Q752.61 195.91 754 195.91" fill="white" fill-opacity="0.7"/>
<path d="M768.38 197.88Q766.10 197.88 764.73 196.52Q763.36 195.17 763.36 192.84L763.36 184.44L765.52 184.44L765.52 192.84Q765.52 194.28 766.29 195.13Q767.06 195.98 768.38 195.98Q769.72 195.98 770.50 195.13Q771.28 194.28 771.28 192.84L771.28 184.44L773.44 184.44L773.44 192.84Q773.44 195.17 772.05 196.52Q770.66 197.88 768.38 197.88" fill="white" fill-opacity="0.7"/>
<path d="M780.45 197.64L778.29 197.64L778.29 184.44L780.45 184.44L780.45 186.96L780.50 186.96Q780.66 185.69 781.58 184.94Q782.49 184.20 784.02 184.20Q786.09 184.20 787.20 185.44Q788.32 186.67 788.32 188.95L788.32 190.08L786.16 190.08L786.16 188.95Q786.16 186.07 783.35 186.07Q781.94 186.07 781.19 186.89Q780.45 187.70 780.45 189.24" fill="white" fill-opacity="0.7"/>
<path d="M816.76 197.64L812.92 197.64Q811.29 197.64 810.30 196.69Q809.32 195.74 809.32 194.16L809.32 186.41L805.53 186.41L805.53 184.44L809.32 184.44L809.32 180.72L811.48 180.72L811.48 184.44L816.88 184.44L816.88 186.41L811.48 186.41L811.48 194.16Q811.48 194.83 811.88 195.25Q812.27 195.67 812.92 195.67L816.76 195.67" fill="white" fill-opacity="0.7"/>
<path d="M826 197.83Q823.62 197.83 822.22 196.44Q820.82 195.05 820.82 192.55L820.82 189.53Q820.82 187.01 822.21 185.63Q823.60 184.25 826 184.25Q828.40 184.25 829.79 185.63Q831.18 187.01 831.18 189.53L831.18 192.55Q831.18 195.05 829.78 196.44Q828.38 197.83 826 197.83M826 195.91Q827.42 195.91 828.22 195.12Q829.02 194.33 829.02 192.79L829.02 189.29Q829.02 187.75 828.22 186.96Q827.42 186.17 826 186.17Q824.61 186.17 823.79 186.96Q822.98 187.75 822.98 189.29L822.98 192.79Q822.98 194.33 823.79 195.12Q824.61 195.91 826 195.91" fill="white" fill-opacity="0.7"/>
<path d="M837.69 197.64L835.53 197.64L835.53 180.12L837.69 180.12L837.69 189.89L840.21 189.89L843.90 184.44L846.38 184.44L842.13 190.73L846.62 197.64L844.10 197.64L840.26 191.76L837.69 191.76" fill="white" fill-opacity="0.7"/>
<path d="M854.80 197.88Q852.47 197.88 851.04 196.48Q849.62 195.07 849.62 192.60L849.62 189.48Q849.62 187.01 851.04 185.60Q852.47 184.20 854.80 184.20Q856.36 184.20 857.52 184.82Q858.69 185.45 859.34 186.58Q859.98 187.70 859.98 189.24L859.98 191.59L851.73 191.59L851.73 192.84Q851.73 194.30 852.57 195.16Q853.41 196.01 854.80 196.01Q856 196.01 856.78 195.54Q857.56 195.07 857.73 194.28L859.89 194.28Q859.67 195.94 858.28 196.91Q856.89 197.88 854.80 197.88M851.73 189.24L851.73 189.91L857.87 189.91L857.87 189.24Q857.87 187.68 857.07 186.83Q856.26 185.98 854.80 185.98Q853.34 185.98 852.53 186.83Q851.73 187.68 851.73 189.24" fill="white" fill-opacity="0.7"/>
<path d="M866.37 197.64L864.21 197.64L864.21 184.44L866.37 184.44L866.37 186.96L866.39 186.96Q866.56 185.64 867.47 184.92Q868.38 184.20 869.90 184.20Q871.89 184.20 873.06 185.42Q874.24 186.65 874.24 188.76L874.24 197.64L872.08 197.64L872.08 189.14Q872.08 187.63 871.32 186.83Q870.57 186.02 869.27 186.02Q867.93 186.02 867.15 186.86Q866.37 187.70 866.37 189.24" fill="white" fill-opacity="0.7"/>
<path d="M884.13 197.83L883.07 197.83Q880.86 197.83 879.65 196.84Q878.44 195.84 878.44 194.02L880.60 194.02Q880.60 194.93 881.25 195.44Q881.90 195.96 883.07 195.96L884.13 195.96Q885.33 195.96 885.99 195.43Q886.65 194.90 886.65 193.94Q886.65 192.24 885.09 192.02L881.44 191.50Q880.10 191.30 879.35 190.38Q878.61 189.46 878.61 187.94Q878.61 186.22 879.80 185.23Q880.98 184.25 883.07 184.25L884.13 184.25Q886.05 184.25 887.26 185.20Q888.47 186.14 888.57 187.68L886.38 187.68Q886.34 186.98 885.72 186.53Q885.11 186.07 884.13 186.07L883.07 186.07Q881.97 186.07 881.34 186.58Q880.72 187.08 880.72 187.94Q880.72 189.34 881.99 189.53L885.40 190.01Q888.76 190.49 888.76 193.94Q888.76 195.79 887.55 196.81Q886.34 197.83 884.13 197.83" fill="white" fill-opacity="0.7"/>
<path d="M912.40 197.83Q910.02 197.83 908.62 196.44Q907.22 195.05 907.22 192.55L907.22 189.53Q907.22 187.01 908.61 185.63Q910 184.25 912.40 184.25Q914.80 184.25 916.19 185.63Q917.58 187.01 917.58 189.53L917.58 192.55Q917.58 195.05 916.18 196.44Q914.78 197.83 912.40 197.83M912.40 195.91Q913.82 195.91 914.62 195.12Q915.42 194.33 915.42 192.79L915.42 189.29Q915.42 187.75 914.62 186.96Q913.82 186.17 912.40 186.17Q911.01 186.17 910.19 186.96Q909.38 187.75 909.38 189.29L909.38 192.79Q909.38 194.33 910.19 195.12Q911.01 195.91 912.40 195.91" fill="white" fill-opacity="0.7"/>
<path d="M924.45 197.64L922.29 197.64L922.29 184.44L924.45 184.44L924.45 186.96L924.50 186.96Q924.66 185.69 925.58 184.94Q926.49 184.20 928.02 184.20Q930.09 184.20 931.20 185.44Q932.32 186.67 932.32 188.95L932.32 190.08L930.16 190.08L930.16 188.95Q930.16 186.07 927.35 186.07Q925.94 186.07 925.19 186.89Q924.45 187.70 924.45 189.24" fill="white" fill-opacity="0.7"/>
<path d="M956.13 197.83L955.07 197.83Q952.86 197.83 951.65 196.84Q950.44 195.84 950.44 194.02L952.60 194.02Q952.60 194.93 953.25 195.44Q953.90 195.96 955.07 195.96L956.13 195.96Q957.33 195.96 957.99 195.43Q958.65 194.90 958.65 193.94Q958.65 192.24 957.09 192.02L953.44 191.50Q952.10 191.30 951.35 190.38Q950.61 189.46 950.61 187.94Q950.61 186.22 951.80 185.23Q952.98 184.25 955.07 184.25L956.13 184.25Q958.05 184.25 959.26 185.20Q960.47 186.14 960.57 187.68L958.38 187.68Q958.34 186.98 957.72 186.53Q957.11 186.07 956.13 186.07L955.07 186.07Q953.97 186.07 953.34 186.58Q952.72 187.08 952.72 187.94Q952.72 189.34 953.99 189.53L957.40 190.01Q960.76 190.49 960.76 193.94Q960.76 195.79 959.55 196.81Q958.34 197.83 956.13 197.83" fill="white" fill-opacity="0.7"/>
<path d="M968.85 197.88Q966.81 197.88 965.61 196.74Q964.41 195.60 964.41 193.75Q964.41 192.53 964.96 191.62Q965.51 190.70 966.50 190.19Q967.48 189.67 968.75 189.67L972.83 189.67L972.83 188.64Q972.83 186.07 970.02 186.07Q968.78 186.07 968.01 186.53Q967.24 186.98 967.19 187.80L965.03 187.80Q965.15 186.24 966.48 185.22Q967.82 184.20 970.02 184.20Q972.42 184.20 973.71 185.35Q974.99 186.50 974.99 188.57L974.99 197.64L972.86 197.64L972.86 195.24L972.81 195.24Q972.62 196.46 971.58 197.17Q970.55 197.88 968.85 197.88M969.38 196.06Q970.96 196.06 971.90 195.29Q972.83 194.52 972.83 193.20L972.83 191.35L968.99 191.35Q967.94 191.35 967.28 191.99Q966.62 192.62 966.62 193.68Q966.62 194.78 967.35 195.42Q968.08 196.06 969.38 196.06" fill="white" fill-opacity="0.7"/>
<path d="M985.82 197.64L982.98 197.64L978.50 184.44L980.82 184.44L983.70 193.32Q983.97 194.11 984.16 194.84Q984.35 195.58 984.45 195.98Q984.57 195.58 984.74 194.84Q984.90 194.11 985.14 193.32L988.02 184.44L990.30 184.44" fill="white" fill-opacity="0.7"/>
<path d="M998.80 197.88Q996.47 197.88 995.04 196.48Q993.62 195.07 993.62 192.60L993.62 189.48Q993.62 187.01 995.04 185.60Q996.47 184.20 998.80 184.20Q1000.36 184.20 1001.52 184.82Q1002.69 185.45 1003.34 186.58Q1003.98 187.70 1003.98 189.24L1003.98 191.59L995.73 191.59L995.73 192.84Q995.73 194.30 996.57 195.16Q997.41 196.01 998.80 196.01Q1000 196.01 1000.78 195.54Q1001.56 195.07 1001.73 194.28L1003.89 194.28Q1003.67 195.94 1002.28 196.91Q1000.89 197.88 998.80 197.88M995.73 189.24L995.73 189.91L1001.87 189.91L1001.87 189.24Q1001.87 187.68 1001.07 186.83Q1000.26 185.98 998.80 185.98Q997.34 185.98 996.53 186.83Q995.73 187.68 995.73 189.24" fill="white" fill-opacity="0.7"/>
<path d="M1012.43 197.88Q1010.46 197.88 1009.28 196.56Q1008.09 195.24 1008.09 192.98L1008.09 189.12Q1008.09 186.84 1009.26 185.52Q1010.44 184.20 1012.43 184.20Q1013.92 184.20 1014.89 184.94Q1015.86 185.69 1016.06 186.96L1016.08 186.96L1016.03 183.96L1016.03 180.12L1018.19 180.12L1018.19 197.64L1016.03 197.64L1016.03 195.12L1016.01 195.12Q1015.84 196.42 1014.88 197.15Q1013.92 197.88 1012.43 197.88M1013.15 196.01Q1014.50 196.01 1015.26 195.17Q1016.03 194.33 1016.03 192.84L1016.03 189.24Q1016.03 187.75 1015.26 186.91Q1014.50 186.07 1013.15 186.07Q1011.78 186.07 1011.02 186.78Q1010.25 187.49 1010.25 189.12L1010.25 192.96Q1010.25 194.57 1011.02 195.29Q1011.78 196.01 1013.15 196.01" fill="white" fill-opacity="0.7"/>
<path d="M1039.17 201.96L1037.01 201.96L1037.01 184.44L1039.17 184.44L1039.17 186.96L1039.19 186.96Q1039.36 185.66 1040.32 184.93Q1041.28 184.20 1042.77 184.20Q1044.76 184.20 1045.94 185.51Q1047.11 186.82 1047.11 189.10L1047.11 192.96Q1047.11 195.24 1045.94 196.56Q1044.76 197.88 1042.77 197.88Q1041.28 197.88 1040.32 197.14Q1039.36 196.39 1039.19 195.12L1039.12 195.12L1039.17 198.12L1039.17 201.96M1042.05 196.01Q1043.42 196.01 1044.18 195.29Q1044.95 194.57 1044.95 192.96L1044.95 189.12Q1044.95 187.49 1044.18 186.78Q1043.42 186.07 1042.05 186.07Q1040.73 186.07 1039.95 186.91Q1039.17 187.75 1039.17 189.24L1039.17 192.84Q1039.17 194.33 1039.95 195.17Q1040.73 196.01 1042.05 196.01" fill="white" fill-opacity="0.7"/>
<path d="M1055.25 197.88Q1053.21 197.88 1052.01 196.74Q1050.81 195.60 1050.81 193.75Q1050.81 192.53 1051.36 191.62Q1051.91 190.70 1052.90 190.19Q1053.88 189.67 1055.15 189.67L1059.23 189.67L1059.23 188.64Q1059.23 186.07 1056.42 186.07Q1055.18 186.07 1054.41 186.53Q1053.64 186.98 1053.59 187.80L1051.43 187.80Q1051.55 186.24 1052.88 185.22Q1054.22 184.20 1056.42 184.20Q1058.82 184.20 1060.11 185.35Q1061.39 186.50 1061.39 188.57L1061.39 197.64L1059.26 197.64L1059.26 195.24L1059.21 195.24Q1059.02 196.46 1057.98 197.17Q1056.95 197.88 1055.25 197.88M1055.78 196.06Q1057.36 196.06 1058.30 195.29Q1059.23 194.52 1059.23 193.20L1059.23 191.35L1055.39 191.35Q1054.34 191.35 1053.68 191.99Q1053.02 192.62 1053.02 193.68Q1053.02 194.78 1053.75 195.42Q1054.48 196.06 1055.78 196.06" fill="white" fill-opacity="0.7"/>
<path d="M1070.13 201.96L1067.87 201.96L1069.82 196.82L1064.90 184.44L1067.22 184.44L1070.34 192.60Q1070.54 193.08 1070.70 193.61Q1070.87 194.14 1070.94 194.52Q1071.02 194.14 1071.18 193.61Q1071.35 193.08 1071.52 192.60L1074.42 184.44L1076.70 184.44" fill="white" fill-opacity="0.7"/>
<path d="M1081.46 197.64L1079.44 197.64L1079.44 184.44L1081.31 184.44L1081.31 186.19L1081.36 186.19Q1081.48 185.30 1082.07 184.75Q1082.66 184.20 1083.57 184.20Q1084.43 184.20 1085.03 184.70Q1085.63 185.21 1085.90 186.07L1085.92 186.07Q1086.09 185.21 1086.68 184.70Q1087.26 184.20 1088.18 184.20Q1089.45 184.20 1090.20 185.15Q1090.96 186.10 1090.96 187.61L1090.96 197.64L1088.94 197.64L1088.94 187.58Q1088.94 186.79 1088.56 186.32Q1088.18 185.86 1087.50 185.86Q1086.86 185.86 1086.47 186.31Q1086.09 186.77 1086.09 187.56L1086.09 197.64L1084.31 197.64L1084.31 187.58Q1084.31 186.79 1083.93 186.32Q1083.54 185.86 1082.90 185.86Q1082.22 185.86 1081.84 186.31Q1081.46 186.77 1081.46 187.56" fill="white" fill-opacity="0.7"/>
<path d="M1099.60 197.88Q1097.27 197.88 1095.84 196.48Q1094.42 195.07 1094.42 192.60L1094.42 189.48Q1094.42 187.01 1095.84 185.60Q1097.27 184.20 1099.60 184.20Q1101.16 184.20 1102.32 184.82Q1103.49 185.45 1104.14 186.58Q1104.78 187.70 1104.78 189.24L1104.78 191.59L1096.53 191.59L1096.53 192.84Q1096.53 194.30 1097.37 195.16Q1098.21 196.01 1099.60 196.01Q1100.80 196.01 1101.58 195.54Q1102.36 195.07 1102.53 194.28L1104.69 194.28Q1104.47 195.94 1103.08 196.91Q1101.69 197.88 1099.60 197.88M1096.53 189.24L1096.53 189.91L1102.67 189.91L1102.67 189.24Q1102.67 187.68 1101.87 186.83Q1101.06 185.98 1099.60 185.98Q1098.14 185.98 1097.33 186.83Q1096.53 187.68 1096.53 189.24" fill="white" fill-opacity="0.7"/>
<path d="M1111.17 197.64L1109.01 197.64L1109.01 184.44L1111.17 184.44L1111.17 186.96L1111.19 186.96Q1111.36 185.64 1112.27 184.92Q1113.18 184.20 1114.70 184.20Q1116.69 184.20 1117.86 185.42Q1119.04 186.65 1119.04 188.76L1119.04 197.64L1116.88 197.64L1116.88 189.14Q1116.88 187.63 1116.12 186.83Q1115.37 186.02 1114.07 186.02Q1112.73 186.02 1111.95 186.86Q1111.17 187.70 1111.17 189.24" fill="white" fill-opacity="0.7"/>
<path d="M1133.56 197.64L1129.72 197.64Q1128.09 197.64 1127.10 196.69Q1126.12 195.74 1126.12 194.16L1126.12 186.41L1122.33 186.41L1122.33 184.44L1126.12 184.44L1126.12 180.72L1128.28 180.72L1128.28 184.44L1133.68 184.44L1133.68 186.41L1128.28 186.41L1128.28 194.16Q1128.28 194.83 1128.68 195.25Q1129.07 195.67 1129.72 195.67L1133.56 195.67" fill="white" fill-opacity="0.7"/>
<path d="M76.43 229.88Q74.46 229.88 73.28 228.56Q72.09 227.24 72.09 224.98L72.09 221.12Q72.09 218.84 73.26 217.52Q74.44 216.20 76.43 216.20Q77.92 216.20 78.89 216.94Q79.86 217.69 80.06 218.96L80.08 218.96L80.03 215.96L80.03 212.12L82.19 212.12L82.19 229.64L80.03 229.64L80.03 227.12L80.01 227.12Q79.84 228.42 78.88 229.15Q77.92 229.88 76.43 229.88M77.15 228.01Q78.50 228.01 79.26 227.17Q80.03 226.33 80.03 224.84L80.03 221.24Q80.03 219.75 79.26 218.91Q78.50 218.07 77.15 218.07Q75.78 218.07 75.02 218.78Q74.25 219.49 74.25 221.12L74.25 224.96Q74.25 226.57 75.02 227.29Q75.78 228.01 77.15 228.01" fill="white" fill-opacity="0.7"/>
<path d="M91.60 229.88Q89.27 229.88 87.84 228.48Q86.42 227.07 86.42 224.60L86.42 221.48Q86.42 219.01 87.84 217.60Q89.27 216.20 91.60 216.20Q93.16 216.20 94.32 216.82Q95.49 217.45 96.14 218.58Q96.78 219.70 96.78 221.24L96.78 223.59L88.53 223.59L88.53 224.84Q88.53 226.30 89.37 227.16Q90.21 228.01 91.60 228.01Q92.80 228.01 93.58 227.54Q94.36 227.07 94.53 226.28L96.69 226.28Q96.47 227.94 95.08 228.91Q93.69 229.88 91.60 229.88M88.53 221.24L88.53 221.91L94.67 221.91L94.67 221.24Q94.67 219.68 93.87 218.83Q93.06 217.98 91.60 217.98Q90.14 217.98 89.33 218.83Q88.53 219.68 88.53 221.24" fill="white" fill-opacity="0.7"/>
<path d="M111.16 229.64L107.32 229.64Q105.69 229.64 104.70 228.69Q103.72 227.74 103.72 226.16L103.72 218.41L99.93 218.41L99.93 216.44L103.72 216.44L103.72 212.72L105.88 212.72L105.88 216.44L111.28 216.44L111.28 218.41L105.88 218.41L105.88 226.16Q105.88 226.83 106.28 227.25Q106.67 227.67 107.32 227.67L111.16 227.67" fill="white" fill-opacity="0.7"/>
<path d="M119.25 229.88Q117.21 229.88 116.01 228.74Q114.81 227.60 114.81 225.75Q114.81 224.53 115.36 223.62Q115.91 222.70 116.90 222.19Q117.88 221.67 119.15 221.67L123.23 221.67L123.23 220.64Q123.23 218.07 120.42 218.07Q119.18 218.07 118.41 218.53Q117.64 218.98 117.59 219.80L115.43 219.80Q115.55 218.24 116.88 217.22Q118.22 216.20 120.42 216.20Q122.82 216.20 124.11 217.35Q125.39 218.50 125.39 220.57L125.39 229.64L123.26 229.64L123.26 227.24L123.21 227.24Q123.02 228.46 121.98 229.17Q120.95 229.88 119.25 229.88M119.78 228.06Q121.36 228.06 122.30 227.29Q123.23 226.52 123.23 225.20L123.23 223.35L119.39 223.35Q118.34 223.35 117.68 223.99Q117.02 224.62 117.02 225.68Q117.02 226.78 117.75 227.42Q118.48 228.06 119.78 228.06" fill="white" fill-opacity="0.7"/>
<path d="M140.92 229.64L129.64 229.64L129.64 227.67L134.32 227.67L134.32 218.41L130.12 218.41L130.12 216.44L136.48 216.44L136.48 227.67L140.92 227.67L140.92 229.64M135.16 214.06Q134.37 214.06 133.91 213.66Q133.46 213.25 133.46 212.55Q133.46 211.83 133.91 211.41Q134.37 210.99 135.16 210.99Q135.95 210.99 136.41 211.41Q136.86 211.83 136.86 212.55Q136.86 213.25 136.41 213.66Q135.95 214.06 135.16 214.06" fill="white" fill-opacity="0.7"/>
<path d="M155.20 229.64L151.12 229.64Q149.37 229.64 148.32 228.62Q147.28 227.60 147.28 225.92L147.28 214.09L142.72 214.09L142.72 212.12L149.44 212.12L149.44 225.92Q149.44 226.74 149.90 227.20Q150.35 227.67 151.12 227.67L155.20 227.67" fill="white" fill-opacity="0.7"/>
<path d="M164.13 229.83L163.07 229.83Q160.86 229.83 159.65 228.84Q158.44 227.84 158.44 226.02L160.60 226.02Q160.60 226.93 161.25 227.44Q161.90 227.96 163.07 227.96L164.13 227.96Q165.33 227.96 165.99 227.43Q166.65 226.90 166.65 225.94Q166.65 224.24 165.09 224.02L161.44 223.50Q160.10 223.30 159.35 222.38Q158.61 221.46 158.61 219.94Q158.61 218.22 159.80 217.23Q160.98 216.25 163.07 216.25L164.13 216.25Q166.05 216.25 167.26 217.20Q168.47 218.14 168.57 219.68L166.38 219.68Q166.34 218.98 165.72 218.53Q165.11 218.07 164.13 218.07L163.07 218.07Q161.97 218.07 161.34 218.58Q160.72 219.08 160.72 219.94Q160.72 221.34 161.99 221.53L165.40 222.01Q168.76 222.49 168.76 225.94Q168.76 227.79 167.55 228.81Q166.34 229.83 164.13 229.83" fill="white" fill-opacity="0.7"/>
<path d="MNaN 229.88Q177.11 229.88 176.57 229.35Q176.03 228.82 176.03 227.98Q176.03 227.10 176.57 226.54Q177.11 225.99 NaN 225.99Q178.89 225.99 179.43 226.54Q179.97 227.10 179.97 227.98Q179.97 228.82 179.43 229.35Q178.89 229.88 NaN 229.88" fill="white" fill-opacity="0.7"/>
<path d="M207.88 229.64L205.72 229.64L205.72 214.09L200.92 214.09L200.92 212.12L212.68 212.12L212.68 214.09L207.88 214.09" fill="white" fill-opacity="0.7"/>
<path d="M221.20 229.83Q218.82 229.83 217.42 228.44Q216.02 227.05 216.02 224.55L216.02 221.53Q216.02 219.01 217.41 217.63Q218.80 216.25 221.20 216.25Q223.60 216.25 224.99 217.63Q226.38 219.01 226.38 221.53L226.38 224.55Q226.38 227.05 224.98 228.44Q223.58 229.83 221.20 229.83M221.20 227.91Q222.62 227.91 223.42 227.12Q224.22 226.33 224.22 224.79L224.22 221.29Q224.22 219.75 223.42 218.96Q222.62 218.17 221.20 218.17Q219.81 218.17 218.99 218.96Q218.18 219.75 218.18 221.29L218.18 224.79Q218.18 226.33 218.99 227.12Q219.81 227.91 221.20 227.91" fill="white" fill-opacity="0.7"/>
<path d="M232.89 229.64L230.73 229.64L230.73 212.12L232.89 212.12L232.89 221.89L235.41 221.89L239.10 216.44L241.58 216.44L237.33 222.73L241.82 229.64L239.30 229.64L235.46 223.76L232.89 223.76" fill="white" fill-opacity="0.7"/>
<path d="MNaN 229.88Q247.67 229.88 246.24 228.48Q244.82 227.07 244.82 224.60L244.82 221.48Q244.82 219.01 246.24 217.60Q247.67 216.20 NaN 216.20Q251.56 216.20 252.72 216.82Q253.89 217.45 254.54 218.58Q255.18 219.70 255.18 221.24L255.18 223.59L246.93 223.59L246.93 224.84Q246.93 226.30 247.77 227.16Q248.61 228.01 NaN 228.01Q251.20 228.01 251.98 227.54Q252.76 227.07 252.93 226.28L255.09 226.28Q254.87 227.94 253.48 228.91Q252.09 229.88 NaN 229.88M246.93 221.24L246.93 221.91L253.07 221.91L253.07 221.24Q253.07 219.68 252.27 218.83Q251.46 217.98 NaN 217.98Q248.54 217.98 247.73 218.83Q246.93 219.68 246.93 221.24" fill="white" fill-opacity="0.7"/>
<path d="M261.57 229.64L259.41 229.64L259.41 216.44L261.57 216.44L261.57 218.96L261.59 218.96Q261.76 217.64 262.67 216.92Q263.58 216.20 265.10 216.20Q267.09 216.20 268.26 217.42Q269.44 218.65 269.44 220.76L269.44 229.64L267.28 229.64L267.28 221.14Q267.28 219.63 266.52 218.83Q265.77 218.02 264.47 218.02Q263.13 218.02 262.35 218.86Q261.57 219.70 261.57 221.24" fill="white" fill-opacity="0.7"/>
<path d="M279.33 229.83L278.27 229.83Q276.06 229.83 274.85 228.84Q273.64 227.84 273.64 226.02L275.80 226.02Q275.80 226.93 276.45 227.44Q277.10 227.96 278.27 227.96L279.33 227.96Q280.53 227.96 281.19 227.43Q281.85 226.90 281.85 225.94Q281.85 224.24 280.29 224.02L276.64 223.50Q275.30 223.30 274.55 222.38Q273.81 221.46 273.81 219.94Q273.81 218.22 275 217.23Q276.18 216.25 278.27 216.25L279.33 216.25Q281.25 216.25 282.46 217.20Q283.67 218.14 283.77 219.68L281.58 219.68Q281.54 218.98 280.92 218.53Q280.31 218.07 279.33 218.07L278.27 218.07Q277.17 218.07 276.54 218.58Q275.92 219.08 275.92 219.94Q275.92 221.34 277.19 221.53L280.60 222.01Q283.96 222.49 283.96 225.94Q283.96 227.79 282.75 228.81Q281.54 229.83 279.33 229.83" fill="white" fill-opacity="0.7"/>
<path d="M308.13 229.83L307.07 229.83Q304.86 229.83 303.65 228.84Q302.44 227.84 302.44 226.02L304.60 226.02Q304.60 226.93 305.25 227.44Q305.90 227.96 307.07 227.96L308.13 227.96Q309.33 227.96 309.99 227.43Q310.65 226.90 310.65 225.94Q310.65 224.24 309.09 224.02L305.44 223.50Q304.10 223.30 303.35 222.38Q302.61 221.46 302.61 219.94Q302.61 218.22 303.80 217.23Q304.98 216.25 307.07 216.25L308.13 216.25Q310.05 216.25 311.26 217.20Q312.47 218.14 312.57 219.68L310.38 219.68Q310.34 218.98 309.72 218.53Q309.11 218.07 308.13 218.07L307.07 218.07Q305.97 218.07 305.34 218.58Q304.72 219.08 304.72 219.94Q304.72 221.34 305.99 221.53L309.40 222.01Q312.76 222.49 312.76 225.94Q312.76 227.79 311.55 228.81Q310.34 229.83 308.13 229.83" fill="white" fill-opacity="0.7"/>
<path d="M319.17 229.64L317.01 229.64L317.01 212.12L319.17 212.12L319.17 218.96L319.19 218.96Q319.36 217.64 320.27 216.92Q321.18 216.20 322.70 216.20Q324.69 216.20 325.86 217.42Q327.04 218.65 327.04 220.76L327.04 229.64L324.88 229.64L324.88 221.12Q324.88 219.63 324.12 218.83Q323.37 218.02 322.07 218.02Q320.73 218.02 319.95 218.86Q319.17 219.70 319.17 221.24" fill="white" fill-opacity="0.7"/>
<path d="M336.40 229.83Q334.02 229.83 332.62 228.44Q331.22 227.05 331.22 224.55L331.22 221.53Q331.22 219.01 332.61 217.63Q334 216.25 336.40 216.25Q338.80 216.25 340.19 217.63Q341.58 219.01 341.58 221.53L341.58 224.55Q341.58 227.05 340.18 228.44Q338.78 229.83 336.40 229.83M336.40 227.91Q337.82 227.91 338.62 227.12Q339.42 226.33 339.42 224.79L339.42 221.29Q339.42 219.75 338.62 218.96Q337.82 218.17 336.40 218.17Q335.01 218.17 334.19 218.96Q333.38 219.75 333.38 221.29L333.38 224.79Q333.38 226.33 334.19 227.12Q335.01 227.91 336.40 227.91" fill="white" fill-opacity="0.7"/>
<path d="M350.78 229.88Q348.50 229.88 347.13 228.52Q345.76 227.17 345.76 224.84L345.76 216.44L347.92 216.44L347.92 224.84Q347.92 226.28 348.69 227.13Q349.46 227.98 350.78 227.98Q352.12 227.98 352.90 227.13Q353.68 226.28 353.68 224.84L353.68 216.44L355.84 216.44L355.84 224.84Q355.84 227.17 354.45 228.52Q353.06 229.88 350.78 229.88" fill="white" fill-opacity="0.7"/>
<path d="M371.20 229.64L367.12 229.64Q365.37 229.64 364.32 228.62Q363.28 227.60 363.28 225.92L363.28 214.09L358.72 214.09L358.72 212.12L365.44 212.12L365.44 225.92Q365.44 226.74 365.90 227.20Q366.35 227.67 367.12 227.67L371.20 227.67" fill="white" fill-opacity="0.7"/>
<path d="M378.83 229.88Q376.86 229.88 375.68 228.56Q374.49 227.24 374.49 224.98L374.49 221.12Q374.49 218.84 375.66 217.52Q376.84 216.20 378.83 216.20Q380.32 216.20 381.29 216.94Q382.26 217.69 382.46 218.96L382.48 218.96L382.43 215.96L382.43 212.12L384.59 212.12L384.59 229.64L382.43 229.64L382.43 227.12L382.41 227.12Q382.24 228.42 381.28 229.15Q380.32 229.88 378.83 229.88M379.55 228.01Q380.90 228.01 381.66 227.17Q382.43 226.33 382.43 224.84L382.43 221.24Q382.43 219.75 381.66 218.91Q380.90 218.07 379.55 218.07Q378.18 218.07 377.42 218.78Q376.65 219.49 376.65 221.12L376.65 224.96Q376.65 226.57 377.42 227.29Q378.18 228.01 379.55 228.01" fill="white" fill-opacity="0.7"/>
<path d="M409.17 229.88Q407.68 229.88 406.72 229.15Q405.76 228.42 405.59 227.12L405.57 227.12L405.57 229.64L403.41 229.64L403.41 212.12L405.57 212.12L405.57 215.96L405.52 218.96L405.54 218.96Q405.74 217.69 406.71 216.94Q407.68 216.20 409.17 216.20Q411.16 216.20 412.34 217.52Q413.51 218.84 413.51 221.12L413.51 224.98Q413.51 227.24 412.34 228.56Q411.16 229.88 409.17 229.88M408.45 228.01Q409.82 228.01 410.58 227.29Q411.35 226.57 411.35 224.96L411.35 221.12Q411.35 219.49 410.58 218.78Q409.82 218.07 408.45 218.07Q407.13 218.07 406.35 218.91Q405.57 219.75 405.57 221.24L405.57 224.84Q405.57 226.33 406.35 227.17Q407.13 228.01 408.45 228.01" fill="white" fill-opacity="0.7"/>
<path d="M422.80 229.88Q420.47 229.88 419.04 228.48Q417.62 227.07 417.62 224.60L417.62 221.48Q417.62 219.01 419.04 217.60Q420.47 216.20 422.80 216.20Q424.36 216.20 425.52 216.82Q426.69 217.45 427.34 218.58Q427.98 219.70 427.98 221.24L427.98 223.59L419.73 223.59L419.73 224.84Q419.73 226.30 420.57 227.16Q421.41 228.01 422.80 228.01Q424 228.01 424.78 227.54Q425.56 227.07 425.73 226.28L427.89 226.28Q427.67 227.94 426.28 228.91Q424.89 229.88 422.80 229.88M419.73 221.24L419.73 221.91L425.87 221.91L425.87 221.24Q425.87 219.68 425.07 218.83Q424.26 217.98 422.80 217.98Q421.34 217.98 420.53 218.83Q419.73 219.68 419.73 221.24" fill="white" fill-opacity="0.7"/>
<path d="M451.79 229.88Q449.39 229.88 447.95 228.54Q446.51 227.19 446.51 224.84L446.51 221.24Q446.51 218.89 447.95 217.54Q449.39 216.20 451.79 216.20Q454.07 216.20 455.48 217.42Q456.88 218.65 456.95 220.76L454.79 220.76Q454.72 219.49 453.93 218.80Q453.14 218.12 451.79 218.12Q450.38 218.12 449.52 218.92Q448.67 219.73 448.67 221.22L448.67 224.84Q448.67 226.33 449.52 227.14Q450.38 227.96 451.79 227.96Q453.14 227.96 453.93 227.26Q454.72 226.57 454.79 225.32L456.95 225.32Q456.88 227.43 455.48 228.66Q454.07 229.88 451.79 229.88" fill="white" fill-opacity="0.7"/>
<path d="M463.65 229.64L461.49 229.64L461.49 216.44L463.65 216.44L463.65 218.96L463.70 218.96Q463.86 217.69 464.78 216.94Q465.69 216.20 467.22 216.20Q469.29 216.20 470.40 217.44Q471.52 218.67 471.52 220.95L471.52 222.08L469.36 222.08L469.36 220.95Q469.36 218.07 466.55 218.07Q465.14 218.07 464.39 218.89Q463.65 219.70 463.65 221.24" fill="white" fill-opacity="0.7"/>
<path d="M480.40 229.88Q478.07 229.88 476.64 228.48Q475.22 227.07 475.22 224.60L475.22 221.48Q475.22 219.01 476.64 217.60Q478.07 216.20 480.40 216.20Q481.96 216.20 483.12 216.82Q484.29 217.45 484.94 218.58Q485.58 219.70 485.58 221.24L485.58 223.59L477.33 223.59L477.33 224.84Q477.33 226.30 478.17 227.16Q479.01 228.01 480.40 228.01Q481.60 228.01 482.38 227.54Q483.16 227.07 483.33 226.28L485.49 226.28Q485.27 227.94 483.88 228.91Q482.49 229.88 480.40 229.88M477.33 221.24L477.33 221.91L483.47 221.91L483.47 221.24Q483.47 219.68 482.67 218.83Q481.86 217.98 480.40 217.98Q478.94 217.98 478.13 218.83Q477.33 219.68 477.33 221.24" fill="white" fill-opacity="0.7"/>
<path d="M493.65 229.88Q491.61 229.88 490.41 228.74Q489.21 227.60 489.21 225.75Q489.21 224.53 489.76 223.62Q490.31 222.70 491.30 222.19Q492.28 221.67 493.55 221.67L497.63 221.67L497.63 220.64Q497.63 218.07 494.82 218.07Q493.58 218.07 492.81 218.53Q492.04 218.98 491.99 219.80L489.83 219.80Q489.95 218.24 491.28 217.22Q492.62 216.20 494.82 216.20Q497.22 216.20 498.51 217.35Q499.79 218.50 499.79 220.57L499.79 229.64L497.66 229.64L497.66 227.24L497.61 227.24Q497.42 228.46 496.38 229.17Q495.35 229.88 493.65 229.88M494.18 228.06Q495.76 228.06 496.70 227.29Q497.63 226.52 497.63 225.20L497.63 223.35L493.79 223.35Q492.74 223.35 492.08 223.99Q491.42 224.62 491.42 225.68Q491.42 226.78 492.15 227.42Q492.88 228.06 494.18 228.06" fill="white" fill-opacity="0.7"/>
<path d="M514.36 229.64L510.52 229.64Q508.89 229.64 507.90 228.69Q506.92 227.74 506.92 226.16L506.92 218.41L503.13 218.41L503.13 216.44L506.92 216.44L506.92 212.72L509.08 212.72L509.08 216.44L514.48 216.44L514.48 218.41L509.08 218.41L509.08 226.16Q509.08 226.83 509.48 227.25Q509.87 227.67 510.52 227.67L514.36 227.67" fill="white" fill-opacity="0.7"/>
<path d="M523.60 229.88Q521.27 229.88 519.84 228.48Q518.42 227.07 518.42 224.60L518.42 221.48Q518.42 219.01 519.84 217.60Q521.27 216.20 523.60 216.20Q525.16 216.20 526.32 216.82Q527.49 217.45 528.14 218.58Q528.78 219.70 528.78 221.24L528.78 223.59L520.53 223.59L520.53 224.84Q520.53 226.30 521.37 227.16Q522.21 228.01 523.60 228.01Q524.80 228.01 525.58 227.54Q526.36 227.07 526.53 226.28L528.69 226.28Q528.47 227.94 527.08 228.91Q525.69 229.88 523.60 229.88M520.53 221.24L520.53 221.91L526.67 221.91L526.67 221.24Q526.67 219.68 525.87 218.83Q525.06 217.98 523.60 217.98Q522.14 217.98 521.33 218.83Q520.53 219.68 520.53 221.24" fill="white" fill-opacity="0.7"/>
<path d="M537.23 229.88Q535.26 229.88 534.08 228.56Q532.89 227.24 532.89 224.98L532.89 221.12Q532.89 218.84 534.06 217.52Q535.24 216.20 537.23 216.20Q538.72 216.20 539.69 216.94Q540.66 217.69 540.86 218.96L540.88 218.96L540.83 215.96L540.83 212.12L542.99 212.12L542.99 229.64L540.83 229.64L540.83 227.12L540.81 227.12Q540.64 228.42 539.68 229.15Q538.72 229.88 537.23 229.88M537.95 228.01Q539.30 228.01 540.06 227.17Q540.83 226.33 540.83 224.84L540.83 221.24Q540.83 219.75 540.06 218.91Q539.30 218.07 537.95 218.07Q536.58 218.07 535.82 218.78Q535.05 219.49 535.05 221.12L535.05 224.96Q535.05 226.57 535.82 227.29Q536.58 228.01 537.95 228.01" fill="white" fill-opacity="0.7"/>
<path d="M564.88 229.64L562.50 229.64L560.34 216.44L562.22 216.44L563.56 225.75Q563.63 226.28 563.70 226.92Q563.78 227.55 563.80 227.96Q563.85 227.55 563.91 226.92Q563.97 226.28 564.06 225.75L565.72 216.44L567.88 216.44L569.54 225.75Q569.63 226.28 569.72 226.92Q569.80 227.55 569.82 227.96Q569.87 227.55 569.94 226.92Q570.02 226.28 570.09 225.75L571.48 216.44L573.26 216.44L571 229.64L568.62 229.64L567.11 220.52Q567.02 219.85 566.93 219.09Q566.85 218.34 566.80 217.93Q566.78 218.34 566.68 219.09Q566.58 219.85 566.46 220.52" fill="white" fill-opacity="0.7"/>
<path d="M587.32 229.64L576.04 229.64L576.04 227.67L580.72 227.67L580.72 218.41L576.52 218.41L576.52 216.44L582.88 216.44L582.88 227.67L587.32 227.67L587.32 229.64M581.56 214.06Q580.77 214.06 580.31 213.66Q579.86 213.25 579.86 212.55Q579.86 211.83 580.31 211.41Q580.77 210.99 581.56 210.99Q582.35 210.99 582.81 211.41Q583.26 211.83 583.26 212.55Q583.26 213.25 582.81 213.66Q582.35 214.06 581.56 214.06" fill="white" fill-opacity="0.7"/>
<path d="M600.76 229.64L596.92 229.64Q595.29 229.64 594.30 228.69Q593.32 227.74 593.32 226.16L593.32 218.41L589.53 218.41L589.53 216.44L593.32 216.44L593.32 212.72L595.48 212.72L595.48 216.44L600.88 216.44L600.88 218.41L595.48 218.41L595.48 226.16Q595.48 226.83 595.88 227.25Q596.27 227.67 596.92 227.67L600.76 227.67" fill="white" fill-opacity="0.7"/>
<path d="M607.17 229.64L605.01 229.64L605.01 212.12L607.17 212.12L607.17 218.96L607.19 218.96Q607.36 217.64 608.27 216.92Q609.18 216.20 610.70 216.20Q612.69 216.20 613.86 217.42Q615.04 218.65 615.04 220.76L615.04 229.64L612.88 229.64L612.88 221.12Q612.88 219.63 612.12 218.83Q611.37 218.02 610.07 218.02Q608.73 218.02 607.95 218.86Q607.17 219.70 607.17 221.24" fill="white" fill-opacity="0.7"/>
<path d="M640.22 229.64L637.38 229.64L632.90 216.44L635.22 216.44L638.10 225.32Q638.37 226.11 638.56 226.84Q638.75 227.58 638.85 227.98Q638.97 227.58 639.14 226.84Q639.30 226.11 639.54 225.32L642.42 216.44L644.70 216.44" fill="white" fill-opacity="0.7"/>
<path d="M652.05 229.88Q650.01 229.88 648.81 228.74Q647.61 227.60 647.61 225.75Q647.61 224.53 648.16 223.62Q648.71 222.70 649.70 222.19Q650.68 221.67 651.95 221.67L656.03 221.67L656.03 220.64Q656.03 218.07 653.22 218.07Q651.98 218.07 651.21 218.53Q650.44 218.98 650.39 219.80L648.23 219.80Q648.35 218.24 649.68 217.22Q651.02 216.20 653.22 216.20Q655.62 216.20 656.91 217.35Q658.19 218.50 658.19 220.57L658.19 229.64L656.06 229.64L656.06 227.24L656.01 227.24Q655.82 228.46 654.78 229.17Q653.75 229.88 652.05 229.88M652.58 228.06Q654.16 228.06 655.10 227.29Q656.03 226.52 656.03 225.20L656.03 223.35L652.19 223.35Q651.14 223.35 650.48 223.99Q649.82 224.62 649.82 225.68Q649.82 226.78 650.55 227.42Q651.28 228.06 652.58 228.06" fill="white" fill-opacity="0.7"/>
<path d="M673.60 229.64L669.52 229.64Q667.77 229.64 666.72 228.62Q665.68 227.60 665.68 225.92L665.68 214.09L661.12 214.09L661.12 212.12L667.84 212.12L667.84 225.92Q667.84 226.74 668.30 227.20Q668.75 227.67 669.52 227.67L673.60 227.67" fill="white" fill-opacity="0.7"/>
<path d="M688.12 229.64L676.84 229.64L676.84 227.67L681.52 227.67L681.52 218.41L677.32 218.41L677.32 216.44L683.68 216.44L683.68 227.67L688.12 227.67L688.12 229.64M682.36 214.06Q681.57 214.06 681.11 213.66Q680.66 213.25 680.66 212.55Q680.66 211.83 681.11 211.41Q681.57 210.99 682.36 210.99Q683.15 210.99 683.61 211.41Q684.06 211.83 684.06 212.55Q684.06 213.25 683.61 213.66Q683.15 214.06 682.36 214.06" fill="white" fill-opacity="0.7"/>
<path d="M695.63 229.88Q693.66 229.88 692.48 228.56Q691.29 227.24 691.29 224.98L691.29 221.12Q691.29 218.84 692.46 217.52Q693.64 216.20 695.63 216.20Q697.12 216.20 698.09 216.94Q699.06 217.69 699.26 218.96L699.28 218.96L699.23 215.96L699.23 212.12L701.39 212.12L701.39 229.64L699.23 229.64L699.23 227.12L699.21 227.12Q699.04 228.42 698.08 229.15Q697.12 229.88 695.63 229.88M696.35 228.01Q697.70 228.01 698.46 227.17Q699.23 226.33 699.23 224.84L699.23 221.24Q699.23 219.75 698.46 218.91Q697.70 218.07 696.35 218.07Q694.98 218.07 694.22 218.78Q693.45 219.49 693.45 221.12L693.45 224.96Q693.45 226.57 694.22 227.29Q694.98 228.01 696.35 228.01" fill="white" fill-opacity="0.7"/>
<path d="M709.65 229.88Q707.61 229.88 706.41 228.74Q705.21 227.60 705.21 225.75Q705.21 224.53 705.76 223.62Q706.31 222.70 707.30 222.19Q708.28 221.67 709.55 221.67L713.63 221.67L713.63 220.64Q713.63 218.07 710.82 218.07Q709.58 218.07 708.81 218.53Q708.04 218.98 707.99 219.80L705.83 219.80Q705.95 218.24 707.28 217.22Q708.62 216.20 710.82 216.20Q713.22 216.20 714.51 217.35Q715.79 218.50 715.79 220.57L715.79 229.64L713.66 229.64L713.66 227.24L713.61 227.24Q713.42 228.46 712.38 229.17Q711.35 229.88 709.65 229.88M710.18 228.06Q711.76 228.06 712.70 227.29Q713.63 226.52 713.63 225.20L713.63 223.35L709.79 223.35Q708.74 223.35 708.08 223.99Q707.42 224.62 707.42 225.68Q707.42 226.78 708.15 227.42Q708.88 228.06 710.18 228.06" fill="white" fill-opacity="0.7"/>
<path d="M730.36 229.64L726.52 229.64Q724.89 229.64 723.90 228.69Q722.92 227.74 722.92 226.16L722.92 218.41L719.13 218.41L719.13 216.44L722.92 216.44L722.92 212.72L725.08 212.72L725.08 216.44L730.48 216.44L730.48 218.41L725.08 218.41L725.08 226.16Q725.08 226.83 725.48 227.25Q725.87 227.67 726.52 227.67L730.36 227.67" fill="white" fill-opacity="0.7"/>
<path d="M745.72 229.64L734.44 229.64L734.44 227.67L739.12 227.67L739.12 218.41L734.92 218.41L734.92 216.44L741.28 216.44L741.28 227.67L745.72 227.67L745.72 229.64M739.96 214.06Q739.17 214.06 738.71 213.66Q738.26 213.25 738.26 212.55Q738.26 211.83 738.71 211.41Q739.17 210.99 739.96 210.99Q740.75 210.99 741.21 211.41Q741.66 211.83 741.66 212.55Q741.66 213.25 741.21 213.66Q740.75 214.06 739.96 214.06" fill="white" fill-opacity="0.7"/>
<path d="M754 229.83Q751.62 229.83 750.22 228.44Q748.82 227.05 748.82 224.55L748.82 221.53Q748.82 219.01 750.21 217.63Q751.60 216.25 754 216.25Q756.40 216.25 757.79 217.63Q759.18 219.01 759.18 221.53L759.18 224.55Q759.18 227.05 757.78 228.44Q756.38 229.83 754 229.83M754 227.91Q755.42 227.91 756.22 227.12Q757.02 226.33 757.02 224.79L757.02 221.29Q757.02 219.75 756.22 218.96Q755.42 218.17 754 218.17Q752.61 218.17 751.79 218.96Q750.98 219.75 750.98 221.29L750.98 224.79Q750.98 226.33 751.79 227.12Q752.61 227.91 754 227.91" fill="white" fill-opacity="0.7"/>
<path d="M765.57 229.64L763.41 229.64L763.41 216.44L765.57 216.44L765.57 218.96L765.59 218.96Q765.76 217.64 766.67 216.92Q767.58 216.20 769.10 216.20Q771.09 216.20 772.26 217.42Q773.44 218.65 773.44 220.76L773.44 229.64L771.28 229.64L771.28 221.14Q771.28 219.63 770.52 218.83Q769.77 218.02 768.47 218.02Q767.13 218.02 766.35 218.86Q765.57 219.70 765.57 221.24" fill="white" fill-opacity="0.7"/>
<path d="M796.43 229.88Q794.46 229.88 793.28 228.56Q792.09 227.24 792.09 224.98L792.09 221.12Q792.09 218.84 793.26 217.52Q794.44 216.20 796.43 216.20Q797.92 216.20 798.89 216.94Q799.86 217.69 800.06 218.96L800.08 218.96L800.03 215.96L800.03 212.12L802.19 212.12L802.19 229.64L800.03 229.64L800.03 227.12L800.01 227.12Q799.84 228.42 798.88 229.15Q797.92 229.88 796.43 229.88M797.15 228.01Q798.50 228.01 799.26 227.17Q800.03 226.33 800.03 224.84L800.03 221.24Q800.03 219.75 799.26 218.91Q798.50 218.07 797.15 218.07Q795.78 218.07 795.02 218.78Q794.25 219.49 794.25 221.12L794.25 224.96Q794.25 226.57 795.02 227.29Q795.78 228.01 797.15 228.01" fill="white" fill-opacity="0.7"/>
<path d="M811.58 229.88Q809.30 229.88 807.93 228.52Q806.56 227.17 806.56 224.84L806.56 216.44L808.72 216.44L808.72 224.84Q808.72 226.28 809.49 227.13Q810.26 227.98 811.58 227.98Q812.92 227.98 813.70 227.13Q814.48 226.28 814.48 224.84L814.48 216.44L816.64 216.44L816.64 224.84Q816.64 227.17 815.25 228.52Q813.86 229.88 811.58 229.88" fill="white" fill-opacity="0.7"/>
<path d="M823.65 229.64L821.49 229.64L821.49 216.44L823.65 216.44L823.65 218.96L823.70 218.96Q823.86 217.69 824.78 216.94Q825.69 216.20 827.22 216.20Q829.29 216.20 830.40 217.44Q831.52 218.67 831.52 220.95L831.52 222.08L829.36 222.08L829.36 220.95Q829.36 218.07 826.55 218.07Q825.14 218.07 824.39 218.89Q823.65 219.70 823.65 221.24" fill="white" fill-opacity="0.7"/>
<path d="M846.52 229.64L835.24 229.64L835.24 227.67L839.92 227.67L839.92 218.41L835.72 218.41L835.72 216.44L842.08 216.44L842.08 227.67L846.52 227.67L846.52 229.64M840.76 214.06Q839.97 214.06 839.51 213.66Q839.06 213.25 839.06 212.55Q839.06 211.83 839.51 211.41Q839.97 210.99 840.76 210.99Q841.55 210.99 842.01 211.41Q842.46 211.83 842.46 212.55Q842.46 213.25 842.01 213.66Q841.55 214.06 840.76 214.06" fill="white" fill-opacity="0.7"/>
<path d="M851.97 229.64L849.81 229.64L849.81 216.44L851.97 216.44L851.97 218.96L851.99 218.96Q852.16 217.64 853.07 216.92Q853.98 216.20 855.50 216.20Q857.49 216.20 858.66 217.42Q859.84 218.65 859.84 220.76L859.84 229.64L857.68 229.64L857.68 221.14Q857.68 219.63 856.92 218.83Q856.17 218.02 854.87 218.02Q853.53 218.02 852.75 218.86Q851.97 219.70 851.97 221.24" fill="white" fill-opacity="0.7"/>
<path d="M869.56 233.96L865.86 233.96L865.86 231.99L869.58 231.99Q870.71 231.99 871.36 231.36Q872.01 230.72 872.01 229.64L872.01 228.44L872.06 226.28L871.98 226.28Q871.79 227.46 870.86 228.09Q869.92 228.73 868.50 228.73Q866.46 228.73 865.29 227.43Q864.11 226.14 864.11 223.88L864.11 221.10Q864.11 218.84 865.29 217.52Q866.46 216.20 868.50 216.20Q869.92 216.20 870.86 216.87Q871.79 217.54 871.98 218.72L872.03 218.72L872.03 216.44L874.17 216.44L874.17 229.64Q874.17 231.63 872.93 232.80Q871.70 233.96 869.56 233.96M869.15 226.93Q870.50 226.93 871.26 226.09Q872.03 225.25 872.03 223.76L872.03 221.24Q872.03 219.75 871.26 218.91Q870.50 218.07 869.15 218.07Q867.78 218.07 867.03 218.86Q866.27 219.66 866.27 221L866.27 224Q866.27 225.34 867.03 226.14Q867.78 226.93 869.15 226.93" fill="white" fill-opacity="0.7"/>
<path d="M896.85 229.88Q894.81 229.88 893.61 228.74Q892.41 227.60 892.41 225.75Q892.41 224.53 892.96 223.62Q893.51 222.70 894.50 222.19Q895.48 221.67 896.75 221.67L900.83 221.67L900.83 220.64Q900.83 218.07 898.02 218.07Q896.78 218.07 896.01 218.53Q895.24 218.98 895.19 219.80L893.03 219.80Q893.15 218.24 894.48 217.22Q895.82 216.20 898.02 216.20Q900.42 216.20 901.71 217.35Q902.99 218.50 902.99 220.57L902.99 229.64L900.86 229.64L900.86 227.24L900.81 227.24Q900.62 228.46 899.58 229.17Q898.55 229.88 896.85 229.88M897.38 228.06Q898.96 228.06 899.90 227.29Q900.83 226.52 900.83 225.20L900.83 223.35L896.99 223.35Q895.94 223.35 895.28 223.99Q894.62 224.62 894.62 225.68Q894.62 226.78 895.35 227.42Q896.08 228.06 897.38 228.06" fill="white" fill-opacity="0.7"/>
<path d="M923.97 233.96L921.81 233.96L921.81 216.44L923.97 216.44L923.97 218.96L923.99 218.96Q924.16 217.66 925.12 216.93Q926.08 216.20 927.57 216.20Q929.56 216.20 930.74 217.51Q931.91 218.82 931.91 221.10L931.91 224.96Q931.91 227.24 930.74 228.56Q929.56 229.88 927.57 229.88Q926.08 229.88 925.12 229.14Q924.16 228.39 923.99 227.12L923.92 227.12L923.97 230.12L923.97 233.96M926.85 228.01Q928.22 228.01 928.98 227.29Q929.75 226.57 929.75 224.96L929.75 221.12Q929.75 219.49 928.98 218.78Q928.22 218.07 926.85 218.07Q925.53 218.07 924.75 218.91Q923.97 219.75 923.97 221.24L923.97 224.84Q923.97 226.33 924.75 227.17Q925.53 228.01 926.85 228.01" fill="white" fill-opacity="0.7"/>
<path d="M940.05 229.88Q938.01 229.88 936.81 228.74Q935.61 227.60 935.61 225.75Q935.61 224.53 936.16 223.62Q936.71 222.70 937.70 222.19Q938.68 221.67 939.95 221.67L944.03 221.67L944.03 220.64Q944.03 218.07 941.22 218.07Q939.98 218.07 939.21 218.53Q938.44 218.98 938.39 219.80L936.23 219.80Q936.35 218.24 937.68 217.22Q939.02 216.20 941.22 216.20Q943.62 216.20 944.91 217.35Q946.19 218.50 946.19 220.57L946.19 229.64L944.06 229.64L944.06 227.24L944.01 227.24Q943.82 228.46 942.78 229.17Q941.75 229.88 940.05 229.88M940.58 228.06Q942.16 228.06 943.10 227.29Q944.03 226.52 944.03 225.20L944.03 223.35L940.19 223.35Q939.14 223.35 938.48 223.99Q937.82 224.62 937.82 225.68Q937.82 226.78 938.55 227.42Q939.28 228.06 940.58 228.06" fill="white" fill-opacity="0.7"/>
<path d="M954.93 233.96L952.67 233.96L954.62 228.82L949.70 216.44L952.02 216.44L955.14 224.60Q955.34 225.08 955.50 225.61Q955.67 226.14 955.74 226.52Q955.82 226.14 955.98 225.61Q956.15 225.08 956.32 224.60L959.22 216.44L961.50 216.44" fill="white" fill-opacity="0.7"/>
<path d="M966.26 229.64L964.24 229.64L964.24 216.44L966.11 216.44L966.11 218.19L966.16 218.19Q966.28 217.30 966.87 216.75Q967.46 216.20 968.37 216.20Q969.23 216.20 969.83 216.70Q970.43 217.21 970.70 218.07L970.72 218.07Q970.89 217.21 971.48 216.70Q972.06 216.20 972.98 216.20Q974.25 216.20 975 217.15Q975.76 218.10 975.76 219.61L975.76 229.64L973.74 229.64L973.74 219.58Q973.74 218.79 973.36 218.32Q972.98 217.86 972.30 217.86Q971.66 217.86 971.27 218.31Q970.89 218.77 970.89 219.56L970.89 229.64L969.11 229.64L969.11 219.58Q969.11 218.79 968.73 218.32Q968.34 217.86 967.70 217.86Q967.02 217.86 966.64 218.31Q966.26 218.77 966.26 219.56" fill="white" fill-opacity="0.7"/>
<path d="M984.40 229.88Q982.07 229.88 980.64 228.48Q979.22 227.07 979.22 224.60L979.22 221.48Q979.22 219.01 980.64 217.60Q982.07 216.20 984.40 216.20Q985.96 216.20 987.12 216.82Q988.29 217.45 988.94 218.58Q989.58 219.70 989.58 221.24L989.58 223.59L981.33 223.59L981.33 224.84Q981.33 226.30 982.17 227.16Q983.01 228.01 984.40 228.01Q985.60 228.01 986.38 227.54Q987.16 227.07 987.33 226.28L989.49 226.28Q989.27 227.94 987.88 228.91Q986.49 229.88 984.40 229.88M981.33 221.24L981.33 221.91L987.47 221.91L987.47 221.24Q987.47 219.68 986.67 218.83Q985.86 217.98 984.40 217.98Q982.94 217.98 982.13 218.83Q981.33 219.68 981.33 221.24" fill="white" fill-opacity="0.7"/>
<path d="M995.97 229.64L993.81 229.64L993.81 216.44L995.97 216.44L995.97 218.96L995.99 218.96Q996.16 217.64 997.07 216.92Q997.98 216.20 999.50 216.20Q1001.49 216.20 1002.66 217.42Q1003.84 218.65 1003.84 220.76L1003.84 229.64L1001.68 229.64L1001.68 221.14Q1001.68 219.63 1000.92 218.83Q1000.17 218.02 998.87 218.02Q997.53 218.02 996.75 218.86Q995.97 219.70 995.97 221.24" fill="white" fill-opacity="0.7"/>
<path d="M1018.36 229.64L1014.52 229.64Q1012.89 229.64 1011.90 228.69Q1010.92 227.74 1010.92 226.16L1010.92 218.41L1007.13 218.41L1007.13 216.44L1010.92 216.44L1010.92 212.72L1013.08 212.72L1013.08 216.44L1018.48 216.44L1018.48 218.41L1013.08 218.41L1013.08 226.16Q1013.08 226.83 1013.48 227.25Q1013.87 227.67 1014.52 227.67L1018.36 227.67" fill="white" fill-opacity="0.7"/>
<path d="M1039.65 229.64L1037.49 229.64L1037.49 216.44L1039.65 216.44L1039.65 218.96L1039.70 218.96Q1039.86 217.69 1040.78 216.94Q1041.69 216.20 1043.22 216.20Q1045.29 216.20 1046.40 217.44Q1047.52 218.67 1047.52 220.95L1047.52 222.08L1045.36 222.08L1045.36 220.95Q1045.36 218.07 1042.55 218.07Q1041.14 218.07 1040.39 218.89Q1039.65 219.70 1039.65 221.24" fill="white" fill-opacity="0.7"/>
<path d="M1056.40 229.88Q1054.07 229.88 1052.64 228.48Q1051.22 227.07 1051.22 224.60L1051.22 221.48Q1051.22 219.01 1052.64 217.60Q1054.07 216.20 1056.40 216.20Q1057.96 216.20 1059.12 216.82Q1060.29 217.45 1060.94 218.58Q1061.58 219.70 1061.58 221.24L1061.58 223.59L1053.33 223.59L1053.33 224.84Q1053.33 226.30 1054.17 227.16Q1055.01 228.01 1056.40 228.01Q1057.60 228.01 1058.38 227.54Q1059.16 227.07 1059.33 226.28L1061.49 226.28Q1061.27 227.94 1059.88 228.91Q1058.49 229.88 1056.40 229.88M1053.33 221.24L1053.33 221.91L1059.47 221.91L1059.47 221.24Q1059.47 219.68 1058.67 218.83Q1057.86 217.98 1056.40 217.98Q1054.94 217.98 1054.13 218.83Q1053.33 219.68 1053.33 221.24" fill="white" fill-opacity="0.7"/>
<path d="M1075.79 233.96L1073.63 233.96L1073.63 230.12L1073.68 227.12L1073.61 227.12Q1073.44 228.39 1072.48 229.14Q1071.52 229.88 1070.03 229.88Q1068.04 229.88 1066.86 228.56Q1065.69 227.24 1065.69 224.96L1065.69 221.10Q1065.69 218.82 1066.88 217.51Q1068.06 216.20 1070.03 216.20Q1071.52 216.20 1072.48 216.93Q1073.44 217.66 1073.61 218.96L1073.63 218.96L1073.63 216.44L1075.79 216.44L1075.79 233.96M1070.75 228.01Q1072.10 228.01 1072.86 227.17Q1073.63 226.33 1073.63 224.84L1073.63 221.24Q1073.63 219.75 1072.86 218.91Q1072.10 218.07 1070.75 218.07Q1069.38 218.07 1068.62 218.77Q1067.85 219.46 1067.85 221L1067.85 225.08Q1067.85 226.62 1068.62 227.31Q1069.38 228.01 1070.75 228.01" fill="white" fill-opacity="0.7"/>
<path d="M1085.18 229.88Q1082.90 229.88 1081.53 228.52Q1080.16 227.17 1080.16 224.84L1080.16 216.44L1082.32 216.44L1082.32 224.84Q1082.32 226.28 1083.09 227.13Q1083.86 227.98 1085.18 227.98Q1086.52 227.98 1087.30 227.13Q1088.08 226.28 1088.08 224.84L1088.08 216.44L1090.24 216.44L1090.24 224.84Q1090.24 227.17 1088.85 228.52Q1087.46 229.88 1085.18 229.88" fill="white" fill-opacity="0.7"/>
<path d="M1099.60 229.88Q1097.27 229.88 1095.84 228.48Q1094.42 227.07 1094.42 224.60L1094.42 221.48Q1094.42 219.01 1095.84 217.60Q1097.27 216.20 1099.60 216.20Q1101.16 216.20 1102.32 216.82Q1103.49 217.45 1104.14 218.58Q1104.78 219.70 1104.78 221.24L1104.78 223.59L1096.53 223.59L1096.53 224.84Q1096.53 226.30 1097.37 227.16Q1098.21 228.01 1099.60 228.01Q1100.80 228.01 1101.58 227.54Q1102.36 227.07 1102.53 226.28L1104.69 226.28Q1104.47 227.94 1103.08 228.91Q1101.69 229.88 1099.60 229.88M1096.53 221.24L1096.53 221.91L1102.67 221.91L1102.67 221.24Q1102.67 219.68 1101.87 218.83Q1101.06 217.98 1099.60 217.98Q1098.14 217.98 1097.33 218.83Q1096.53 219.68 1096.53 221.24" fill="white" fill-opacity="0.7"/>
<path d="M1114.53 229.83L1113.47 229.83Q1111.26 229.83 1110.05 228.84Q1108.84 227.84 1108.84 226.02L1111 226.02Q1111 226.93 1111.65 227.44Q1112.30 227.96 1113.47 227.96L1114.53 227.96Q1115.73 227.96 1116.39 227.43Q1117.05 226.90 1117.05 225.94Q1117.05 224.24 1115.49 224.02L1111.84 223.50Q1110.50 223.30 1109.75 222.38Q1109.01 221.46 1109.01 219.94Q1109.01 218.22 1110.20 217.23Q1111.38 216.25 1113.47 216.25L1114.53 216.25Q1116.45 216.25 1117.66 217.20Q1118.87 218.14 1118.97 219.68L1116.78 219.68Q1116.74 218.98 1116.12 218.53Q1115.51 218.07 1114.53 218.07L1113.47 218.07Q1112.37 218.07 1111.74 218.58Q1111.12 219.08 1111.12 219.94Q1111.12 221.34 1112.39 221.53L1115.80 222.01Q1119.16 222.49 1119.16 225.94Q1119.16 227.79 1117.95 228.81Q1116.74 229.83 1114.53 229.83" fill="white" fill-opacity="0.7"/>
<path d="M1133.56 229.64L1129.72 229.64Q1128.09 229.64 1127.10 228.69Q1126.12 227.74 1126.12 226.16L1126.12 218.41L1122.33 218.41L1122.33 216.44L1126.12 216.44L1126.12 212.72L1128.28 212.72L1128.28 216.44L1133.68 216.44L1133.68 218.41L1128.28 218.41L1128.28 226.16Q1128.28 226.83 1128.68 227.25Q1129.07 227.67 1129.72 227.67L1133.56 227.67" fill="white" fill-opacity="0.7"/>
<path d="M76.11 136.06L66.42 136.06L84.56 65.98L97.14 65.98L115.18 136.06L105.49 136.06L101.07 117.82L80.53 117.82L76.11 136.06M87.54 88.92L82.45 109.95L99.15 109.95L94.16 89.02Q92.72 83.26 91.86 79.23Q90.99 75.20 90.80 73.76Q90.61 75.20 89.74 79.23Q88.88 83.26 87.54 88.92M146.86 136.06L128.05 136.06L128.05 65.98L146.86 65.98Q153.68 65.98 158.72 68.62Q163.76 71.26 166.54 76.01Q169.33 80.76 169.33 87.20L169.33 114.75Q169.33 121.18 166.54 125.98Q163.76 130.78 158.72 133.42Q153.68 136.06 146.86 136.06M137.55 74.43L137.55 127.61L146.86 127.61Q152.91 127.61 156.37 124.16Q159.82 120.70 159.82 114.75L159.82 87.20Q159.82 81.24 156.37 77.84Q152.91 74.43 146.86 74.43L137.55 74.43M210.80 136.06L201.30 136.06L201.30 110.04L180.27 65.98L190.35 65.98L203.31 93.63Q204.46 96.12 205.18 98.14Q205.90 100.16 206.10 101.02Q206.38 100.16 207.10 98.14Q207.82 96.12 209.07 93.63L221.94 65.98L231.73 65.98L210.80 110.04L210.80 136.06M284.91 136.06L244.11 136.06L244.11 65.98L284.91 65.98L284.91 74.52L253.52 74.52L253.52 95.36L281.55 95.36L281.55 103.61L253.52 103.61L253.52 127.52L284.91 127.52L284.91 136.06M309.58 136.06L300.66 136.06L300.66 65.98L312.94 65.98L333.87 125.12Q333.58 122.62 333.34 118.92Q333.10 115.23 332.96 111.24Q332.82 107.26 332.82 103.71L332.82 65.98L341.84 65.98L341.84 136.06L329.46 136.06L308.72 76.92Q308.91 79.42 309.10 83.02Q309.30 86.62 309.44 90.56Q309.58 94.49 309.58 97.95L309.58 136.06M425.55 136.06L416.14 136.06L416.14 65.98L437.84 65.98Q444.27 65.98 449.07 68.52Q453.87 71.07 456.56 75.63Q459.25 80.19 459.25 86.33Q459.25 93.44 455.65 98.52Q452.05 103.61 446.10 105.72L460.21 136.06L449.74 136.06L436.40 106.78L425.55 106.78L425.55 136.06M425.55 74.43L425.55 98.33L437.84 98.33Q443.22 98.33 446.34 95.07Q449.46 91.80 449.46 86.43Q449.46 80.96 446.29 77.69Q443.12 74.43 437.84 74.43L425.55 74.43M515.31 136.06L474.51 136.06L474.51 65.98L515.31 65.98L515.31 74.52L483.92 74.52L483.92 95.36L511.95 95.36L511.95 103.61L483.92 103.61L483.92 127.52L515.31 127.52L515.31 136.06M552.37 137.02Q542.67 137.02 536.96 131.60Q531.25 126.17 531.25 116.67L531.25 85.28Q531.25 75.87 536.96 70.44Q542.67 65.02 552.37 65.02Q561.97 65.02 567.68 70.49Q573.39 75.96 573.39 85.28L563.89 85.28Q563.89 79.61 560.82 76.54Q557.74 73.47 552.37 73.47Q546.90 73.47 543.82 76.54Q540.75 79.61 540.75 85.28L540.75 116.67Q540.75 122.43 543.82 125.50Q546.90 128.57 552.37 128.57Q557.74 128.57 560.82 125.50Q563.89 122.43 563.89 116.67L573.39 116.67Q573.39 126.08 567.68 131.55Q561.97 137.02 552.37 137.02M609.20 137.02Q599.31 137.02 593.98 131.55Q588.66 126.08 588.66 116.67L588.66 65.98L598.16 65.98L598.16 116.67Q598.16 122.24 600.90 125.40Q603.63 128.57 609.20 128.57Q614.67 128.57 617.50 125.40Q620.34 122.24 620.34 116.67L620.34 65.98L629.84 65.98L629.84 116.67Q629.84 126.17 624.51 131.60Q619.18 137.02 609.20 137.02M655.95 136.06L646.54 136.06L646.54 65.98L668.24 65.98Q674.67 65.98 679.47 68.52Q684.27 71.07 686.96 75.63Q689.65 80.19 689.65 86.33Q689.65 93.44 686.05 98.52Q682.45 103.61 676.50 105.72L690.61 136.06L680.14 136.06L666.80 106.78L655.95 106.78L655.95 136.06M655.95 74.43L655.95 98.33L668.24 98.33Q673.62 98.33 676.74 95.07Q679.86 91.80 679.86 86.43Q679.86 80.96 676.69 77.69Q673.52 74.43 668.24 74.43L655.95 74.43M713.55 136.06L704.14 136.06L704.14 65.98L725.84 65.98Q732.27 65.98 737.07 68.52Q741.87 71.07 744.56 75.63Q747.25 80.19 747.25 86.33Q747.25 93.44 743.65 98.52Q740.05 103.61 734.10 105.72L748.21 136.06L737.74 136.06L724.40 106.78L713.55 106.78L713.55 136.06M713.55 74.43L713.55 98.33L725.84 98.33Q731.22 98.33 734.34 95.07Q737.46 91.80 737.46 86.43Q737.46 80.96 734.29 77.69Q731.12 74.43 725.84 74.43L713.55 74.43M801.10 136.06L762.90 136.06L762.90 127.42L777.20 127.42L777.20 74.62L762.90 74.62L762.90 65.98L801.10 65.98L801.10 74.62L786.80 74.62L786.80 127.42L801.10 127.42L801.10 136.06M827.98 136.06L819.06 136.06L819.06 65.98L831.34 65.98L852.27 125.12Q851.98 122.62 851.74 118.92Q851.50 115.23 851.36 111.24Q851.22 107.26 851.22 103.71L851.22 65.98L860.24 65.98L860.24 136.06L847.86 136.06L827.12 76.92Q827.31 79.42 827.50 83.02Q827.70 86.62 827.84 90.56Q827.98 94.49 827.98 97.95L827.98 136.06M897.58 137.02Q887.89 137.02 882.18 131.60Q876.46 126.17 876.46 116.67L876.46 85.28Q876.46 75.87 882.18 70.44Q887.89 65.02 897.58 65.02Q907.18 65.02 912.90 70.49Q918.61 75.96 918.61 85.28L909.10 85.28Q909.10 79.61 906.03 76.54Q902.96 73.47 897.58 73.47Q892.11 73.47 889.04 76.54Q885.97 79.61 885.97 85.28L885.97 116.67Q885.97 122.43 889.04 125.50Q892.11 128.57 897.58 128.57Q902.96 128.57 906.03 125.50Q909.10 122.43 909.10 116.67L909.10 107.55L895.47 107.55L895.47 99.10L918.61 99.10L918.61 116.67Q918.61 126.08 912.90 131.55Q907.18 137.02 897.58 137.02M955.18 137.02Q944.82 137.02 938.67 131.60Q932.53 126.17 932.53 116.67L942.03 116.67Q942.03 122.24 945.58 125.40Q949.14 128.57 955.18 128.57Q960.94 128.57 964.35 125.36Q967.76 122.14 967.76 116.76Q967.76 112.73 965.55 109.71Q963.34 106.68 959.31 105.63L948.94 102.84Q942.13 100.92 938.14 95.88Q934.16 90.84 934.16 83.93Q934.16 78.27 936.70 74Q939.25 69.72 943.86 67.37Q948.46 65.02 954.51 65.02Q960.66 65.02 965.31 67.37Q969.97 69.72 972.56 73.95Q975.15 78.17 975.15 83.74L965.74 83.74Q965.74 79.13 962.62 76.25Q959.50 73.37 954.51 73.37Q949.52 73.37 946.50 76.25Q943.47 79.13 943.47 83.74Q943.47 87.48 945.49 90.03Q947.50 92.57 951.15 93.63L961.81 96.51Q969.01 98.43 973.04 103.85Q977.07 109.28 977.07 116.76Q977.07 122.91 974.38 127.47Q971.70 132.03 966.75 134.52Q961.81 137.02 955.18 137.02M1033.71 136.06L992.91 136.06L992.91 65.98L1033.71 65.98L1033.71 74.52L1002.32 74.52L1002.32 95.36L1030.35 95.36L1030.35 103.61L1002.32 103.61L1002.32 127.52L1033.71 127.52L1033.71 136.06M1059.15 136.06L1049.74 136.06L1049.74 65.98L1071.44 65.98Q1077.87 65.98 1082.67 68.52Q1087.47 71.07 1090.16 75.63Q1092.85 80.19 1092.85 86.33Q1092.85 93.44 1089.25 98.52Q1085.65 103.61 1079.70 105.72L1093.81 136.06L1083.34 136.06LNaN 106.78L1059.15 106.78L1059.15 136.06M1059.15 74.43L1059.15 98.33L1071.44 98.33Q1076.82 98.33 1079.94 95.07Q1083.06 91.80 1083.06 86.43Q1083.06 80.96 1079.89 77.69Q1076.72 74.43 1071.44 74.43L1059.15 74.43M1133.94 136.06L1121.17 136.06L1103.22 65.98L1113.01 65.98L1124.62 113.21Q1125.78 117.72 1126.59 121.90Q1127.41 126.08 1127.79 128.28Q1128.08 126.08 1128.99 121.85Q1129.90 117.63 1130.96 113.12L1142.19 65.98L1151.98 65.98L1133.94 136.06M1204.30 136.06L1166.10 136.06L1166.10 127.42L1180.40 127.42L1180.40 74.62L1166.10 74.62L1166.10 65.98L1204.30 65.98L1204.30 74.62L1190 74.62L1190 127.42L1204.30 127.42L1204.30 136.06M1243.57 137.02Q1233.87 137.02 1228.16 131.60Q1222.45 126.17 1222.45 116.67L1222.45 85.28Q1222.45 75.87 1228.16 70.44Q1233.87 65.02 1243.57 65.02Q1253.17 65.02 1258.88 70.49Q1264.59 75.96 1264.59 85.28L1255.09 85.28Q1255.09 79.61 1252.02 76.54Q1248.94 73.47 1243.57 73.47Q1238.10 73.47 1235.02 76.54Q1231.95 79.61 1231.95 85.28L1231.95 116.67Q1231.95 122.43 1235.02 125.50Q1238.10 128.57 1243.57 128.57Q1248.94 128.57 1252.02 125.50Q1255.09 122.43 1255.09 116.67L1264.59 116.67Q1264.59 126.08 1258.88 131.55Q1253.17 137.02 1243.57 137.02M1321.71 136.06L1280.91 136.06L1280.91 65.98L1321.71 65.98L1321.71 74.52L1290.32 74.52L1290.32 95.36L1318.35 95.36L1318.35 103.61L1290.32 103.61L1290.32 127.52L1321.71 127.52" fill="url(#paint2_linear_0_1)"/>
<g id="Group 1">
<rect id="Rectangle 1" x="26" y="168" width="12" height="184" rx="5" fill="url(#paint3_linear_0_1)" fill-opacity="0.9"/>
</g>
<g id="Group 1_2">
<rect id="Rectangle 2" x="26" y="38" width="12" height="119" rx="5" fill="url(#paint4_linear_0_1)" fill-opacity="0.9"/>
</g>
<ellipse id="Ellipse 1" cx="148.5" cy="573" rx="215.5" ry="214" fill="url(#paint5_linear_0_1)" fill-opacity="0.4"/>
<rect id="Rectangle 3" x="1229" y="48" width="300" height="300" rx="25" fill="#FFFBFB" fill-opacity="0.9"/>
<g id="placeholder-logo"><g transform="translate(1229,48) translate(0.0,60.0) scale(1.2000)"><g fill="#666666">
  <path d="m88.05,27.65c-3.15,4 -3.2,51.2 -0.05,54.35c2.75,2.75 71.7,3.15 74.45,0.45c2.85,-2.9 2.3,-53.85 -0.65,-55.9c-1.95,-1.35 -7.15,-1.55 -36.95,-1.55l-34.7,0l-2.1,2.65zm69.45,3.35c0.65,0 1,8.6 1,23.75l0,23.75l-33,0l-33,0l-0.25,-23c-0.15,-12.6 -0.1,-23.45 0.15,-24.1c0.35,-0.85 8.9,-1.05 32.25,-0.75c17.55,0.2 32.3,0.35 32.85,0.35z"/>
  <path d="m99.15,37.3c-6.85,7.35 4.25,17.35 11.4,10.25c1.35,-1.35 2.45,-3.65 2.45,-5.05c0,-6.45 -9.35,-9.95 -13.85,-5.2z"/>
  <path d="m135,42.5c-0.7,0.85 -5.25,5.15 -10.1,9.6l-8.85,8.1l-3.2,-3.2l-3.15,-3.15l-6.35,6.3c-5.55,5.5 -6.35,6.75 -6.35,10.05l0,3.8l28.5,0l28.5,0l0,-8.6l0,-8.55l-8.15,-7.7c-9.35,-8.85 -9.15,-8.7 -10.85,-6.65zm7.25,15.2c0.95,0.9 1.75,2.9 1.75,4.45c6.35,-5.05 4.75,-7.15 4.9,-11.55c0.95,0 0,0 0,0l-6.65,7.1z"/>
  <path d="m53.65,110.75c0.1,4.8 0.45,8.65 0.75,8.5c0.35,-0.15 1.3,-0.25 2.1,-0.25c1.1,0 1.5,-1.2 1.5,-4.75l0,-4.75l3.25,5c4.9,7.5 6.2,6.75 6.55,-3.75c0.25,-8.15 0.15,-8.75 -1.7,-8.75c-1.65,0 -2.05,0.8 -2.3,4.75l-0.3,4.75l-2.8,-4.75c-4.85,-8.25 -7.25,-6.9 -7.05,4z"/>
  <path d="m91,108.9c0,9.65 0.3,10.1 6.1,10.1c5.8,0 7.15,-2.65 1.65,-3.2l-3.25,-0.3l-0.3,-6.75c-0.25,-5.95 -0.55,-6.75 -2.25,-6.75c-1.75,0 -1.95,0.7 -1.95,6.9z"/>
  <path d="m151,102.45c0,0.25 1,2.15 2.25,4.2c1.2,2.1 2.45,5.8 2.75,8.25c0.65,5.9 4,6.95 4,1.25c0.05,-2.1 1.25,-5.85 2.95,-8.9l2.9,-5.25l-2.5,0c-1.8,0 -2.8,0.85 -3.75,3.1l-1.3,3.05l-1.25,-3.05c-1.1,-2.6 -6.05,-4.8 -6.05,-2.65z"/>
  <path d="m191,107.45c0,9.05 3.4,8.85 4.25,-0.2c0.45,-5 0.35,-5.25 -1.9,-5.25c-2.2,0 -2.35,0.4 -2.35,5.45z"/>
  <path d="m180.8,104.75c-1.3,5.35 0.65,13.6 3.45,14.35c2.3,0.6 2.75,0.4 2.75,-1.2c0,-1.05 -0.45,-1.9 -1,-1.9c-0.55,0 -1,-1.6 -1,-3.5c0,-1.95 0.45,-3.5 1,-3.5c0.55,0 1,-0.7 1,-1.5c0,-0.85 -0.45,-1.5 -1,-1.5c-0.55,0 -1,-0.7 -1,-1.5c0,-2.1 -3.65,-1.9 -4.2,0.25z"/>
  <path d="m71.55,106.55c-2.2,2.25 -2.05,9.7 0.3,11.8c4.5,4.1 10.15,0.75 10.15,-6.1c0,-4.85 -2,-7.25 -6,-7.25c-1.55,0 -3.55,0.7 -4.45,1.55zm6.25,5.8c0.25,3.05 0,3.65 -1.6,3.65c-2.3,0 -3.25,-2.65 -2.05,-5.85c1.25,-3.35 3.3,-2.1 3.65,2.2z"/>
  <path d="m105.75,106.1c-2.5,1.45 -2.45,9.95 0.1,12.25c4.3,3.9 10.15,0.35 10.15,-6.2c0,-6 -5.15,-9.05 -10.25,-6.05zm6.05,6.25c0.25,3.05 0,3.65 -1.6,3.65c-2.3,0 -3.25,-2.65 -2.05,-5.85c1.25,-3.35 3.3,-2.1 3.65,2.2z"/>
  <path d="m119.2,106.2c-3.8,3.8 -0.4,12.55 4.4,11.35c1.9,-0.45 2.45,-0.3 2.15,0.65c-0.25,0.7 -1.55,1.2 -2.85,1.1c-4.05,-0.3 -5.35,0.45 -3.85,2.25c0.85,1.05 2.6,1.45 5.35,1.25l4.1,-0.3l0.3,-8.75l0.3,-8.75l-4.35,0c-2.4,0 -4.9,0.55 -5.55,1.2zm6.6,4.45c0.4,2.85 -2.15,4.85 -3.75,2.95c-0.9,-1.1 -0.9,-2 -0.05,-3.6c1.35,-2.5 3.4,-2.15 3.8,0.65z"/>
  <path d="m133.55,106.55c-2.2,2.25 -2.05,9.7 0.3,11.8c4.5,4.1 10.15,0.75 10.15,-6.1c0,-4.85 -2,-7.25 -6,-7.25c-1.55,0 -3.55,0.7 -4.45,1.55zm6.25,5.8c0.25,3.05 0,3.65 -1.6,3.65c-2.3,0 -3.25,-2.65 -2.05,-5.85c1.25,-3.35 3.3,-2.1 3.65,2.2z"/>
  <path d="m167.65,106.85c-3.9,4.3 -0.75,13.15 4.7,13.15c2.4,0 5.65,-2.75 5.65,-4.85c0,-1.4 -2.65,-1.55 -3.5,-0.15c-0.95,1.55 -4.5,1.15 -4.5,-0.5c0,-1.1 1.1,-1.5 4,-1.5c3.15,0 4,-0.35 4,-1.8c0,-5.3 -6.85,-8.25 -10.35,-4.35z"/>
  <path d="m191,117.5c0,2.15 0.4,2.6 2.25,2.3c1.5,-0.2 2.25,-1 2.25,-2.3c0,-1.3 -0.75,-2.1 -2.25,-2.3c-1.85,-0.3 -2.25,0.15 -2.25,2.3z"/>
 </g></g></g>
</g>
<defs>
<linearGradient id="paint0_linear_0_1" x1="0" y1="198" x2="1584" y2="198" gradientUnits="userSpaceOnUse">
<stop stop-color="#3D052C"/>
<stop offset="1"/>
</linearGradient>
<linearGradient id="paint1_linear_0_1" x1="323" y1="-224" x2="323" y2="352" gradientUnits="userSpaceOnUse">
<stop stop-color="#28F6F2" stop-opacity="0.4"/>
<stop offset="1" stop-color="#17908E" stop-opacity="0.7"/>
</linearGradient>
<linearGradient id="paint2_linear_0_1" x1="148.5" y1="38" x2="148.5" y2="140" gradientUnits="userSpaceOnUse">
<stop stop-color="white"/>
<stop offset="1" stop-color="#999999"/>
</linearGradient>
<linearGradient id="paint3_linear_0_1" x1="38" y1="260" x2="26" y2="260" gradientUnits="userSpaceOnUse">
<stop stop-color="#D9D9D9"/>
<stop offset="1" stop-color="#737373"/>
</linearGradient>
<linearGradient id="paint4_linear_0_1" x1="38" y1="97.5" x2="26" y2="97.5" gradientUnits="userSpaceOnUse">
<stop stop-color="#D9D9D9"/>
<stop offset="1" stop-color="#737373"/>
</linearGradient>
<linearGradient id="paint5_linear_0_1" x1="27.5" y1="434.5" x2="148.5" y2="787" gradientUnits="userSpaceOnUse">
<stop stop-color="#2E21BC"/>
<stop offset="1" stop-color="#150F56"/>
</linearGradient>
<clipPath id="clip0_0_1">
<rect width="1584" height="396" fill="white"/>
</clipPath>
</defs>
</svg>
