<svg width="1584" height="396" viewBox="0 0 1584 396" fill="none" xmlns="http://www.w3.org/2000/svg">
<rect width="1584" height="396" fill="#F5F5F5"/>
<g id="Awesome banner" clip-path="url(#clip0_0_1)">
<rect width="1584" height="396" fill="url(#paint0_linear_0_1)"/>
<ellipse id="Ellipse 2" cx="323" cy="64" rx="285" ry="288" fill="url(#paint1_linear_0_1)" fill-opacity="0.1"/>
<g id="copyright">
<path d="M75.95 334.52L72.30 334.52L72.30 311.16L77.20 311.16L83.70 330.04Q83.60 329.02 83.50 327.62Q83.41 326.23 83.33 324.79Q83.25 323.35 83.25 322.23L83.25 311.16L86.90 311.16L86.90 334.52L82 334.52L75.57 315.64Q75.63 316.57 75.73 317.88Q75.82 319.19 75.89 320.57Q75.95 321.94 75.95 323.10L75.95 334.52M98.80 334.84Q96.46 334.84 94.67 333.96Q92.88 333.08 91.89 331.53Q90.90 329.98 90.90 327.93Q90.90 325.78 92.13 324.18Q93.36 322.58 95.34 322.17L95.34 322.10Q93.65 321.75 92.61 320.38Q91.57 319 91.57 317.11Q91.57 315.26 92.48 313.85Q93.39 312.44 95.02 311.64Q96.66 310.84 98.80 310.84Q100.94 310.84 102.59 311.64Q104.24 312.44 105.15 313.85Q106.06 315.26 106.06 317.11Q106.06 319 105.01 320.38Q103.95 321.75 102.26 322.10L102.26 322.17Q104.24 322.58 105.47 324.18Q106.70 325.78 106.70 327.93Q106.70 329.98 105.71 331.53Q104.72 333.08 102.93 333.96Q101.14 334.84 98.80 334.84M98.80 320.73Q100.30 320.73 101.23 319.82Q102.16 318.90 102.16 317.46Q102.16 315.99 101.23 315.08Q100.30 314.17 98.80 314.17Q97.30 314.17 96.37 315.08Q95.44 315.99 95.44 317.46Q95.44 318.90 96.37 319.82Q97.30 320.73 98.80 320.73M98.80 331.45Q100.56 331.45 101.68 330.42Q102.80 329.40 102.80 327.74Q102.80 326.04 101.68 325Q100.56 323.96 98.80 323.96Q97.04 323.96 95.92 325Q94.80 326.04 94.80 327.74Q94.80 329.40 95.92 330.42Q97.04 331.45 98.80 331.45M114.35 334.52L110.70 334.52L110.70 311.16L115.60 311.16L122.10 330.04Q122 329.02 121.90 327.62Q121.81 326.23 121.73 324.79Q121.65 323.35 121.65 322.23L121.65 311.16L125.30 311.16L125.30 334.52L120.40 334.52L113.97 315.64Q114.03 316.57 114.13 317.88Q114.22 319.19 114.29 320.57Q114.35 321.94 114.35 323.10" fill="white" fill-opacity="0.9"/>
<path d="M161.48 325.24L151.24 325.24L151.24 322.68L161.48 322.68" fill="white" fill-opacity="0.9"/>
<path d="M195.02 334.84Q191.82 334.84 189.96 333.05Q188.11 331.26 188.11 328.12L188.11 317.56Q188.11 314.42 189.96 312.63Q191.82 310.84 195.02 310.84Q198.15 310.84 200.01 312.65Q201.87 314.46 201.87 317.56L198.99 317.56Q198.99 315.58 197.95 314.50Q196.91 313.43 195.02 313.43Q193.13 313.43 192.06 314.50Q190.99 315.58 190.99 317.56L190.99 328.12Q190.99 330.10 192.06 331.18Q193.13 332.25 195.02 332.25Q196.91 332.25 197.95 331.18Q198.99 330.10 198.99 328.12L201.87 328.12Q201.87 331.22 200.01 333.03Q198.15 334.84 195.02 334.84" fill="white" fill-opacity="0.9"/>
<path d="M213.96 334.84Q210.83 334.84 209 333.02Q207.18 331.19 207.18 327.80L207.18 317.88Q207.18 314.49 209 312.66Q210.83 310.84 213.96 310.84Q217.10 310.84 218.92 312.66Q220.75 314.49 220.75 317.85L220.75 327.80Q220.75 331.19 218.92 333.02Q217.10 334.84 213.96 334.84M213.96 332.25Q215.85 332.25 216.86 331.18Q217.87 330.10 217.87 328.12L217.87 317.56Q217.87 315.58 216.86 314.50Q215.85 313.43 213.96 313.43Q212.11 313.43 211.08 314.50Q210.06 315.58 210.06 317.56L210.06 328.12Q210.06 330.10 211.08 331.18Q212.11 332.25 213.96 332.25" fill="white" fill-opacity="0.9"/>
<path d="M228.65 334.52L225.87 334.52L225.87 311.16L230.12 311.16L233.10 321.27L236.20 311.16L240.46 311.16L240.46 334.52L237.67 334.52L237.67 323.48Q237.67 321.91 237.72 319.88Q237.77 317.85 237.87 315.77Q237.96 313.69 238.09 312.02L234.31 324.09L231.82 324.09L228.20 312.31Q228.46 314.68 228.55 317.50Q228.65 320.31 228.65 323.48" fill="white" fill-opacity="0.9"/>
<path d="M247.85 334.52L245.07 334.52L245.07 311.16L249.32 311.16L252.30 321.27L255.40 311.16L259.66 311.16L259.66 334.52L256.87 334.52L256.87 323.48Q256.87 321.91 256.92 319.88Q256.97 317.85 257.07 315.77Q257.16 313.69 257.29 312.02L253.51 324.09L251.02 324.09L247.40 312.31Q247.66 314.68 247.75 317.50Q247.85 320.31 247.85 323.48" fill="white" fill-opacity="0.9"/>
<path d="M271.56 334.84Q268.30 334.84 266.57 333.03Q264.84 331.22 264.84 328.12L264.84 311.16L267.72 311.16L267.72 328.12Q267.72 330.04 268.67 331.16Q269.61 332.28 271.56 332.28Q273.48 332.28 274.44 331.16Q275.40 330.04 275.40 328.12L275.40 311.16L278.28 311.16L278.28 328.12Q278.28 331.26 276.57 333.05Q274.86 334.84 271.56 334.84" fill="white" fill-opacity="0.9"/>
<path d="M286.83 334.52L284.04 334.52L284.04 311.16L287.88 311.16L295.02 331.16Q294.95 330.36 294.87 329.19Q294.79 328.02 294.75 326.73Q294.70 325.43 294.70 324.28L294.70 311.16L297.48 311.16L297.48 334.52L293.64 334.52L286.54 314.52Q286.60 315.29 286.67 316.46Q286.73 317.62 286.78 318.92Q286.83 320.22 286.83 321.40" fill="white" fill-opacity="0.9"/>
<path d="M316.20 334.52L303.72 334.52L303.72 331.90L308.49 331.90L308.49 313.78L303.72 313.78L303.72 311.16L316.20 311.16L316.20 313.78L311.43 313.78L311.43 331.90L316.20 331.90" fill="white" fill-opacity="0.9"/>
<path d="M330.60 334.52L327.72 334.52L327.72 313.78L321.32 313.78L321.32 311.16L337 311.16L337 313.78L330.60 313.78" fill="white" fill-opacity="0.9"/>
<path d="M349.80 334.52L346.92 334.52L346.92 325.78L339.88 311.16L342.95 311.16L347.50 320.76Q347.88 321.56 348.11 322.12Q348.33 322.68 348.39 322.94Q348.46 322.68 348.70 322.12Q348.94 321.56 349.32 320.76L353.87 311.16L356.84 311.16L349.80 325.78" fill="white" fill-opacity="0.9"/>
<path d="M382.83 334.52L380.04 334.52L380.04 311.16L383.88 311.16L391.02 331.16Q390.95 330.36 390.87 329.19Q390.79 328.02 390.75 326.73Q390.70 325.43 390.70 324.28L390.70 311.16L393.48 311.16L393.48 334.52L389.64 334.52L382.54 314.52Q382.60 315.29 382.67 316.46Q382.73 317.62 382.78 318.92Q382.83 320.22 382.83 321.40" fill="white" fill-opacity="0.9"/>
<path d="M405.96 334.84Q402.83 334.84 401 333.02Q399.18 331.19 399.18 327.80L399.18 317.88Q399.18 314.49 401 312.66Q402.83 310.84 405.96 310.84Q409.10 310.84 410.92 312.66Q412.75 314.49 412.75 317.85L412.75 327.80Q412.75 331.19 410.92 333.02Q409.10 334.84 405.96 334.84M405.96 332.25Q407.85 332.25 408.86 331.18Q409.87 330.10 409.87 328.12L409.87 317.56Q409.87 315.58 408.86 314.50Q407.85 313.43 405.96 313.43Q404.11 313.43 403.08 314.50Q402.06 315.58 402.06 317.56L402.06 328.12Q402.06 330.10 403.08 331.18Q404.11 332.25 405.96 332.25" fill="white" fill-opacity="0.9"/>
<path d="M424.55 334.52L418.51 334.52L418.51 311.16L424.55 311.16Q426.83 311.16 428.47 312.02Q430.12 312.89 431.03 314.46Q431.95 316.02 431.95 318.17L431.95 327.48Q431.95 329.62 431.03 331.21Q430.12 332.79 428.47 333.66Q426.83 334.52 424.55 334.52M421.39 313.72L421.39 331.96L424.55 331.96Q426.67 331.96 427.87 330.78Q429.07 329.59 429.07 327.48L429.07 318.17Q429.07 316.09 427.87 314.90Q426.67 313.72 424.55 313.72" fill="white" fill-opacity="0.9"/>
<path d="M451.40 334.52L437.96 334.52L437.96 311.16L451.40 311.16L451.40 313.78L440.81 313.78L440.81 321.02L450.28 321.02L450.28 323.58L440.81 323.58L440.81 331.90L451.40 331.90" fill="white" fill-opacity="0.9"/>
<path d="M463.69 334.84Q460.30 334.84 458.28 333.05Q456.27 331.26 456.27 328.12L459.15 328.12Q459.15 330.07 460.39 331.18Q461.64 332.28 463.69 332.28Q465.67 332.28 466.86 331.13Q468.04 329.98 468.04 328.12Q468.04 326.71 467.29 325.67Q466.54 324.63 465.13 324.25L461.58 323.26Q459.37 322.62 458.11 320.97Q456.84 319.32 456.84 317.08Q456.84 315.22 457.67 313.82Q458.51 312.41 460.01 311.62Q461.51 310.84 463.47 310.84Q465.45 310.84 466.97 311.62Q468.49 312.41 469.35 313.80Q470.22 315.19 470.22 317.02L467.34 317.02Q467.34 315.42 466.25 314.41Q465.16 313.40 463.47 313.40Q461.77 313.40 460.71 314.41Q459.66 315.42 459.66 317.02Q459.66 318.30 460.35 319.21Q461.03 320.12 462.28 320.47L465.93 321.50Q468.27 322.14 469.56 323.91Q470.86 325.69 470.86 328.12Q470.86 331.19 468.91 333.02Q466.95 334.84 463.69 334.84" fill="white" fill-opacity="0.9"/>
</g>
<path d="M74.37 197.64L72.23 197.64L72.23 180.12L77.63 180.12Q79.19 180.12 80.37 180.76Q81.54 181.39 82.19 182.52Q82.84 183.65 82.84 185.16Q82.84 186.94 81.93 188.21Q81.02 189.48 79.50 189.98L83.08 197.64L80.70 197.64L77.27 190.20L74.37 190.20L74.37 197.64M74.37 182.06L74.37 188.26L77.63 188.26Q78.98 188.26 79.79 187.40Q80.61 186.55 80.61 185.16Q80.61 183.74 79.79 182.90Q78.98 182.06 77.63 182.06" fill="white" fill-opacity="0.7"/>
<path d="M91.60 197.88Q89.27 197.88 87.84 196.48Q86.42 195.07 86.42 192.60L86.42 189.48Q86.42 187.01 87.84 185.60Q89.27 184.20 91.60 184.20Q93.16 184.20 94.32 184.82Q95.49 185.45 96.14 186.58Q96.78 187.70 96.78 189.24L96.78 191.59L88.53 191.59L88.53 192.84Q88.53 194.30 89.37 195.16Q90.21 196.01 91.60 196.01Q92.80 196.01 93.58 195.54Q94.36 195.07 94.53 194.28L96.69 194.28Q96.47 195.94 95.08 196.91Q93.69 197.88 91.60 197.88M88.53 189.24L88.53 189.91L94.67 189.91L94.67 189.24Q94.67 187.68 93.87 186.83Q93.06 185.98 91.60 185.98Q90.14 185.98 89.33 186.83Q88.53 187.68 88.53 189.24" fill="white" fill-opacity="0.7"/>
<path d="M106.19 197.88Q103.79 197.88 102.35 196.54Q100.91 195.19 100.91 192.84L100.91 189.24Q100.91 186.89 102.35 185.54Q103.79 184.20 106.19 184.20Q108.47 184.20 109.88 185.42Q111.28 186.65 111.35 188.76L109.19 188.76Q109.12 187.49 108.33 186.80Q107.54 186.12 106.19 186.12Q104.78 186.12 103.92 186.92Q103.07 187.73 103.07 189.22L103.07 192.84Q103.07 194.33 103.92 195.14Q104.78 195.96 106.19 195.96Q107.54 195.96 108.33 195.26Q109.12 194.57 109.19 193.32L111.35 193.32Q111.28 195.43 109.88 196.66Q108.47 197.88 106.19 197.88" fill="white" fill-opacity="0.7"/>
<path d="M120.38 197.88Q118.10 197.88 116.73 196.52Q115.36 195.17 115.36 192.84L115.36 184.44L117.52 184.44L117.52 192.84Q117.52 194.28 118.29 195.13Q119.06 195.98 120.38 195.98Q121.72 195.98 122.50 195.13Q123.28 194.28 123.28 192.84L123.28 184.44L125.44 184.44L125.44 192.84Q125.44 195.17 124.05 196.52Q122.66 197.88 120.38 197.88" fill="white" fill-opacity="0.7"/>
<path d="M132.45 197.64L130.29 197.64L130.29 184.44L132.45 184.44L132.45 186.96L132.50 186.96Q132.66 185.69 133.58 184.94Q134.49 184.20 136.02 184.20Q138.09 184.20 139.20 185.44Q140.32 186.67 140.32 188.95L140.32 190.08L138.16 190.08L138.16 188.95Q138.16 186.07 135.35 186.07Q133.94 186.07 133.19 186.89Q132.45 187.70 132.45 189.24" fill="white" fill-opacity="0.7"/>
<path d="M146.85 197.64L144.69 197.64L144.69 184.44L146.85 184.44L146.85 186.96L146.90 186.96Q147.06 185.69 147.98 184.94Q148.89 184.20 150.42 184.20Q152.49 184.20 153.60 185.44Q154.72 186.67 154.72 188.95L154.72 190.08L152.56 190.08L152.56 188.95Q152.56 186.07 149.75 186.07Q148.34 186.07 147.59 186.89Q146.85 187.70 146.85 189.24" fill="white" fill-opacity="0.7"/>
<path d="M169.72 197.64L158.44 197.64L158.44 195.67L163.12 195.67L163.12 186.41L158.92 186.41L158.92 184.44L165.28 184.44L165.28 195.67L169.72 195.67L169.72 197.64M163.96 182.06Q163.17 182.06 162.71 181.66Q162.26 181.25 162.26 180.55Q162.26 179.83 162.71 179.41Q163.17 178.99 163.96 178.99Q164.75 178.99 165.21 179.41Q165.66 179.83 165.66 180.55Q165.66 181.25 165.21 181.66Q164.75 182.06 163.96 182.06" fill="white" fill-opacity="0.7"/>
<path d="M175.17 197.64L173.01 197.64L173.01 184.44L175.17 184.44L175.17 186.96L175.19 186.96Q175.36 185.64 176.27 184.92Q177.18 184.20 178.70 184.20Q180.69 184.20 181.86 185.42Q183.04 186.65 183.04 188.76L183.04 197.64L180.88 197.64L180.88 189.14Q180.88 187.63 180.12 186.83Q179.37 186.02 178.07 186.02Q176.73 186.02 175.95 186.86Q175.17 187.70 175.17 189.24" fill="white" fill-opacity="0.7"/>
<path d="M192.76 201.96L189.06 201.96L189.06 199.99L192.78 199.99Q193.91 199.99 194.56 199.36Q195.21 198.72 195.21 197.64L195.21 196.44L195.26 194.28L195.18 194.28Q194.99 195.46 194.06 196.09Q193.12 196.73 191.70 196.73Q189.66 196.73 188.49 195.43Q187.31 194.14 187.31 191.88L187.31 189.10Q187.31 186.84 188.49 185.52Q189.66 184.20 191.70 184.20Q193.12 184.20 194.06 184.87Q194.99 185.54 195.18 186.72L195.23 186.72L195.23 184.44L197.37 184.44L197.37 197.64Q197.37 199.63 196.13 200.80Q194.90 201.96 192.76 201.96M192.35 194.93Q193.70 194.93 194.46 194.09Q195.23 193.25 195.23 191.76L195.23 189.24Q195.23 187.75 194.46 186.91Q193.70 186.07 192.35 186.07Q190.98 186.07 190.23 186.86Q189.47 187.66 189.47 189L189.47 192Q189.47 193.34 190.23 194.14Q190.98 194.93 192.35 194.93" fill="white" fill-opacity="0.7"/>
<path d="M217.41 197.64L215.20 197.64L219.76 180.12L222.66 180.12L227.20 197.64L225.02 197.64L223.86 192.98L218.56 192.98L217.41 197.64M220.34 185.74L218.99 191.16L223.41 191.16L222.06 185.76Q221.68 184.22 221.46 183.19Q221.25 182.16 221.20 181.85Q221.15 182.16 220.94 183.19Q220.72 184.22 220.34 185.74" fill="white" fill-opacity="0.7"/>
<path d="M232.77 197.64L230.61 197.64L230.61 180.12L236.25 180.12Q238.70 180.12 240.15 181.52Q241.60 182.93 241.60 185.28Q241.60 187.63 240.15 189.04Q238.70 190.44 236.25 190.44L232.77 190.44L232.77 197.64M232.77 182.06L232.77 188.50L236.25 188.50Q237.66 188.50 238.52 187.62Q239.37 186.74 239.37 185.28Q239.37 183.79 238.52 182.93Q237.66 182.06 236.25 182.06" fill="white" fill-opacity="0.7"/>
<path d="M254.68 197.64L245.32 197.64L245.32 195.67L248.90 195.67L248.90 182.09L245.32 182.09L245.32 180.12L254.68 180.12L254.68 182.09L251.10 182.09L251.10 195.67L254.68 195.67" fill="white" fill-opacity="0.7"/>
<path d="M264.93 197.83L263.87 197.83Q261.66 197.83 260.45 196.84Q259.24 195.84 259.24 194.02L261.40 194.02Q261.40 194.93 262.05 195.44Q262.70 195.96 263.87 195.96L264.93 195.96Q266.13 195.96 266.79 195.43Q267.45 194.90 267.45 193.94Q267.45 192.24 265.89 192.02L262.24 191.50Q260.90 191.30 260.15 190.38Q259.41 189.46 259.41 187.94Q259.41 186.22 260.60 185.23Q261.78 184.25 263.87 184.25L264.93 184.25Q266.85 184.25 268.06 185.20Q269.27 186.14 269.37 187.68L267.18 187.68Q267.14 186.98 266.52 186.53Q265.91 186.07 264.93 186.07L263.87 186.07Q262.77 186.07 262.14 186.58Q261.52 187.08 261.52 187.94Q261.52 189.34 262.79 189.53L266.20 190.01Q269.56 190.49 269.56 193.94Q269.56 195.79 268.35 196.81Q267.14 197.83 264.93 197.83" fill="white" fill-opacity="0.7"/>
<path d="M289.46 197.64L287.44 197.64L287.44 184.44L289.31 184.44L289.31 186.19L289.36 186.19Q289.48 185.30 290.07 184.75Q290.66 184.20 291.57 184.20Q292.43 184.20 293.03 184.70Q293.63 185.21 293.90 186.07L293.92 186.07Q294.09 185.21 294.68 184.70Q295.26 184.20 296.18 184.20Q297.45 184.20 298.20 185.15Q298.96 186.10 298.96 187.61L298.96 197.64L296.94 197.64L296.94 187.58Q296.94 186.79 296.56 186.32Q296.18 185.86 295.50 185.86Q294.86 185.86 294.47 186.31Q294.09 186.77 294.09 187.56L294.09 197.64L292.31 197.64L292.31 187.58Q292.31 186.79 291.93 186.32Q291.54 185.86 290.90 185.86Q290.22 185.86 289.84 186.31Q289.46 186.77 289.46 187.56" fill="white" fill-opacity="0.7"/>
<path d="M306.45 197.88Q304.41 197.88 303.21 196.74Q302.01 195.60 302.01 193.75Q302.01 192.53 302.56 191.62Q303.11 190.70 304.10 190.19Q305.08 189.67 306.35 189.67L310.43 189.67L310.43 188.64Q310.43 186.07 307.62 186.07Q306.38 186.07 305.61 186.53Q304.84 186.98 304.79 187.80L302.63 187.80Q302.75 186.24 304.08 185.22Q305.42 184.20 307.62 184.20Q310.02 184.20 311.31 185.35Q312.59 186.50 312.59 188.57L312.59 197.64L310.46 197.64L310.46 195.24L310.41 195.24Q310.22 196.46 309.18 197.17Q308.15 197.88 306.45 197.88M306.98 196.06Q308.56 196.06 309.50 195.29Q310.43 194.52 310.43 193.20L310.43 191.35L306.59 191.35Q305.54 191.35 304.88 191.99Q304.22 192.62 304.22 193.68Q304.22 194.78 304.95 195.42Q305.68 196.06 306.98 196.06" fill="white" fill-opacity="0.7"/>
<path d="M319.17 197.64L317.01 197.64L317.01 184.44L319.17 184.44L319.17 186.96L319.19 186.96Q319.36 185.64 320.27 184.92Q321.18 184.20 322.70 184.20Q324.69 184.20 325.86 185.42Q327.04 186.65 327.04 188.76L327.04 197.64L324.88 197.64L324.88 189.14Q324.88 187.63 324.12 186.83Q323.37 186.02 322.07 186.02Q320.73 186.02 319.95 186.86Q319.17 187.70 319.17 189.24" fill="white" fill-opacity="0.7"/>
<path d="M335.25 197.88Q333.21 197.88 332.01 196.74Q330.81 195.60 330.81 193.75Q330.81 192.53 331.36 191.62Q331.91 190.70 332.90 190.19Q333.88 189.67 335.15 189.67L339.23 189.67L339.23 188.64Q339.23 186.07 336.42 186.07Q335.18 186.07 334.41 186.53Q333.64 186.98 333.59 187.80L331.43 187.80Q331.55 186.24 332.88 185.22Q334.22 184.20 336.42 184.20Q338.82 184.20 340.11 185.35Q341.39 186.50 341.39 188.57L341.39 197.64L339.26 197.64L339.26 195.24L339.21 195.24Q339.02 196.46 337.98 197.17Q336.95 197.88 335.25 197.88M335.78 196.06Q337.36 196.06 338.30 195.29Q339.23 194.52 339.23 193.20L339.23 191.35L335.39 191.35Q334.34 191.35 333.68 191.99Q333.02 192.62 333.02 193.68Q333.02 194.78 333.75 195.42Q334.48 196.06 335.78 196.06" fill="white" fill-opacity="0.7"/>
<path d="M351.16 201.96L347.46 201.96L347.46 199.99L351.18 199.99Q352.31 199.99 352.96 199.36Q353.61 198.72 353.61 197.64L353.61 196.44L353.66 194.28L353.58 194.28Q353.39 195.46 352.46 196.09Q351.52 196.73 350.10 196.73Q348.06 196.73 346.89 195.43Q345.71 194.14 345.71 191.88L345.71 189.10Q345.71 186.84 346.89 185.52Q348.06 184.20 350.10 184.20Q351.52 184.20 352.46 184.87Q353.39 185.54 353.58 186.72L353.63 186.72L353.63 184.44L355.77 184.44L355.77 197.64Q355.77 199.63 354.53 200.80Q353.30 201.96 351.16 201.96M350.75 194.93Q352.10 194.93 352.86 194.09Q353.63 193.25 353.63 191.76L353.63 189.24Q353.63 187.75 352.86 186.91Q352.10 186.07 350.75 186.07Q349.38 186.07 348.63 186.86Q347.87 187.66 347.87 189L347.87 192Q347.87 193.34 348.63 194.14Q349.38 194.93 350.75 194.93" fill="white" fill-opacity="0.7"/>
<path d="M365.20 197.88Q362.87 197.88 361.44 196.48Q360.02 195.07 360.02 192.60L360.02 189.48Q360.02 187.01 361.44 185.60Q362.87 184.20 365.20 184.20Q366.76 184.20 367.92 184.82Q369.09 185.45 369.74 186.58Q370.38 187.70 370.38 189.24L370.38 191.59L362.13 191.59L362.13 192.84Q362.13 194.30 362.97 195.16Q363.81 196.01 365.20 196.01Q366.40 196.01 367.18 195.54Q367.96 195.07 368.13 194.28L370.29 194.28Q370.07 195.94 368.68 196.91Q367.29 197.88 365.20 197.88M362.13 189.24L362.13 189.91L368.27 189.91L368.27 189.24Q368.27 187.68 367.47 186.83Q366.66 185.98 365.20 185.98Q363.74 185.98 362.93 186.83Q362.13 187.68 362.13 189.24" fill="white" fill-opacity="0.7"/>
<path d="M392.85 197.88Q390.81 197.88 389.61 196.74Q388.41 195.60 388.41 193.75Q388.41 192.53 388.96 191.62Q389.51 190.70 390.50 190.19Q391.48 189.67 392.75 189.67L396.83 189.67L396.83 188.64Q396.83 186.07 394.02 186.07Q392.78 186.07 392.01 186.53Q391.24 186.98 391.19 187.80L389.03 187.80Q389.15 186.24 390.48 185.22Q391.82 184.20 394.02 184.20Q396.42 184.20 397.71 185.35Q398.99 186.50 398.99 188.57L398.99 197.64L396.86 197.64L396.86 195.24L396.81 195.24Q396.62 196.46 395.58 197.17Q394.55 197.88 392.85 197.88M393.38 196.06Q394.96 196.06 395.90 195.29Q396.83 194.52 396.83 193.20L396.83 191.35L392.99 191.35Q391.94 191.35 391.28 191.99Q390.62 192.62 390.62 193.68Q390.62 194.78 391.35 195.42Q392.08 196.06 393.38 196.06" fill="white" fill-opacity="0.7"/>
<path d="M405.57 197.64L403.41 197.64L403.41 184.44L405.57 184.44L405.57 186.96L405.59 186.96Q405.76 185.64 406.67 184.92Q407.58 184.20 409.10 184.20Q411.09 184.20 412.26 185.42Q413.44 186.65 413.44 188.76L413.44 197.64L411.28 197.64L411.28 189.14Q411.28 187.63 410.52 186.83Q409.77 186.02 408.47 186.02Q407.13 186.02 406.35 186.86Q405.57 187.70 405.57 189.24" fill="white" fill-opacity="0.7"/>
<path d="M422.03 197.88Q420.06 197.88 418.88 196.56Q417.69 195.24 417.69 192.98L417.69 189.12Q417.69 186.84 418.86 185.52Q420.04 184.20 422.03 184.20Q423.52 184.20 424.49 184.94Q425.46 185.69 425.66 186.96L425.68 186.96L425.63 183.96L425.63 180.12L427.79 180.12L427.79 197.64L425.63 197.64L425.63 195.12L425.61 195.12Q425.44 196.42 424.48 197.15Q423.52 197.88 422.03 197.88M422.75 196.01Q424.10 196.01 424.86 195.17Q425.63 194.33 425.63 192.84L425.63 189.24Q425.63 187.75 424.86 186.91Q424.10 186.07 422.75 186.07Q421.38 186.07 420.62 186.78Q419.85 187.49 419.85 189.12L419.85 192.96Q419.85 194.57 420.62 195.29Q421.38 196.01 422.75 196.01" fill="white" fill-opacity="0.7"/>
<path d="M449.25 197.64L447.09 197.64L447.09 184.44L449.25 184.44L449.25 186.96L449.30 186.96Q449.46 185.69 450.38 184.94Q451.29 184.20 452.82 184.20Q454.89 184.20 456 185.44Q457.12 186.67 457.12 188.95L457.12 190.08L454.96 190.08L454.96 188.95Q454.96 186.07 452.15 186.07Q450.74 186.07 449.99 186.89Q449.25 187.70 449.25 189.24" fill="white" fill-opacity="0.7"/>
<path d="M466 197.88Q463.67 197.88 462.24 196.48Q460.82 195.07 460.82 192.60L460.82 189.48Q460.82 187.01 462.24 185.60Q463.67 184.20 466 184.20Q467.56 184.20 468.72 184.82Q469.89 185.45 470.54 186.58Q471.18 187.70 471.18 189.24L471.18 191.59L462.93 191.59L462.93 192.84Q462.93 194.30 463.77 195.16Q464.61 196.01 466 196.01Q467.20 196.01 467.98 195.54Q468.76 195.07 468.93 194.28L471.09 194.28Q470.87 195.94 469.48 196.91Q468.09 197.88 466 197.88M462.93 189.24L462.93 189.91L469.07 189.91L469.07 189.24Q469.07 187.68 468.27 186.83Q467.46 185.98 466 185.98Q464.54 185.98 463.73 186.83Q462.93 187.68 462.93 189.24" fill="white" fill-opacity="0.7"/>
<path d="M476.66 197.64L474.64 197.64L474.64 184.44L476.51 184.44L476.51 186.19L476.56 186.19Q476.68 185.30 477.27 184.75Q477.86 184.20 478.77 184.20Q479.63 184.20 480.23 184.70Q480.83 185.21 481.10 186.07L481.12 186.07Q481.29 185.21 481.88 184.70Q482.46 184.20 483.38 184.20Q484.65 184.20 485.40 185.15Q486.16 186.10 486.16 187.61L486.16 197.64L484.14 197.64L484.14 187.58Q484.14 186.79 483.76 186.32Q483.38 185.86 482.70 185.86Q482.06 185.86 481.67 186.31Q481.29 186.77 481.29 187.56L481.29 197.64L479.51 197.64L479.51 187.58Q479.51 186.79 479.13 186.32Q478.74 185.86 478.10 185.86Q477.42 185.86 477.04 186.31Q476.66 186.77 476.66 187.56" fill="white" fill-opacity="0.7"/>
<path d="M494.80 197.83Q492.42 197.83 491.02 196.44Q489.62 195.05 489.62 192.55L489.62 189.53Q489.62 187.01 491.01 185.63Q492.40 184.25 494.80 184.25Q497.20 184.25 498.59 185.63Q499.98 187.01 499.98 189.53L499.98 192.55Q499.98 195.05 498.58 196.44Q497.18 197.83 494.80 197.83M494.80 195.91Q496.22 195.91 497.02 195.12Q497.82 194.33 497.82 192.79L497.82 189.29Q497.82 187.75 497.02 186.96Q496.22 186.17 494.80 186.17Q493.41 186.17 492.59 186.96Q491.78 187.75 491.78 189.29L491.78 192.79Q491.78 194.33 492.59 195.12Q493.41 195.91 494.80 195.91" fill="white" fill-opacity="0.7"/>
<path d="M510.62 197.64L507.78 197.64L503.30 184.44L505.62 184.44L508.50 193.32Q508.77 194.11 508.96 194.84Q509.15 195.58 509.25 195.98Q509.37 195.58 509.54 194.84Q509.70 194.11 509.94 193.32L512.82 184.44L515.10 184.44" fill="white" fill-opacity="0.7"/>
<path d="M523.60 197.88Q521.27 197.88 519.84 196.48Q518.42 195.07 518.42 192.60L518.42 189.48Q518.42 187.01 519.84 185.60Q521.27 184.20 523.60 184.20Q525.16 184.20 526.32 184.82Q527.49 185.45 528.14 186.58Q528.78 187.70 528.78 189.24L528.78 191.59L520.53 191.59L520.53 192.84Q520.53 194.30 521.37 195.16Q522.21 196.01 523.60 196.01Q524.80 196.01 525.58 195.54Q526.36 195.07 526.53 194.28L528.69 194.28Q528.47 195.94 527.08 196.91Q525.69 197.88 523.60 197.88M520.53 189.24L520.53 189.91L526.67 189.91L526.67 189.24Q526.67 187.68 525.87 186.83Q525.06 185.98 523.60 185.98Q522.14 185.98 521.33 186.83Q520.53 187.68 520.53 189.24" fill="white" fill-opacity="0.7"/>
<path d="M557.56 197.64L553.72 197.64Q552.09 197.64 551.10 196.69Q550.12 195.74 550.12 194.16L550.12 186.41L546.33 186.41L546.33 184.44L550.12 184.44L550.12 180.72L552.28 180.72L552.28 184.44L557.68 184.44L557.68 186.41L552.28 186.41L552.28 194.16Q552.28 194.83 552.68 195.25Q553.07 195.67 553.72 195.67L557.56 195.67" fill="white" fill-opacity="0.7"/>
<path d="M566.80 197.83Q564.42 197.83 563.02 196.44Q561.62 195.05 561.62 192.55L561.62 189.53Q561.62 187.01 563.01 185.63Q564.40 184.25 566.80 184.25Q569.20 184.25 570.59 185.63Q571.98 187.01 571.98 189.53L571.98 192.55Q571.98 195.05 570.58 196.44Q569.18 197.83 566.80 197.83M566.80 195.91Q568.22 195.91 569.02 195.12Q569.82 194.33 569.82 192.79L569.82 189.29Q569.82 187.75 569.02 186.96Q568.22 186.17 566.80 186.17Q565.41 186.17 564.59 186.96Q563.78 187.75 563.78 189.29L563.78 192.79Q563.78 194.33 564.59 195.12Q565.41 195.91 566.80 195.91" fill="white" fill-opacity="0.7"/>
<path d="M578.49 197.64L576.33 197.64L576.33 180.12L578.49 180.12L578.49 189.89L581.01 189.89L584.70 184.44L587.18 184.44L582.93 190.73L587.42 197.64L584.90 197.64L581.06 191.76L578.49 191.76" fill="white" fill-opacity="0.7"/>
<path d="M595.60 197.88Q593.27 197.88 591.84 196.48Q590.42 195.07 590.42 192.60L590.42 189.48Q590.42 187.01 591.84 185.60Q593.27 184.20 595.60 184.20Q597.16 184.20 598.32 184.82Q599.49 185.45 600.14 186.58Q600.78 187.70 600.78 189.24L600.78 191.59L592.53 191.59L592.53 192.84Q592.53 194.30 593.37 195.16Q594.21 196.01 595.60 196.01Q596.80 196.01 597.58 195.54Q598.36 195.07 598.53 194.28L600.69 194.28Q600.47 195.94 599.08 196.91Q597.69 197.88 595.60 197.88M592.53 189.24L592.53 189.91L598.67 189.91L598.67 189.24Q598.67 187.68 597.87 186.83Q597.06 185.98 595.60 185.98Q594.14 185.98 593.33 186.83Q592.53 187.68 592.53 189.24" fill="white" fill-opacity="0.7"/>
<path d="M607.17 197.64L605.01 197.64L605.01 184.44L607.17 184.44L607.17 186.96L607.19 186.96Q607.36 185.64 608.27 184.92Q609.18 184.20 610.70 184.20Q612.69 184.20 613.86 185.42Q615.04 186.65 615.04 188.76L615.04 197.64L612.88 197.64L612.88 189.14Q612.88 187.63 612.12 186.83Q611.37 186.02 610.07 186.02Q608.73 186.02 607.95 186.86Q607.17 187.70 607.17 189.24" fill="white" fill-opacity="0.7"/>
<path d="M624.93 197.83L623.87 197.83Q621.66 197.83 620.45 196.84Q619.24 195.84 619.24 194.02L621.40 194.02Q621.40 194.93 622.05 195.44Q622.70 195.96 623.87 195.96L624.93 195.96Q626.13 195.96 626.79 195.43Q627.45 194.90 627.45 193.94Q627.45 192.24 625.89 192.02L622.24 191.50Q620.90 191.30 620.15 190.38Q619.41 189.46 619.41 187.94Q619.41 186.22 620.60 185.23Q621.78 184.25 623.87 184.25L624.93 184.25Q626.85 184.25 628.06 185.20Q629.27 186.14 629.37 187.68L627.18 187.68Q627.14 186.98 626.52 186.53Q625.91 186.07 624.93 186.07L623.87 186.07Q622.77 186.07 622.14 186.58Q621.52 187.08 621.52 187.94Q621.52 189.34 622.79 189.53L626.20 190.01Q629.56 190.49 629.56 193.94Q629.56 195.79 628.35 196.81Q627.14 197.83 624.93 197.83" fill="white" fill-opacity="0.7"/>
<path d="M653.20 197.83Q650.82 197.83 649.42 196.44Q648.02 195.05 648.02 192.55L648.02 189.53Q648.02 187.01 649.41 185.63Q650.80 184.25 653.20 184.25Q655.60 184.25 656.99 185.63Q658.38 187.01 658.38 189.53L658.38 192.55Q658.38 195.05 656.98 196.44Q655.58 197.83 653.20 197.83M653.20 195.91Q654.62 195.91 655.42 195.12Q656.22 194.33 656.22 192.79L656.22 189.29Q656.22 187.75 655.42 186.96Q654.62 186.17 653.20 186.17Q651.81 186.17 650.99 186.96Q650.18 187.75 650.18 189.29L650.18 192.79Q650.18 194.33 650.99 195.12Q651.81 195.91 653.20 195.91" fill="white" fill-opacity="0.7"/>
<path d="M665.25 197.64L663.09 197.64L663.09 184.44L665.25 184.44L665.25 186.96L665.30 186.96Q665.46 185.69 666.38 184.94Q667.29 184.20 668.82 184.20Q670.89 184.20 672 185.44Q673.12 186.67 673.12 188.95L673.12 190.08L670.96 190.08L670.96 188.95Q670.96 186.07 668.15 186.07Q666.74 186.07 665.99 186.89Q665.25 187.70 665.25 189.24" fill="white" fill-opacity="0.7"/>
<path d="M693.57 201.96L691.41 201.96L691.41 184.44L693.57 184.44L693.57 186.96L693.59 186.96Q693.76 185.66 694.72 184.93Q695.68 184.20 697.17 184.20Q699.16 184.20 700.34 185.51Q701.51 186.82 701.51 189.10L701.51 192.96Q701.51 195.24 700.34 196.56Q699.16 197.88 697.17 197.88Q695.68 197.88 694.72 197.14Q693.76 196.39 693.59 195.12L693.52 195.12L693.57 198.12L693.57 201.96M696.45 196.01Q697.82 196.01 698.58 195.29Q699.35 194.57 699.35 192.96L699.35 189.12Q699.35 187.49 698.58 186.78Q697.82 186.07 696.45 186.07Q695.13 186.07 694.35 186.91Q693.57 187.75 693.57 189.24L693.57 192.84Q693.57 194.33 694.35 195.17Q695.13 196.01 696.45 196.01" fill="white" fill-opacity="0.7"/>
<path d="M709.65 197.88Q707.61 197.88 706.41 196.74Q705.21 195.60 705.21 193.75Q705.21 192.53 705.76 191.62Q706.31 190.70 707.30 190.19Q708.28 189.67 709.55 189.67L713.63 189.67L713.63 188.64Q713.63 186.07 710.82 186.07Q709.58 186.07 708.81 186.53Q708.04 186.98 707.99 187.80L705.83 187.80Q705.95 186.24 707.28 185.22Q708.62 184.20 710.82 184.20Q713.22 184.20 714.51 185.35Q715.79 186.50 715.79 188.57L715.79 197.64L713.66 197.64L713.66 195.24L713.61 195.24Q713.42 196.46 712.38 197.17Q711.35 197.88 709.65 197.88M710.18 196.06Q711.76 196.06 712.70 195.29Q713.63 194.52 713.63 193.20L713.63 191.35L709.79 191.35Q708.74 191.35 708.08 191.99Q707.42 192.62 707.42 193.68Q707.42 194.78 708.15 195.42Q708.88 196.06 710.18 196.06" fill="white" fill-opacity="0.7"/>
<path d="M724.53 201.96L722.27 201.96L724.22 196.82L719.30 184.44L721.62 184.44L724.74 192.60Q724.94 193.08 725.10 193.61Q725.27 194.14 725.34 194.52Q725.42 194.14 725.58 193.61Q725.75 193.08 725.92 192.60L728.82 184.44L731.10 184.44" fill="white" fill-opacity="0.7"/>
<path d="M735.86 197.64L733.84 197.64L733.84 184.44L735.71 184.44L735.71 186.19L735.76 186.19Q735.88 185.30 736.47 184.75Q737.06 184.20 737.97 184.20Q738.83 184.20 739.43 184.70Q740.03 185.21 740.30 186.07L740.32 186.07Q740.49 185.21 741.08 184.70Q741.66 184.20 742.58 184.20Q743.85 184.20 744.60 185.15Q745.36 186.10 745.36 187.61L745.36 197.64L743.34 197.64L743.34 187.58Q743.34 186.79 742.96 186.32Q742.58 185.86 741.90 185.86Q741.26 185.86 740.87 186.31Q740.49 186.77 740.49 187.56L740.49 197.64L738.71 197.64L738.71 187.58Q738.71 186.79 738.33 186.32Q737.94 185.86 737.30 185.86Q736.62 185.86 736.24 186.31Q735.86 186.77 735.86 187.56" fill="white" fill-opacity="0.7"/>
<path d="M754 197.88Q751.67 197.88 750.24 196.48Q748.82 195.07 748.82 192.60L748.82 189.48Q748.82 187.01 750.24 185.60Q751.67 184.20 754 184.20Q755.56 184.20 756.72 184.82Q757.89 185.45 758.54 186.58Q759.18 187.70 759.18 189.24L759.18 191.59L750.93 191.59L750.93 192.84Q750.93 194.30 751.77 195.16Q752.61 196.01 754 196.01Q755.20 196.01 755.98 195.54Q756.76 195.07 756.93 194.28L759.09 194.28Q758.87 195.94 757.48 196.91Q756.09 197.88 754 197.88M750.93 189.24L750.93 189.91L757.07 189.91L757.07 189.24Q757.07 187.68 756.27 186.83Q755.46 185.98 754 185.98Q752.54 185.98 751.73 186.83Q750.93 187.68 750.93 189.24" fill="white" fill-opacity="0.7"/>
<path d="M765.57 197.64L763.41 197.64L763.41 184.44L765.57 184.44L765.57 186.96L765.59 186.96Q765.76 185.64 766.67 184.92Q767.58 184.20 769.10 184.20Q771.09 184.20 772.26 185.42Q773.44 186.65 773.44 188.76L773.44 197.64L771.28 197.64L771.28 189.14Q771.28 187.63 770.52 186.83Q769.77 186.02 768.47 186.02Q767.13 186.02 766.35 186.86Q765.57 187.70 765.57 189.24" fill="white" fill-opacity="0.7"/>
<path d="M787.96 197.64L784.12 197.64Q782.49 197.64 781.50 196.69Q780.52 195.74 780.52 194.16L780.52 186.41L776.73 186.41L776.73 184.44L780.52 184.44L780.52 180.72L782.68 180.72L782.68 184.44L788.08 184.44L788.08 186.41L782.68 186.41L782.68 194.16Q782.68 194.83 783.08 195.25Q783.47 195.67 784.12 195.67L787.96 195.67" fill="white" fill-opacity="0.7"/>
<path d="M810.83 197.88Q808.86 197.88 807.68 196.56Q806.49 195.24 806.49 192.98L806.49 189.12Q806.49 186.84 807.66 185.52Q808.84 184.20 810.83 184.20Q812.32 184.20 813.29 184.94Q814.26 185.69 814.46 186.96L814.48 186.96L814.43 183.96L814.43 180.12L816.59 180.12L816.59 197.64L814.43 197.64L814.43 195.12L814.41 195.12Q814.24 196.42 813.28 197.15Q812.32 197.88 810.83 197.88M811.55 196.01Q812.90 196.01 813.66 195.17Q814.43 194.33 814.43 192.84L814.43 189.24Q814.43 187.75 813.66 186.91Q812.90 186.07 811.55 186.07Q810.18 186.07 809.42 186.78Q808.65 187.49 808.65 189.12L808.65 192.96Q808.65 194.57 809.42 195.29Q810.18 196.01 811.55 196.01" fill="white" fill-opacity="0.7"/>
<path d="M826 197.88Q823.67 197.88 822.24 196.48Q820.82 195.07 820.82 192.60L820.82 189.48Q820.82 187.01 822.24 185.60Q823.67 184.20 826 184.20Q827.56 184.20 828.72 184.82Q829.89 185.45 830.54 186.58Q831.18 187.70 831.18 189.24L831.18 191.59L822.93 191.59L822.93 192.84Q822.93 194.30 823.77 195.16Q824.61 196.01 826 196.01Q827.20 196.01 827.98 195.54Q828.76 195.07 828.93 194.28L831.09 194.28Q830.87 195.94 829.48 196.91Q828.09 197.88 826 197.88M822.93 189.24L822.93 189.91L829.07 189.91L829.07 189.24Q829.07 187.68 828.27 186.83Q827.46 185.98 826 185.98Q824.54 185.98 823.73 186.83Q822.93 187.68 822.93 189.24" fill="white" fill-opacity="0.7"/>
<path d="M845.56 197.64L841.72 197.64Q840.09 197.64 839.10 196.69Q838.12 195.74 838.12 194.16L838.12 186.41L834.33 186.41L834.33 184.44L838.12 184.44L838.12 180.72L840.28 180.72L840.28 184.44L845.68 184.44L845.68 186.41L840.28 186.41L840.28 194.16Q840.28 194.83 840.68 195.25Q841.07 195.67 841.72 195.67L845.56 195.67" fill="white" fill-opacity="0.7"/>
<path d="M853.65 197.88Q851.61 197.88 850.41 196.74Q849.21 195.60 849.21 193.75Q849.21 192.53 849.76 191.62Q850.31 190.70 851.30 190.19Q852.28 189.67 853.55 189.67L857.63 189.67L857.63 188.64Q857.63 186.07 854.82 186.07Q853.58 186.07 852.81 186.53Q852.04 186.98 851.99 187.80L849.83 187.80Q849.95 186.24 851.28 185.22Q852.62 184.20 854.82 184.20Q857.22 184.20 858.51 185.35Q859.79 186.50 859.79 188.57L859.79 197.64L857.66 197.64L857.66 195.24L857.61 195.24Q857.42 196.46 856.38 197.17Q855.35 197.88 853.65 197.88M854.18 196.06Q855.76 196.06 856.70 195.29Q857.63 194.52 857.63 193.20L857.63 191.35L853.79 191.35Q852.74 191.35 852.08 191.99Q851.42 192.62 851.42 193.68Q851.42 194.78 852.15 195.42Q852.88 196.06 854.18 196.06" fill="white" fill-opacity="0.7"/>
<path d="M875.32 197.64L864.04 197.64L864.04 195.67L868.72 195.67L868.72 186.41L864.52 186.41L864.52 184.44L870.88 184.44L870.88 195.67L875.32 195.67L875.32 197.64M869.56 182.06Q868.77 182.06 868.31 181.66Q867.86 181.25 867.86 180.55Q867.86 179.83 868.31 179.41Q868.77 178.99 869.56 178.99Q870.35 178.99 870.81 179.41Q871.26 179.83 871.26 180.55Q871.26 181.25 870.81 181.66Q870.35 182.06 869.56 182.06" fill="white" fill-opacity="0.7"/>
<path d="M889.60 197.64L885.52 197.64Q883.77 197.64 882.72 196.62Q881.68 195.60 881.68 193.92L881.68 182.09L877.12 182.09L877.12 180.12L883.84 180.12L883.84 193.92Q883.84 194.74 884.30 195.20Q884.75 195.67 885.52 195.67L889.60 195.67" fill="white" fill-opacity="0.7"/>
<path d="M898.53 197.83L897.47 197.83Q895.26 197.83 894.05 196.84Q892.84 195.84 892.84 194.02L895 194.02Q895 194.93 895.65 195.44Q896.30 195.96 897.47 195.96L898.53 195.96Q899.73 195.96 900.39 195.43Q901.05 194.90 901.05 193.94Q901.05 192.24 899.49 192.02L895.84 191.50Q894.50 191.30 893.75 190.38Q893.01 189.46 893.01 187.94Q893.01 186.22 894.20 185.23Q895.38 184.25 897.47 184.25L898.53 184.25Q900.45 184.25 901.66 185.20Q902.87 186.14 902.97 187.68L900.78 187.68Q900.74 186.98 900.12 186.53Q899.51 186.07 898.53 186.07L897.47 186.07Q896.37 186.07 895.74 186.58Q895.12 187.08 895.12 187.94Q895.12 189.34 896.39 189.53L899.80 190.01Q903.16 190.49 903.16 193.94Q903.16 195.79 901.95 196.81Q900.74 197.83 898.53 197.83" fill="white" fill-opacity="0.7"/>
<path d="M912.40 197.88Q911.51 197.88 910.97 197.35Q910.43 196.82 910.43 195.98Q910.43 195.10 910.97 194.54Q911.51 193.99 912.40 193.99Q913.29 193.99 913.83 194.54Q914.37 195.10 914.37 195.98Q914.37 196.82 913.83 197.35Q913.29 197.88 912.40 197.88" fill="white" fill-opacity="0.7"/>
<path d="M942.28 197.64L940.12 197.64L940.12 182.09L935.32 182.09L935.32 180.12L947.08 180.12L947.08 182.09L942.28 182.09" fill="white" fill-opacity="0.7"/>
<path d="M955.60 197.83Q953.22 197.83 951.82 196.44Q950.42 195.05 950.42 192.55L950.42 189.53Q950.42 187.01 951.81 185.63Q953.20 184.25 955.60 184.25Q958 184.25 959.39 185.63Q960.78 187.01 960.78 189.53L960.78 192.55Q960.78 195.05 959.38 196.44Q957.98 197.83 955.60 197.83M955.60 195.91Q957.02 195.91 957.82 195.12Q958.62 194.33 958.62 192.79L958.62 189.29Q958.62 187.75 957.82 186.96Q957.02 186.17 955.60 186.17Q954.21 186.17 953.39 186.96Q952.58 187.75 952.58 189.29L952.58 192.79Q952.58 194.33 953.39 195.12Q954.21 195.91 955.60 195.91" fill="white" fill-opacity="0.7"/>
<path d="M967.29 197.64L965.13 197.64L965.13 180.12L967.29 180.12L967.29 189.89L969.81 189.89L973.50 184.44L975.98 184.44L971.73 190.73L976.22 197.64L973.70 197.64L969.86 191.76L967.29 191.76" fill="white" fill-opacity="0.7"/>
<path d="M984.40 197.88Q982.07 197.88 980.64 196.48Q979.22 195.07 979.22 192.60L979.22 189.48Q979.22 187.01 980.64 185.60Q982.07 184.20 984.40 184.20Q985.96 184.20 987.12 184.82Q988.29 185.45 988.94 186.58Q989.58 187.70 989.58 189.24L989.58 191.59L981.33 191.59L981.33 192.84Q981.33 194.30 982.17 195.16Q983.01 196.01 984.40 196.01Q985.60 196.01 986.38 195.54Q987.16 195.07 987.33 194.28L989.49 194.28Q989.27 195.94 987.88 196.91Q986.49 197.88 984.40 197.88M981.33 189.24L981.33 189.91L987.47 189.91L987.47 189.24Q987.47 187.68 986.67 186.83Q985.86 185.98 984.40 185.98Q982.94 185.98 982.13 186.83Q981.33 187.68 981.33 189.24" fill="white" fill-opacity="0.7"/>
<path d="M995.97 197.64L993.81 197.64L993.81 184.44L995.97 184.44L995.97 186.96L995.99 186.96Q996.16 185.64 997.07 184.92Q997.98 184.20 999.50 184.20Q1001.49 184.20 1002.66 185.42Q1003.84 186.65 1003.84 188.76L1003.84 197.64L1001.68 197.64L1001.68 189.14Q1001.68 187.63 1000.92 186.83Q1000.17 186.02 998.87 186.02Q997.53 186.02 996.75 186.86Q995.97 187.70 995.97 189.24" fill="white" fill-opacity="0.7"/>
<path d="M1013.73 197.83L1012.67 197.83Q1010.46 197.83 1009.25 196.84Q1008.04 195.84 1008.04 194.02L1010.20 194.02Q1010.20 194.93 1010.85 195.44Q1011.50 195.96 1012.67 195.96L1013.73 195.96Q1014.93 195.96 1015.59 195.43Q1016.25 194.90 1016.25 193.94Q1016.25 192.24 1014.69 192.02L1011.04 191.50Q1009.70 191.30 1008.95 190.38Q1008.21 189.46 1008.21 187.94Q1008.21 186.22 1009.40 185.23Q1010.58 184.25 1012.67 184.25L1013.73 184.25Q1015.65 184.25 1016.86 185.20Q1018.07 186.14 1018.17 187.68L1015.98 187.68Q1015.94 186.98 1015.32 186.53Q1014.71 186.07 1013.73 186.07L1012.67 186.07Q1011.57 186.07 1010.94 186.58Q1010.32 187.08 1010.32 187.94Q1010.32 189.34 1011.59 189.53L1015 190.01Q1018.36 190.49 1018.36 193.94Q1018.36 195.79 1017.15 196.81Q1015.94 197.83 1013.73 197.83" fill="white" fill-opacity="0.7"/>
<path d="M1039.65 197.64L1037.49 197.64L1037.49 184.44L1039.65 184.44L1039.65 186.96L1039.70 186.96Q1039.86 185.69 1040.78 184.94Q1041.69 184.20 1043.22 184.20Q1045.29 184.20 1046.40 185.44Q1047.52 186.67 1047.52 188.95L1047.52 190.08L1045.36 190.08L1045.36 188.95Q1045.36 186.07 1042.55 186.07Q1041.14 186.07 1040.39 186.89Q1039.65 187.70 1039.65 189.24" fill="white" fill-opacity="0.7"/>
<path d="M1056.40 197.88Q1054.07 197.88 1052.64 196.48Q1051.22 195.07 1051.22 192.60L1051.22 189.48Q1051.22 187.01 1052.64 185.60Q1054.07 184.20 1056.40 184.20Q1057.96 184.20 1059.12 184.82Q1060.29 185.45 1060.94 186.58Q1061.58 187.70 1061.58 189.24L1061.58 191.59L1053.33 191.59L1053.33 192.84Q1053.33 194.30 1054.17 195.16Q1055.01 196.01 1056.40 196.01Q1057.60 196.01 1058.38 195.54Q1059.16 195.07 1059.33 194.28L1061.49 194.28Q1061.27 195.94 1059.88 196.91Q1058.49 197.88 1056.40 197.88M1053.33 189.24L1053.33 189.91L1059.47 189.91L1059.47 189.24Q1059.47 187.68 1058.67 186.83Q1057.86 185.98 1056.40 185.98Q1054.94 185.98 1054.13 186.83Q1053.33 187.68 1053.33 189.24" fill="white" fill-opacity="0.7"/>
<path d="M1075.79 201.96L1073.63 201.96L1073.63 198.12L1073.68 195.12L1073.61 195.12Q1073.44 196.39 1072.48 197.14Q1071.52 197.88 1070.03 197.88Q1068.04 197.88 1066.86 196.56Q1065.69 195.24 1065.69 192.96L1065.69 189.10Q1065.69 186.82 1066.88 185.51Q1068.06 184.20 1070.03 184.20Q1071.52 184.20 1072.48 184.93Q1073.44 185.66 1073.61 186.96L1073.63 186.96L1073.63 184.44L1075.79 184.44L1075.79 201.96M1070.75 196.01Q1072.10 196.01 1072.86 195.17Q1073.63 194.33 1073.63 192.84L1073.63 189.24Q1073.63 187.75 1072.86 186.91Q1072.10 186.07 1070.75 186.07Q1069.38 186.07 1068.62 186.77Q1067.85 187.46 1067.85 189L1067.85 193.08Q1067.85 194.62 1068.62 195.31Q1069.38 196.01 1070.75 196.01" fill="white" fill-opacity="0.7"/>
<path d="M1085.18 197.88Q1082.90 197.88 1081.53 196.52Q1080.16 195.17 1080.16 192.84L1080.16 184.44L1082.32 184.44L1082.32 192.84Q1082.32 194.28 1083.09 195.13Q1083.86 195.98 1085.18 195.98Q1086.52 195.98 1087.30 195.13Q1088.08 194.28 1088.08 192.84L1088.08 184.44L1090.24 184.44L1090.24 192.84Q1090.24 195.17 1088.85 196.52Q1087.46 197.88 1085.18 197.88" fill="white" fill-opacity="0.7"/>
<path d="M1105.72 197.64L1094.44 197.64L1094.44 195.67L1099.12 195.67L1099.12 186.41L1094.92 186.41L1094.92 184.44L1101.28 184.44L1101.28 195.67L1105.72 195.67L1105.72 197.64M1099.96 182.06Q1099.17 182.06 1098.71 181.66Q1098.26 181.25 1098.26 180.55Q1098.26 179.83 1098.71 179.41Q1099.17 178.99 1099.96 178.99Q1100.75 178.99 1101.21 179.41Q1101.66 179.83 1101.66 180.55Q1101.66 181.25 1101.21 181.66Q1100.75 182.06 1099.96 182.06" fill="white" fill-opacity="0.7"/>
<path d="M1111.65 197.64L1109.49 197.64L1109.49 184.44L1111.65 184.44L1111.65 186.96L1111.70 186.96Q1111.86 185.69 1112.78 184.94Q1113.69 184.20 1115.22 184.20Q1117.29 184.20 1118.40 185.44Q1119.52 186.67 1119.52 188.95L1119.52 190.08L1117.36 190.08L1117.36 188.95Q1117.36 186.07 1114.55 186.07Q1113.14 186.07 1112.39 186.89Q1111.65 187.70 1111.65 189.24" fill="white" fill-opacity="0.7"/>
<path d="M1128.40 197.88Q1126.07 197.88 1124.64 196.48Q1123.22 195.07 1123.22 192.60L1123.22 189.48Q1123.22 187.01 1124.64 185.60Q1126.07 184.20 1128.40 184.20Q1129.96 184.20 1131.12 184.82Q1132.29 185.45 1132.94 186.58Q1133.58 187.70 1133.58 189.24L1133.58 191.59L1125.33 191.59L1125.33 192.84Q1125.33 194.30 1126.17 195.16Q1127.01 196.01 1128.40 196.01Q1129.60 196.01 1130.38 195.54Q1131.16 195.07 1131.33 194.28L1133.49 194.28Q1133.27 195.94 1131.88 196.91Q1130.49 197.88 1128.40 197.88M1125.33 189.24L1125.33 189.91L1131.47 189.91L1131.47 189.24Q1131.47 187.68 1130.67 186.83Q1129.86 185.98 1128.40 185.98Q1126.94 185.98 1126.13 186.83Q1125.33 187.68 1125.33 189.24" fill="white" fill-opacity="0.7"/>
<path d="M78.62 229.64L75.78 229.64L71.30 216.44L73.62 216.44L76.50 225.32Q76.77 226.11 76.96 226.84Q77.15 227.58 77.25 227.98Q77.37 227.58 77.54 226.84Q77.70 226.11 77.94 225.32L80.82 216.44L83.10 216.44" fill="white" fill-opacity="0.7"/>
<path d="M90.45 229.88Q88.41 229.88 87.21 228.74Q86.01 227.60 86.01 225.75Q86.01 224.53 86.56 223.62Q87.11 222.70 88.10 222.19Q89.08 221.67 90.35 221.67L94.43 221.67L94.43 220.64Q94.43 218.07 91.62 218.07Q90.38 218.07 89.61 218.53Q88.84 218.98 88.79 219.80L86.63 219.80Q86.75 218.24 88.08 217.22Q89.42 216.20 91.62 216.20Q94.02 216.20 95.31 217.35Q96.59 218.50 96.59 220.57L96.59 229.64L94.46 229.64L94.46 227.24L94.41 227.24Q94.22 228.46 93.18 229.17Q92.15 229.88 90.45 229.88M90.98 228.06Q92.56 228.06 93.50 227.29Q94.43 226.52 94.43 225.20L94.43 223.35L90.59 223.35Q89.54 223.35 88.88 223.99Q88.22 224.62 88.22 225.68Q88.22 226.78 88.95 227.42Q89.68 228.06 90.98 228.06" fill="white" fill-opacity="0.7"/>
<path d="MNaN 229.64L107.92 229.64Q106.17 229.64 105.12 228.62Q104.08 227.60 104.08 225.92L104.08 214.09L99.52 214.09L99.52 212.12L106.24 212.12L106.24 225.92Q106.24 226.74 106.70 227.20Q107.15 227.67 107.92 227.67LNaN 227.67" fill="white" fill-opacity="0.7"/>
<path d="M126.52 229.64L115.24 229.64L115.24 227.67L119.92 227.67L119.92 218.41L115.72 218.41L115.72 216.44L122.08 216.44L122.08 227.67L126.52 227.67L126.52 229.64M120.76 214.06Q119.97 214.06 119.51 213.66Q119.06 213.25 119.06 212.55Q119.06 211.83 119.51 211.41Q119.97 210.99 120.76 210.99Q121.55 210.99 122.01 211.41Q122.46 211.83 122.46 212.55Q122.46 213.25 122.01 213.66Q121.55 214.06 120.76 214.06" fill="white" fill-opacity="0.7"/>
<path d="M134.03 229.88Q132.06 229.88 130.88 228.56Q129.69 227.24 129.69 224.98L129.69 221.12Q129.69 218.84 130.86 217.52Q132.04 216.20 134.03 216.20Q135.52 216.20 136.49 216.94Q137.46 217.69 137.66 218.96L137.68 218.96L137.63 215.96L137.63 212.12L139.79 212.12L139.79 229.64L137.63 229.64L137.63 227.12L137.61 227.12Q137.44 228.42 136.48 229.15Q135.52 229.88 134.03 229.88M134.75 228.01Q136.10 228.01 136.86 227.17Q137.63 226.33 137.63 224.84L137.63 221.24Q137.63 219.75 136.86 218.91Q136.10 218.07 134.75 218.07Q133.38 218.07 132.62 218.78Q131.85 219.49 131.85 221.12L131.85 224.96Q131.85 226.57 132.62 227.29Q133.38 228.01 134.75 228.01" fill="white" fill-opacity="0.7"/>
<path d="M148.05 229.88Q146.01 229.88 144.81 228.74Q143.61 227.60 143.61 225.75Q143.61 224.53 144.16 223.62Q144.71 222.70 145.70 222.19Q146.68 221.67 147.95 221.67L152.03 221.67L152.03 220.64Q152.03 218.07 149.22 218.07Q147.98 218.07 147.21 218.53Q146.44 218.98 146.39 219.80L144.23 219.80Q144.35 218.24 145.68 217.22Q147.02 216.20 149.22 216.20Q151.62 216.20 152.91 217.35Q154.19 218.50 154.19 220.57L154.19 229.64L152.06 229.64L152.06 227.24L152.01 227.24Q151.82 228.46 150.78 229.17Q149.75 229.88 148.05 229.88M148.58 228.06Q150.16 228.06 151.10 227.29Q152.03 226.52 152.03 225.20L152.03 223.35L148.19 223.35Q147.14 223.35 146.48 223.99Q145.82 224.62 145.82 225.68Q145.82 226.78 146.55 227.42Q147.28 228.06 148.58 228.06" fill="white" fill-opacity="0.7"/>
<path d="M168.76 229.64L164.92 229.64Q163.29 229.64 162.30 228.69Q161.32 227.74 161.32 226.16L161.32 218.41L157.53 218.41L157.53 216.44L161.32 216.44L161.32 212.72L163.48 212.72L163.48 216.44L168.88 216.44L168.88 218.41L163.48 218.41L163.48 226.16Q163.48 226.83 163.88 227.25Q164.27 227.67 164.92 227.67L168.76 227.67" fill="white" fill-opacity="0.7"/>
<path d="M184.12 229.64L172.84 229.64L172.84 227.67L177.52 227.67L177.52 218.41L173.32 218.41L173.32 216.44L179.68 216.44L179.68 227.67L184.12 227.67L184.12 229.64M178.36 214.06Q177.57 214.06 177.11 213.66Q176.66 213.25 176.66 212.55Q176.66 211.83 177.11 211.41Q177.57 210.99 178.36 210.99Q179.15 210.99 179.61 211.41Q180.06 211.83 180.06 212.55Q180.06 213.25 179.61 213.66Q179.15 214.06 178.36 214.06" fill="white" fill-opacity="0.7"/>
<path d="M192.40 229.83Q190.02 229.83 188.62 228.44Q187.22 227.05 187.22 224.55L187.22 221.53Q187.22 219.01 188.61 217.63QNaN 216.25 192.40 216.25Q194.80 216.25 196.19 217.63Q197.58 219.01 197.58 221.53L197.58 224.55Q197.58 227.05 196.18 228.44Q194.78 229.83 192.40 229.83M192.40 227.91Q193.82 227.91 194.62 227.12Q195.42 226.33 195.42 224.79L195.42 221.29Q195.42 219.75 194.62 218.96Q193.82 218.17 192.40 218.17Q191.01 218.17 190.19 218.96Q189.38 219.75 189.38 221.29L189.38 224.79Q189.38 226.33 190.19 227.12Q191.01 227.91 192.40 227.91" fill="white" fill-opacity="0.7"/>
<path d="M203.97 229.64L201.81 229.64L201.81 216.44L203.97 216.44L203.97 218.96L203.99 218.96Q204.16 217.64 205.07 216.92Q205.98 216.20 207.50 216.20Q209.49 216.20 210.66 217.42Q211.84 218.65 211.84 220.76L211.84 229.64L209.68 229.64L209.68 221.14Q209.68 219.63 208.92 218.83Q208.17 218.02 206.87 218.02Q205.53 218.02 204.75 218.86Q203.97 219.70 203.97 221.24" fill="white" fill-opacity="0.7"/>
<path d="M234.83 229.88Q232.86 229.88 231.68 228.56Q230.49 227.24 230.49 224.98L230.49 221.12Q230.49 218.84 231.66 217.52Q232.84 216.20 234.83 216.20Q236.32 216.20 237.29 216.94Q238.26 217.69 238.46 218.96L238.48 218.96L238.43 215.96L238.43 212.12L240.59 212.12L240.59 229.64L238.43 229.64L238.43 227.12L238.41 227.12Q238.24 228.42 237.28 229.15Q236.32 229.88 234.83 229.88M235.55 228.01Q236.90 228.01 237.66 227.17Q238.43 226.33 238.43 224.84L238.43 221.24Q238.43 219.75 237.66 218.91Q236.90 218.07 235.55 218.07Q234.18 218.07 233.42 218.78Q232.65 219.49 232.65 221.12L232.65 224.96Q232.65 226.57 233.42 227.29Q234.18 228.01 235.55 228.01" fill="white" fill-opacity="0.7"/>
<path d="M249.98 229.88Q247.70 229.88 246.33 228.52Q244.96 227.17 244.96 224.84L244.96 216.44L247.12 216.44L247.12 224.84Q247.12 226.28 247.89 227.13Q248.66 227.98 249.98 227.98Q251.32 227.98 252.10 227.13Q252.88 226.28 252.88 224.84L252.88 216.44L255.04 216.44L255.04 224.84Q255.04 227.17 253.65 228.52Q252.26 229.88 249.98 229.88" fill="white" fill-opacity="0.7"/>
<path d="M262.05 229.64L259.89 229.64L259.89 216.44L262.05 216.44L262.05 218.96L262.10 218.96Q262.26 217.69 263.18 216.94Q264.09 216.20 265.62 216.20Q267.69 216.20 268.80 217.44Q269.92 218.67 269.92 220.95L269.92 222.08L267.76 222.08L267.76 220.95Q267.76 218.07 264.95 218.07Q263.54 218.07 262.79 218.89Q262.05 219.70 262.05 221.24" fill="white" fill-opacity="0.7"/>
<path d="M284.92 229.64L273.64 229.64L273.64 227.67L278.32 227.67L278.32 218.41L274.12 218.41L274.12 216.44L280.48 216.44L280.48 227.67L284.92 227.67L284.92 229.64M279.16 214.06Q278.37 214.06 277.91 213.66Q277.46 213.25 277.46 212.55Q277.46 211.83 277.91 211.41Q278.37 210.99 279.16 210.99Q279.95 210.99 280.41 211.41Q280.86 211.83 280.86 212.55Q280.86 213.25 280.41 213.66Q279.95 214.06 279.16 214.06" fill="white" fill-opacity="0.7"/>
<path d="M290.37 229.64L288.21 229.64L288.21 216.44L290.37 216.44L290.37 218.96L290.39 218.96Q290.56 217.64 291.47 216.92Q292.38 216.20 293.90 216.20Q295.89 216.20 297.06 217.42Q298.24 218.65 298.24 220.76L298.24 229.64L296.08 229.64L296.08 221.14Q296.08 219.63 295.32 218.83Q294.57 218.02 293.27 218.02Q291.93 218.02 291.15 218.86Q290.37 219.70 290.37 221.24" fill="white" fill-opacity="0.7"/>
<path d="M307.96 233.96L304.26 233.96L304.26 231.99L307.98 231.99Q309.11 231.99 309.76 231.36Q310.41 230.72 310.41 229.64L310.41 228.44L310.46 226.28L310.38 226.28Q310.19 227.46 309.26 228.09Q308.32 228.73 306.90 228.73Q304.86 228.73 303.69 227.43Q302.51 226.14 302.51 223.88L302.51 221.10Q302.51 218.84 303.69 217.52Q304.86 216.20 306.90 216.20Q308.32 216.20 309.26 216.87Q310.19 217.54 310.38 218.72L310.43 218.72L310.43 216.44L312.57 216.44L312.57 229.64Q312.57 231.63 311.33 232.80Q310.10 233.96 307.96 233.96M307.55 226.93Q308.90 226.93 309.66 226.09Q310.43 225.25 310.43 223.76L310.43 221.24Q310.43 219.75 309.66 218.91Q308.90 218.07 307.55 218.07Q306.18 218.07 305.43 218.86Q304.67 219.66 304.67 221L304.67 224Q304.67 225.34 305.43 226.14Q306.18 226.93 307.55 226.93" fill="white" fill-opacity="0.7"/>
<path d="M333.57 233.96L331.41 233.96L331.41 216.44L333.57 216.44L333.57 218.96L333.59 218.96Q333.76 217.66 334.72 216.93Q335.68 216.20 337.17 216.20Q339.16 216.20 340.34 217.51Q341.51 218.82 341.51 221.10L341.51 224.96Q341.51 227.24 340.34 228.56Q339.16 229.88 337.17 229.88Q335.68 229.88 334.72 229.14Q333.76 228.39 333.59 227.12L333.52 227.12L333.57 230.12L333.57 233.96M336.45 228.01Q337.82 228.01 338.58 227.29Q339.35 226.57 339.35 224.96L339.35 221.12Q339.35 219.49 338.58 218.78Q337.82 218.07 336.45 218.07Q335.13 218.07 334.35 218.91Q333.57 219.75 333.57 221.24L333.57 224.84Q333.57 226.33 334.35 227.17Q335.13 228.01 336.45 228.01" fill="white" fill-opacity="0.7"/>
<path d="M349.65 229.88Q347.61 229.88 346.41 228.74Q345.21 227.60 345.21 225.75Q345.21 224.53 345.76 223.62Q346.31 222.70 347.30 222.19Q348.28 221.67 349.55 221.67L353.63 221.67L353.63 220.64Q353.63 218.07 350.82 218.07Q349.58 218.07 348.81 218.53Q348.04 218.98 347.99 219.80L345.83 219.80Q345.95 218.24 347.28 217.22Q348.62 216.20 350.82 216.20Q353.22 216.20 354.51 217.35Q355.79 218.50 355.79 220.57L355.79 229.64L353.66 229.64L353.66 227.24L353.61 227.24Q353.42 228.46 352.38 229.17Q351.35 229.88 349.65 229.88M350.18 228.06Q351.76 228.06 352.70 227.29Q353.63 226.52 353.63 225.20L353.63 223.35L349.79 223.35Q348.74 223.35 348.08 223.99Q347.42 224.62 347.42 225.68Q347.42 226.78 348.15 227.42Q348.88 228.06 350.18 228.06" fill="white" fill-opacity="0.7"/>
<path d="M364.53 233.96L362.27 233.96L364.22 228.82L359.30 216.44L361.62 216.44L364.74 224.60Q364.94 225.08 365.10 225.61Q365.27 226.14 365.34 226.52Q365.42 226.14 365.58 225.61Q365.75 225.08 365.92 224.60L368.82 216.44L371.10 216.44" fill="white" fill-opacity="0.7"/>
<path d="M375.86 229.64L373.84 229.64L373.84 216.44L375.71 216.44L375.71 218.19L375.76 218.19Q375.88 217.30 376.47 216.75Q377.06 216.20 377.97 216.20Q378.83 216.20 379.43 216.70Q380.03 217.21 380.30 218.07L380.32 218.07Q380.49 217.21 381.08 216.70Q381.66 216.20 382.58 216.20Q383.85 216.20 384.60 217.15Q385.36 218.10 385.36 219.61L385.36 229.64L383.34 229.64L383.34 219.58Q383.34 218.79 382.96 218.32Q382.58 217.86 381.90 217.86Q381.26 217.86 380.87 218.31Q380.49 218.77 380.49 219.56L380.49 229.64L378.71 229.64L378.71 219.58Q378.71 218.79 378.33 218.32Q377.94 217.86 377.30 217.86Q376.62 217.86 376.24 218.31Q375.86 218.77 375.86 219.56" fill="white" fill-opacity="0.7"/>
<path d="M394 229.88Q391.67 229.88 390.24 228.48Q388.82 227.07 388.82 224.60L388.82 221.48Q388.82 219.01 390.24 217.60Q391.67 216.20 394 216.20Q395.56 216.20 396.72 216.82Q397.89 217.45 398.54 218.58Q399.18 219.70 399.18 221.24L399.18 223.59L390.93 223.59L390.93 224.84Q390.93 226.30 391.77 227.16Q392.61 228.01 394 228.01Q395.20 228.01 395.98 227.54Q396.76 227.07 396.93 226.28L399.09 226.28Q398.87 227.94 397.48 228.91Q396.09 229.88 394 229.88M390.93 221.24L390.93 221.91L397.07 221.91L397.07 221.24Q397.07 219.68 396.27 218.83Q395.46 217.98 394 217.98Q392.54 217.98 391.73 218.83Q390.93 219.68 390.93 221.24" fill="white" fill-opacity="0.7"/>
<path d="M405.57 229.64L403.41 229.64L403.41 216.44L405.57 216.44L405.57 218.96L405.59 218.96Q405.76 217.64 406.67 216.92Q407.58 216.20 409.10 216.20Q411.09 216.20 412.26 217.42Q413.44 218.65 413.44 220.76L413.44 229.64L411.28 229.64L411.28 221.14Q411.28 219.63 410.52 218.83Q409.77 218.02 408.47 218.02Q407.13 218.02 406.35 218.86Q405.57 219.70 405.57 221.24" fill="white" fill-opacity="0.7"/>
<path d="M427.96 229.64L424.12 229.64Q422.49 229.64 421.50 228.69Q420.52 227.74 420.52 226.16L420.52 218.41L416.73 218.41L416.73 216.44L420.52 216.44L420.52 212.72L422.68 212.72L422.68 216.44L428.08 216.44L428.08 218.41L422.68 218.41L422.68 226.16Q422.68 226.83 423.08 227.25Q423.47 227.67 424.12 227.67L427.96 227.67" fill="white" fill-opacity="0.7"/>
<path d="M449.25 229.64L447.09 229.64L447.09 216.44L449.25 216.44L449.25 218.96L449.30 218.96Q449.46 217.69 450.38 216.94Q451.29 216.20 452.82 216.20Q454.89 216.20 456 217.44Q457.12 218.67 457.12 220.95L457.12 222.08L454.96 222.08L454.96 220.95Q454.96 218.07 452.15 218.07Q450.74 218.07 449.99 218.89Q449.25 219.70 449.25 221.24" fill="white" fill-opacity="0.7"/>
<path d="M466 229.88Q463.67 229.88 462.24 228.48Q460.82 227.07 460.82 224.60L460.82 221.48Q460.82 219.01 462.24 217.60Q463.67 216.20 466 216.20Q467.56 216.20 468.72 216.82Q469.89 217.45 470.54 218.58Q471.18 219.70 471.18 221.24L471.18 223.59L462.93 223.59L462.93 224.84Q462.93 226.30 463.77 227.16Q464.61 228.01 466 228.01Q467.20 228.01 467.98 227.54Q468.76 227.07 468.93 226.28L471.09 226.28Q470.87 227.94 469.48 228.91Q468.09 229.88 466 229.88M462.93 221.24L462.93 221.91L469.07 221.91L469.07 221.24Q469.07 219.68 468.27 218.83Q467.46 217.98 466 217.98Q464.54 217.98 463.73 218.83Q462.93 219.68 462.93 221.24" fill="white" fill-opacity="0.7"/>
<path d="M485.39 233.96L483.23 233.96L483.23 230.12L483.28 227.12L483.21 227.12Q483.04 228.39 482.08 229.14Q481.12 229.88 479.63 229.88Q477.64 229.88 476.46 228.56Q475.29 227.24 475.29 224.96L475.29 221.10Q475.29 218.82 476.48 217.51Q477.66 216.20 479.63 216.20Q481.12 216.20 482.08 216.93Q483.04 217.66 483.21 218.96L483.23 218.96L483.23 216.44L485.39 216.44L485.39 233.96M480.35 228.01Q481.70 228.01 482.46 227.17Q483.23 226.33 483.23 224.84L483.23 221.24Q483.23 219.75 482.46 218.91Q481.70 218.07 480.35 218.07Q478.98 218.07 478.22 218.77Q477.45 219.46 477.45 221L477.45 225.08Q477.45 226.62 478.22 227.31Q478.98 228.01 480.35 228.01" fill="white" fill-opacity="0.7"/>
<path d="M494.78 229.88Q492.50 229.88 491.13 228.52Q489.76 227.17 489.76 224.84L489.76 216.44L491.92 216.44L491.92 224.84Q491.92 226.28 492.69 227.13Q493.46 227.98 494.78 227.98Q496.12 227.98 496.90 227.13Q497.68 226.28 497.68 224.84L497.68 216.44L499.84 216.44L499.84 224.84Q499.84 227.17 498.45 228.52Q497.06 229.88 494.78 229.88" fill="white" fill-opacity="0.7"/>
<path d="M509.20 229.88Q506.87 229.88 505.44 228.48Q504.02 227.07 504.02 224.60L504.02 221.48Q504.02 219.01 505.44 217.60Q506.87 216.20 509.20 216.20Q510.76 216.20 511.92 216.82Q513.09 217.45 513.74 218.58Q514.38 219.70 514.38 221.24L514.38 223.59L506.13 223.59L506.13 224.84Q506.13 226.30 506.97 227.16Q507.81 228.01 509.20 228.01Q510.40 228.01 511.18 227.54Q511.96 227.07 512.13 226.28L514.29 226.28Q514.07 227.94 512.68 228.91Q511.29 229.88 509.20 229.88M506.13 221.24L506.13 221.91L512.27 221.91L512.27 221.24Q512.27 219.68 511.47 218.83Q510.66 217.98 509.20 217.98Q507.74 217.98 506.93 218.83Q506.13 219.68 506.13 221.24" fill="white" fill-opacity="0.7"/>
<path d="M524.13 229.83L523.07 229.83Q520.86 229.83 519.65 228.84Q518.44 227.84 518.44 226.02L520.60 226.02Q520.60 226.93 521.25 227.44Q521.90 227.96 523.07 227.96L524.13 227.96Q525.33 227.96 525.99 227.43Q526.65 226.90 526.65 225.94Q526.65 224.24 525.09 224.02L521.44 223.50Q520.10 223.30 519.35 222.38Q518.61 221.46 518.61 219.94Q518.61 218.22 519.80 217.23Q520.98 216.25 523.07 216.25L524.13 216.25Q526.05 216.25 527.26 217.20Q528.47 218.14 528.57 219.68L526.38 219.68Q526.34 218.98 525.72 218.53Q525.11 218.07 524.13 218.07L523.07 218.07Q521.97 218.07 521.34 218.58Q520.72 219.08 520.72 219.94Q520.72 221.34 521.99 221.53L525.40 222.01Q528.76 222.49 528.76 225.94Q528.76 227.79 527.55 228.81Q526.34 229.83 524.13 229.83" fill="white" fill-opacity="0.7"/>
<path d="M543.16 229.64L539.32 229.64Q537.69 229.64 536.70 228.69Q535.72 227.74 535.72 226.16L535.72 218.41L531.93 218.41L531.93 216.44L535.72 216.44L535.72 212.72L537.88 212.72L537.88 216.44L543.28 216.44L543.28 218.41L537.88 218.41L537.88 226.16Q537.88 226.83 538.28 227.25Q538.67 227.67 539.32 227.67L543.16 227.67" fill="white" fill-opacity="0.7"/>
<path d="M552.93 229.83L551.87 229.83Q549.66 229.83 548.45 228.84Q547.24 227.84 547.24 226.02L549.40 226.02Q549.40 226.93 550.05 227.44Q550.70 227.96 551.87 227.96L552.93 227.96Q554.13 227.96 554.79 227.43Q555.45 226.90 555.45 225.94Q555.45 224.24 553.89 224.02L550.24 223.50Q548.90 223.30 548.15 222.38Q547.41 221.46 547.41 219.94Q547.41 218.22 548.60 217.23Q549.78 216.25 551.87 216.25L552.93 216.25Q554.85 216.25 556.06 217.20Q557.27 218.14 557.37 219.68L555.18 219.68Q555.14 218.98 554.52 218.53Q553.91 218.07 552.93 218.07L551.87 218.07Q550.77 218.07 550.14 218.58Q549.52 219.08 549.52 219.94Q549.52 221.34 550.79 221.53L554.20 222.01Q557.56 222.49 557.56 225.94Q557.56 227.79 556.35 228.81Q555.14 229.83 552.93 229.83" fill="white" fill-opacity="0.7"/>
<path d="M566.80 229.88Q565.91 229.88 565.37 229.35Q564.83 228.82 564.83 227.98Q564.83 227.10 565.37 226.54Q565.91 225.99 566.80 225.99Q567.69 225.99 568.23 226.54Q568.77 227.10 568.77 227.98Q568.77 228.82 568.23 229.35Q567.69 229.88 566.80 229.88" fill="white" fill-opacity="0.7"/>
<path d="M76.11 136.06L66.42 136.06L84.56 65.98L97.14 65.98L115.18 136.06L105.49 136.06L101.07 117.82L80.53 117.82L76.11 136.06M87.54 88.92L82.45 109.95L99.15 109.95L94.16 89.02Q92.72 83.26 91.86 79.23Q90.99 75.20 90.80 73.76Q90.61 75.20 89.74 79.23Q88.88 83.26 87.54 88.92M146.86 136.06L128.05 136.06L128.05 65.98L146.86 65.98Q153.68 65.98 158.72 68.62Q163.76 71.26 166.54 76.01Q169.33 80.76 169.33 87.20L169.33 114.75Q169.33 121.18 166.54 125.98Q163.76 130.78 158.72 133.42Q153.68 136.06 146.86 136.06M137.55 74.43L137.55 127.61L146.86 127.61Q152.91 127.61 156.37 124.16Q159.82 120.70 159.82 114.75L159.82 87.20Q159.82 81.24 156.37 77.84Q152.91 74.43 146.86 74.43L137.55 74.43M210.80 136.06L201.30 136.06L201.30 110.04L180.27 65.98L190.35 65.98L203.31 93.63Q204.46 96.12 205.18 98.14Q205.90 100.16 206.10 101.02Q206.38 100.16 207.10 98.14Q207.82 96.12 209.07 93.63L221.94 65.98L231.73 65.98L210.80 110.04L210.80 136.06M284.91 136.06L244.11 136.06L244.11 65.98L284.91 65.98L284.91 74.52L253.52 74.52L253.52 95.36L281.55 95.36L281.55 103.61L253.52 103.61L253.52 127.52L284.91 127.52L284.91 136.06M309.58 136.06L300.66 136.06L300.66 65.98L312.94 65.98L333.87 125.12Q333.58 122.62 333.34 118.92Q333.10 115.23 332.96 111.24Q332.82 107.26 332.82 103.71L332.82 65.98L341.84 65.98L341.84 136.06L329.46 136.06L308.72 76.92Q308.91 79.42 309.10 83.02Q309.30 86.62 309.44 90.56Q309.58 94.49 309.58 97.95L309.58 136.06M425.55 136.06L416.14 136.06L416.14 65.98L437.84 65.98Q444.27 65.98 449.07 68.52Q453.87 71.07 456.56 75.63Q459.25 80.19 459.25 86.33Q459.25 93.44 455.65 98.52Q452.05 103.61 446.10 105.72L460.21 136.06L449.74 136.06L436.40 106.78L425.55 106.78L425.55 136.06M425.55 74.43L425.55 98.33L437.84 98.33Q443.22 98.33 446.34 95.07Q449.46 91.80 449.46 86.43Q449.46 80.96 446.29 77.69Q443.12 74.43 437.84 74.43L425.55 74.43M515.31 136.06L474.51 136.06L474.51 65.98L515.31 65.98L515.31 74.52L483.92 74.52L483.92 95.36L511.95 95.36L511.95 103.61L483.92 103.61L483.92 127.52L515.31 127.52L515.31 136.06M552.37 137.02Q542.67 137.02 536.96 131.60Q531.25 126.17 531.25 116.67L531.25 85.28Q531.25 75.87 536.96 70.44Q542.67 65.02 552.37 65.02Q561.97 65.02 567.68 70.49Q573.39 75.96 573.39 85.28L563.89 85.28Q563.89 79.61 560.82 76.54Q557.74 73.47 552.37 73.47Q546.90 73.47 543.82 76.54Q540.75 79.61 540.75 85.28L540.75 116.67Q540.75 122.43 543.82 125.50Q546.90 128.57 552.37 128.57Q557.74 128.57 560.82 125.50Q563.89 122.43 563.89 116.67L573.39 116.67Q573.39 126.08 567.68 131.55Q561.97 137.02 552.37 137.02M609.20 137.02Q599.31 137.02 593.98 131.55Q588.66 126.08 588.66 116.67L588.66 65.98L598.16 65.98L598.16 116.67Q598.16 122.24 600.90 125.40Q603.63 128.57 609.20 128.57Q614.67 128.57 617.50 125.40Q620.34 122.24 620.34 116.67L620.34 65.98L629.84 65.98L629.84 116.67Q629.84 126.17 624.51 131.60Q619.18 137.02 609.20 137.02M655.95 136.06L646.54 136.06L646.54 65.98L668.24 65.98Q674.67 65.98 679.47 68.52Q684.27 71.07 686.96 75.63Q689.65 80.19 689.65 86.33Q689.65 93.44 686.05 98.52Q682.45 103.61 676.50 105.72L690.61 136.06L680.14 136.06L666.80 106.78L655.95 106.78L655.95 136.06M655.95 74.43L655.95 98.33L668.24 98.33Q673.62 98.33 676.74 95.07Q679.86 91.80 679.86 86.43Q679.86 80.96 676.69 77.69Q673.52 74.43 668.24 74.43L655.95 74.43M713.55 136.06L704.14 136.06L704.14 65.98L725.84 65.98Q732.27 65.98 737.07 68.52Q741.87 71.07 744.56 75.63Q747.25 80.19 747.25 86.33Q747.25 93.44 743.65 98.52Q740.05 103.61 734.10 105.72L748.21 136.06L737.74 136.06L724.40 106.78L713.55 106.78L713.55 136.06M713.55 74.43L713.55 98.33L725.84 98.33Q731.22 98.33 734.34 95.07Q737.46 91.80 737.46 86.43Q737.46 80.96 734.29 77.69Q731.12 74.43 725.84 74.43L713.55 74.43M801.10 136.06L762.90 136.06L762.90 127.42L777.20 127.42L777.20 74.62L762.90 74.62L762.90 65.98L801.10 65.98L801.10 74.62L786.80 74.62L786.80 127.42L801.10 127.42L801.10 136.06M827.98 136.06L819.06 136.06L819.06 65.98L831.34 65.98L852.27 125.12Q851.98 122.62 851.74 118.92Q851.50 115.23 851.36 111.24Q851.22 107.26 851.22 103.71L851.22 65.98L860.24 65.98L860.24 136.06L847.86 136.06L827.12 76.92Q827.31 79.42 827.50 83.02Q827.70 86.62 827.84 90.56Q827.98 94.49 827.98 97.95L827.98 136.06M897.58 137.02Q887.89 137.02 882.18 131.60Q876.46 126.17 876.46 116.67L876.46 85.28Q876.46 75.87 882.18 70.44Q887.89 65.02 897.58 65.02Q907.18 65.02 912.90 70.49Q918.61 75.96 918.61 85.28L909.10 85.28Q909.10 79.61 906.03 76.54Q902.96 73.47 897.58 73.47Q892.11 73.47 889.04 76.54Q885.97 79.61 885.97 85.28L885.97 116.67Q885.97 122.43 889.04 125.50Q892.11 128.57 897.58 128.57Q902.96 128.57 906.03 125.50Q909.10 122.43 909.10 116.67L909.10 107.55L895.47 107.55L895.47 99.10L918.61 99.10L918.61 116.67Q918.61 126.08 912.90 131.55Q907.18 137.02 897.58 137.02M955.18 137.02Q944.82 137.02 938.67 131.60Q932.53 126.17 932.53 116.67L942.03 116.67Q942.03 122.24 945.58 125.40Q949.14 128.57 955.18 128.57Q960.94 128.57 964.35 125.36Q967.76 122.14 967.76 116.76Q967.76 112.73 965.55 109.71Q963.34 106.68 959.31 105.63L948.94 102.84Q942.13 100.92 938.14 95.88Q934.16 90.84 934.16 83.93Q934.16 78.27 936.70 74Q939.25 69.72 943.86 67.37Q948.46 65.02 954.51 65.02Q960.66 65.02 965.31 67.37Q969.97 69.72 972.56 73.95Q975.15 78.17 975.15 83.74L965.74 83.74Q965.74 79.13 962.62 76.25Q959.50 73.37 954.51 73.37Q949.52 73.37 946.50 76.25Q943.47 79.13 943.47 83.74Q943.47 87.48 945.49 90.03Q947.50 92.57 951.15 93.63L961.81 96.51Q969.01 98.43 973.04 103.85Q977.07 109.28 977.07 116.76Q977.07 122.91 974.38 127.47Q971.70 132.03 966.75 134.52Q961.81 137.02 955.18 137.02M1033.71 136.06L992.91 136.06L992.91 65.98L1033.71 65.98L1033.71 74.52L1002.32 74.52L1002.32 95.36L1030.35 95.36L1030.35 103.61L1002.32 103.61L1002.32 127.52L1033.71 127.52L1033.71 136.06M1059.15 136.06L1049.74 136.06L1049.74 65.98L1071.44 65.98Q1077.87 65.98 1082.67 68.52Q1087.47 71.07 1090.16 75.63Q1092.85 80.19 1092.85 86.33Q1092.85 93.44 1089.25 98.52Q1085.65 103.61 1079.70 105.72L1093.81 136.06L1083.34 136.06LNaN 106.78L1059.15 106.78L1059.15 136.06M1059.15 74.43L1059.15 98.33L1071.44 98.33Q1076.82 98.33 1079.94 95.07Q1083.06 91.80 1083.06 86.43Q1083.06 80.96 1079.89 77.69Q1076.72 74.43 1071.44 74.43L1059.15 74.43M1133.94 136.06L1121.17 136.06L1103.22 65.98L1113.01 65.98L1124.62 113.21Q1125.78 117.72 1126.59 121.90Q1127.41 126.08 1127.79 128.28Q1128.08 126.08 1128.99 121.85Q1129.90 117.63 1130.96 113.12L1142.19 65.98L1151.98 65.98L1133.94 136.06M1204.30 136.06L1166.10 136.06L1166.10 127.42L1180.40 127.42L1180.40 74.62L1166.10 74.62L1166.10 65.98L1204.30 65.98L1204.30 74.62L1190 74.62L1190 127.42L1204.30 127.42L1204.30 136.06M1243.57 137.02Q1233.87 137.02 1228.16 131.60Q1222.45 126.17 1222.45 116.67L1222.45 85.28Q1222.45 75.87 1228.16 70.44Q1233.87 65.02 1243.57 65.02Q1253.17 65.02 1258.88 70.49Q1264.59 75.96 1264.59 85.28L1255.09 85.28Q1255.09 79.61 1252.02 76.54Q1248.94 73.47 1243.57 73.47Q1238.10 73.47 1235.02 76.54Q1231.95 79.61 1231.95 85.28L1231.95 116.67Q1231.95 122.43 1235.02 125.50Q1238.10 128.57 1243.57 128.57Q1248.94 128.57 1252.02 125.50Q1255.09 122.43 1255.09 116.67L1264.59 116.67Q1264.59 126.08 1258.88 131.55Q1253.17 137.02 1243.57 137.02M1321.71 136.06L1280.91 136.06L1280.91 65.98L1321.71 65.98L1321.71 74.52L1290.32 74.52L1290.32 95.36L1318.35 95.36L1318.35 103.61L1290.32 103.61L1290.32 127.52L1321.71 127.52" fill="url(#paint2_linear_0_1)"/>
<g id="Group 1">
<rect id="Rectangle 1" x="26" y="168" width="12" height="184" rx="5" fill="url(#paint3_linear_0_1)" fill-opacity="0.9"/>
</g>
<g id="Group 1_2">
<rect id="Rectangle 2" x="26" y="38" width="12" height="119" rx="5" fill="url(#paint4_linear_0_1)" fill-opacity="0.9"/>
</g>
<ellipse id="Ellipse 1" cx="148.5" cy="573" rx="215.5" ry="214" fill="url(#paint5_linear_0_1)" fill-opacity="0.4"/>
<rect id="Rectangle 3" x="1229" y="48" width="300" height="300" rx="25" fill="#FFFBFB" fill-opacity="0.9"/>
<g id="placeholder-logo"><g transform="translate(1229,48) translate(0.0,60.0) scale(1.2000)"><g fill="#666666">
  <path d="m88.05,27.65c-3.15,4 -3.2,51.2 -0.05,54.35c2.75,2.75 71.7,3.15 74.45,0.45c2.85,-2.9 2.3,-53.85 -0.65,-55.9c-1.95,-1.35 -7.15,-1.55 -36.95,-1.55l-34.7,0l-2.1,2.65zm69.45,3.35c0.65,0 1,8.6 1,23.75l0,23.75l-33,0l-33,0l-0.25,-23c-0.15,-12.6 -0.1,-23.45 0.15,-24.1c0.35,-0.85 8.9,-1.05 32.25,-0.75c17.55,0.2 32.3,0.35 32.85,0.35z"/>
  <path d="m99.15,37.3c-6.85,7.35 4.25,17.35 11.4,10.25c1.35,-1.35 2.45,-3.65 2.45,-5.05c0,-6.45 -9.35,-9.95 -13.85,-5.2z"/>
  <path d="m135,42.5c-0.7,0.85 -5.25,5.15 -10.1,9.6l-8.85,8.1l-3.2,-3.2l-3.15,-3.15l-6.35,6.3c-5.55,5.5 -6.35,6.75 -6.35,10.05l0,3.8l28.5,0l28.5,0l0,-8.6l0,-8.55l-8.15,-7.7c-9.35,-8.85 -9.15,-8.7 -10.85,-6.65zm7.25,15.2c0.95,0.9 1.75,2.9 1.75,4.45c6.35,-5.05 4.75,-7.15 4.9,-11.55c0.95,0 0,0 0,0l-6.65,7.1z"/>
  <path d="m53.65,110.75c0.1,4.8 0.45,8.65 0.75,8.5c0.35,-0.15 1.3,-0.25 2.1,-0.25c1.1,0 1.5,-1.2 1.5,-4.75l0,-4.75l3.25,5c4.9,7.5 6.2,6.75 6.55,-3.75c0.25,-8.15 0.15,-8.75 -1.7,-8.75c-1.65,0 -2.05,0.8 -2.3,4.75l-0.3,4.75l-2.8,-4.75c-4.85,-8.25 -7.25,-6.9 -7.05,4z"/>
  <path d="m91,108.9c0,9.65 0.3,10.1 6.1,10.1c5.8,0 7.15,-2.65 1.65,-3.2l-3.25,-0.3l-0.3,-6.75c-0.25,-5.95 -0.55,-6.75 -2.25,-6.75c-1.75,0 -1.95,0.7 -1.95,6.9z"/>
  <path d="m151,102.45c0,0.25 1,2.15 2.25,4.2c1.2,2.1 2.45,5.8 2.75,8.25c0.65,5.9 4,6.95 4,1.25c0.05,-2.1 1.25,-5.85 2.95,-8.9l2.9,-5.25l-2.5,0c-1.8,0 -2.8,0.85 -3.75,3.1l-1.3,3.05l-1.25,-3.05c-1.1,-2.6 -6.05,-4.8 -6.05,-2.65z"/>
  <path d="m191,107.45c0,9.05 3.4,8.85 4.25,-0.2c0.45,-5 0.35,-5.25 -1.9,-5.25c-2.2,0 -2.35,0.4 -2.35,5.45z"/>
  <path d="m180.8,104.75c-1.3,5.35 0.65,13.6 3.45,14.35c2.3,0.6 2.75,0.4 2.75,-1.2c0,-1.05 -0.45,-1.9 -1,-1.9c-0.55,0 -1,-1.6 -1,-3.5c0,-1.95 0.45,-3.5 1,-3.5c0.55,0 1,-0.7 1,-1.5c0,-0.85 -0.45,-1.5 -1,-1.5c-0.55,0 -1,-0.7 -1,-1.5c0,-2.1 -3.65,-1.9 -4.2,0.25z"/>
  <path d="m71.55,106.55c-2.2,2.25 -2.05,9.7 0.3,11.8c4.5,4.1 10.15,0.75 10.15,-6.1c0,-4.85 -2,-7.25 -6,-7.25c-1.55,0 -3.55,0.7 -4.45,1.55zm6.25,5.8c0.25,3.05 0,3.65 -1.6,3.65c-2.3,0 -3.25,-2.65 -2.05,-5.85c1.25,-3.35 3.3,-2.1 3.65,2.2z"/>
  <path d="m105.75,106.1c-2.5,1.45 -2.45,9.95 0.1,12.25c4.3,3.9 10.15,0.35 10.15,-6.2c0,-6 -5.15,-9.05 -10.25,-6.05zm6.05,6.25c0.25,3.05 0,3.65 -1.6,3.65c-2.3,0 -3.25,-2.65 -2.05,-5.85c1.25,-3.35 3.3,-2.1 3.65,2.2z"/>
  <path d="m119.2,106.2c-3.8,3.8 -0.4,12.55 4.4,11.35c1.9,-0.45 2.45,-0.3 2.15,0.65c-0.25,0.7 -1.55,1.2 -2.85,1.1c-4.05,-0.3 -5.35,0.45 -3.85,2.25c0.85,1.05 2.6,1.45 5.35,1.25l4.1,-0.3l0.3,-8.75l0.3,-8.75l-4.35,0c-2.4,0 -4.9,0.55 -5.55,1.2zm6.6,4.45c0.4,2.85 -2.15,4.85 -3.75,2.95c-0.9,-1.1 -0.9,-2 -0.05,-3.6c1.35,-2.5 3.4,-2.15 3.8,0.65z"/>
  <path d="m133.55,106.55c-2.2,2.25 -2.05,9.7 0.3,11.8c4.5,4.1 10.15,0.75 10.15,-6.1c0,-4.85 -2,-7.25 -6,-7.25c-1.55,0 -3.55,0.7 -4.45,1.55zm6.25,5.8c0.25,3.05 0,3.65 -1.6,3.65c-2.3,0 -3.25,-2.65 -2.05,-5.85c1.25,-3.35 3.3,-2.1 3.65,2.2z"/>
  <path d="m167.65,106.85c-3.9,4.3 -0.75,13.15 4.7,13.15c2.4,0 5.65,-2.75 5.65,-4.85c0,-1.4 -2.65,-1.55 -3.5,-0.15c-0.95,1.55 -4.5,1.15 -4.5,-0.5c0,-1.1 1.1,-1.5 4,-1.5c3.15,0 4,-0.35 4,-1.8c0,-5.3 -6.85,-8.25 -10.35,-4.35z"/>
  <path d="m191,117.5c0,2.15 0.4,2.6 2.25,2.3c1.5,-0.2 2.25,-1 2.25,-2.3c0,-1.3 -0.75,-2.1 -2.25,-2.3c-1.85,-0.3 -2.25,0.15 -2.25,2.3z"/>
 </g></g></g>
</g>
<defs>
<linearGradient id="paint0_linear_0_1" x1="0" y1="198" x2="1584" y2="198" gradientUnits="userSpaceOnUse">
<stop stop-color="#3D052C"/>
<stop offset="1"/>
</linearGradient>
<linearGradient id="paint1_linear_0_1" x1="323" y1="-224" x2="323" y2="352" gradientUnits="userSpaceOnUse">
<stop stop-color="#28F6F2" stop-opacity="0.4"/>
<stop offset="1" stop-color="#17908E" stop-opacity="0.7"/>
</linearGradient>
<linearGradient id="paint2_linear_0_1" x1="148.5" y1="38" x2="148.5" y2="140" gradientUnits="userSpaceOnUse">
<stop stop-color="white"/>
<stop offset="1" stop-color="#999999"/>
</linearGradient>
<linearGradient id="paint3_linear_0_1" x1="38" y1="260" x2="26" y2="260" gradientUnits="userSpaceOnUse">
<stop stop-color="#D9D9D9"/>
<stop offset="1" stop-color="#737373"/>
</linearGradient>
<linearGradient id="paint4_linear_0_1" x1="38" y1="97.5" x2="26" y2="97.5" gradientUnits="userSpaceOnUse">
<stop stop-color="#D9D9D9"/>
<stop offset="1" stop-color="#737373"/>
</linearGradient>
<linearGradient id="paint5_linear_0_1" x1="27.5" y1="434.5" x2="148.5" y2="787" gradientUnits="userSpaceOnUse">
<stop stop-color="#2E21BC"/>
<stop offset="1" stop-color="#150F56"/>
</linearGradient>
<clipPath id="clip0_0_1">
<rect width="1584" height="396" fill="white"/>
</clipPath>
</defs>
</svg>
